<svg width="332" height="332" viewBox="0 0 332 332" fill="none" xmlns="http://www.w3.org/2000/svg">
<g clip-path="url(#clip0_33_4)">
<path d="M166 7C78.327 7 7 78.327 7 166C7 253.673 78.327 325 166 325C253.673 325 325 253.673 325 166C325 78.327 253.673 7 166 7ZM166 0C198.832 0 230.926 9.73573 258.225 27.976C285.523 46.2164 306.8 72.142 319.364 102.475C331.928 132.807 335.216 166.184 328.81 198.385C322.405 230.586 306.595 260.164 283.38 283.38C260.164 306.595 230.586 322.405 198.385 328.81C166.184 335.216 132.807 331.928 102.475 319.364C72.142 306.8 46.2164 285.523 27.976 258.225C9.73573 230.926 0 198.832 0 166C0 121.974 17.4892 79.7513 48.6203 48.6203C79.7513 17.4892 121.974 0 166 0Z" fill="#F6A513"/>
<path d="M167.08 325C161.034 325.001 154.993 324.656 148.987 323.97C228.729 314.824 288.851 246.913 288.851 165.999C288.851 85.0851 228.729 17.1734 149.004 8.02937C165.649 6.12182 182.491 6.86358 198.904 10.2286C219.122 14.3998 238.315 22.5314 255.376 34.1534C289.687 57.4819 313.521 93.2959 321.794 133.953C326.071 155.101 326.071 176.891 321.794 198.039C316.681 223.243 305.524 246.827 289.282 266.766C273.039 286.704 252.197 302.399 228.548 312.502C218.999 316.567 209.068 319.67 198.903 321.765C188.432 323.914 177.77 324.997 167.081 324.997L167.08 325Z" fill="#75757A" fill-opacity="0.18"/>
<path d="M205 114C219.359 114 231 102.359 231 88C231 73.6406 219.359 62 205 62C190.641 62 179 73.6406 179 88C179 102.359 190.641 114 205 114Z" fill="#75757A" fill-opacity="0.18"/>
<path d="M205 69C201.242 69 197.569 70.1143 194.444 72.2021C191.32 74.2898 188.884 77.2572 187.446 80.729C186.008 84.2008 185.632 88.0211 186.365 91.7067C187.098 95.3924 188.908 98.7778 191.565 101.435C194.222 104.092 197.608 105.902 201.293 106.635C204.979 107.368 208.799 106.992 212.271 105.554C215.743 104.116 218.71 101.68 220.798 98.5558C222.886 95.4313 224 91.7578 224 88C224 82.9609 221.998 78.1282 218.435 74.565C214.872 71.0018 210.039 69 205 69ZM205 62C210.142 62 215.169 63.5249 219.445 66.3818C223.721 69.2387 227.053 73.2994 229.021 78.0502C230.989 82.8011 231.504 88.0288 230.5 93.0723C229.497 98.1159 227.021 102.749 223.385 106.385C219.749 110.021 215.116 112.497 210.072 113.5C205.029 114.504 199.801 113.989 195.05 112.021C190.299 110.053 186.239 106.721 183.382 102.445C180.525 98.1691 179 93.1423 179 88C179 81.1044 181.739 74.4912 186.615 69.6152C191.491 64.7393 198.104 62 205 62Z" fill="#F6A513"/>
<path d="M73 192C87.3594 192 99 180.359 99 166C99 151.641 87.3594 140 73 140C58.6406 140 47 151.641 47 166C47 180.359 58.6406 192 73 192Z" fill="#75757A" fill-opacity="0.18"/>
<path d="M73 147C69.2422 147 65.5687 148.114 62.4442 150.202C59.3196 152.29 56.8844 155.257 55.4463 158.729C54.0082 162.201 53.632 166.021 54.3651 169.707C55.0982 173.392 56.9078 176.778 59.565 179.435C62.2222 182.092 65.6076 183.902 69.2933 184.635C72.9789 185.368 76.7992 184.992 80.271 183.554C83.7428 182.116 86.7102 179.68 88.7979 176.556C90.8857 173.431 92 169.758 92 166C92 160.961 89.9982 156.128 86.435 152.565C82.8718 149.002 78.0391 147 73 147ZM73 140C78.1423 140 83.1691 141.525 87.4448 144.382C91.7205 147.239 95.053 151.299 97.0209 156.05C98.9887 160.801 99.5036 166.029 98.5004 171.072C97.4972 176.116 95.0209 180.749 91.3848 184.385C87.7486 188.021 83.1159 190.497 78.0723 191.5C73.0288 192.504 67.8011 191.989 63.0502 190.021C58.2994 188.053 54.2387 184.721 51.3818 180.445C48.5249 176.169 47 171.142 47 166C47 159.104 49.7393 152.491 54.6152 147.615C59.4912 142.739 66.1044 140 73 140Z" fill="#F6A513"/>
<path d="M216 264C230.359 264 242 252.359 242 238C242 223.641 230.359 212 216 212C201.641 212 190 223.641 190 238C190 252.359 201.641 264 216 264Z" fill="#75757A" fill-opacity="0.18"/>
<path d="M216 219C212.242 219 208.569 220.114 205.444 222.202C202.32 224.29 199.884 227.257 198.446 230.729C197.008 234.201 196.632 238.021 197.365 241.707C198.098 245.392 199.908 248.778 202.565 251.435C205.222 254.092 208.608 255.902 212.293 256.635C215.979 257.368 219.799 256.992 223.271 255.554C226.743 254.116 229.71 251.68 231.798 248.556C233.886 245.431 235 241.758 235 238C235 232.961 232.998 228.128 229.435 224.565C225.872 221.002 221.039 219 216 219ZM216 212C221.142 212 226.169 213.525 230.445 216.382C234.721 219.239 238.053 223.299 240.021 228.05C241.989 232.801 242.504 238.029 241.5 243.072C240.497 248.116 238.021 252.749 234.385 256.385C230.749 260.021 226.116 262.497 221.072 263.5C216.029 264.504 210.801 263.989 206.05 262.021C201.299 260.053 197.239 256.721 194.382 252.445C191.525 248.169 190 243.142 190 238C190 231.104 192.739 224.491 197.615 219.615C202.491 214.739 209.104 212 216 212Z" fill="#F6A513"/>
<path d="M173 200C182.389 200 190 192.389 190 183C190 173.611 182.389 166 173 166C163.611 166 156 173.611 156 183C156 192.389 163.611 200 173 200Z" fill="#75757A" fill-opacity="0.18"/>
<path d="M173 173C171.022 173 169.089 173.586 167.444 174.685C165.8 175.784 164.518 177.346 163.761 179.173C163.004 181 162.806 183.011 163.192 184.951C163.578 186.891 164.53 188.673 165.929 190.071C167.327 191.47 169.109 192.422 171.049 192.808C172.989 193.194 175 192.996 176.827 192.239C178.654 191.482 180.216 190.2 181.315 188.556C182.414 186.911 183 184.978 183 183C183 180.348 181.946 177.804 180.071 175.929C178.196 174.054 175.652 173 173 173ZM173 166C176.362 166 179.649 166.997 182.445 168.865C185.24 170.733 187.419 173.388 188.706 176.494C189.993 179.601 190.329 183.019 189.673 186.317C189.017 189.614 187.398 192.643 185.021 195.021C182.643 197.398 179.614 199.017 176.317 199.673C173.019 200.329 169.601 199.993 166.494 198.706C163.388 197.419 160.733 195.24 158.865 192.445C156.997 189.649 156 186.362 156 183C156 178.491 157.791 174.167 160.979 170.979C164.167 167.791 168.491 166 173 166Z" fill="#F6A513"/>
<path d="M122 277C131.389 277 139 269.389 139 260C139 250.611 131.389 243 122 243C112.611 243 105 250.611 105 260C105 269.389 112.611 277 122 277Z" fill="#75757A" fill-opacity="0.18"/>
<path d="M122 250C120.022 250 118.089 250.586 116.444 251.685C114.8 252.784 113.518 254.346 112.761 256.173C112.004 258 111.806 260.011 112.192 261.951C112.578 263.891 113.53 265.673 114.929 267.071C116.327 268.47 118.109 269.422 120.049 269.808C121.989 270.194 124 269.996 125.827 269.239C127.654 268.482 129.216 267.2 130.315 265.556C131.414 263.911 132 261.978 132 260C132 257.348 130.946 254.804 129.071 252.929C127.196 251.054 124.652 250 122 250ZM122 243C125.362 243 128.649 243.997 131.445 245.865C134.24 247.733 136.419 250.388 137.706 253.494C138.993 256.601 139.329 260.019 138.673 263.317C138.017 266.614 136.398 269.643 134.021 272.021C131.643 274.398 128.614 276.017 125.317 276.673C122.019 277.329 118.601 276.993 115.494 275.706C112.388 274.419 109.733 272.24 107.865 269.445C105.997 266.649 105 263.362 105 260C105 255.491 106.791 251.167 109.979 247.979C113.167 244.791 117.491 243 122 243Z" fill="#F6A513"/>
<path d="M105 96C114.389 96 122 88.3888 122 79C122 69.6112 114.389 62 105 62C95.6112 62 88 69.6112 88 79C88 88.3888 95.6112 96 105 96Z" fill="#75757A" fill-opacity="0.18"/>
<path d="M105 69C103.022 69 101.089 69.5865 99.4443 70.6853C97.7998 71.7841 96.5181 73.3459 95.7612 75.1732C95.0043 77.0004 94.8063 79.0111 95.1921 80.9509C95.578 82.8907 96.5304 84.6725 97.9289 86.0711C99.3275 87.4696 101.109 88.422 103.049 88.8079C104.989 89.1937 107 88.9957 108.827 88.2388C110.654 87.4819 112.216 86.2002 113.315 84.5557C114.414 82.9112 115 80.9778 115 79C115 76.3478 113.946 73.8043 112.071 71.9289C110.196 70.0536 107.652 69 105 69ZM105 62C108.362 62 111.649 62.997 114.445 64.865C117.24 66.733 119.419 69.388 120.706 72.4944C121.993 75.6007 122.329 79.0189 121.673 82.3165C121.017 85.6142 119.398 88.6433 117.021 91.0208C114.643 93.3983 111.614 95.0174 108.317 95.6734C105.019 96.3293 101.601 95.9926 98.4944 94.706C95.388 93.4193 92.733 91.2403 90.865 88.4447C88.997 85.6491 88 82.3623 88 79C88 74.4913 89.7911 70.1673 92.9792 66.9792C96.1673 63.7911 100.491 62 105 62Z" fill="#F6A513"/>
</g>
<defs>
<clipPath id="clip0_33_4">
<rect width="332" height="332" fill="white"/>
</clipPath>
</defs>
</svg>
