<svg xmlns="http://www.w3.org/2000/svg" width="26.002" height="26.002" viewBox="0 0 26.002 26.002">
  <g id="Group_22927" data-name="Group 22927" transform="translate(2478.388 -2300.302)">
    <g id="Group_22926" data-name="Group 22926" transform="translate(-2476.196 2300.302)">
      <g id="Group_22924" data-name="Group 22924" transform="translate(-1.192 0)">
        <g id="Group_22925" data-name="Group 22925">
          <g id="Group_22923" data-name="Group 22923" transform="translate(-1)">
            <rect id="Rectangle_4517" data-name="Rectangle 4517" width="26.002" height="26.002" rx="4" fill="rgba(248,6,204,0.19)"/>
          </g>
        </g>
      </g>
      <g id="Group_4" data-name="Group 4" transform="translate(0.813 0)">
        <path id="Path_1" data-name="Path 1" d="M491,192h0Zm3.168,0h0Z" transform="translate(-485.267 -175.585)" fill="none"/>
        <path id="Path_2" data-name="Path 2" d="M511.6,215.873c-.073-.118-.13-.212-.189-.305a14.719,14.719,0,0,1-1.762-3.73,6.491,6.491,0,0,1-.278-2.4,4.4,4.4,0,0,1,3.415-3.744,4.608,4.608,0,0,1,5.551,3.061,5.038,5.038,0,0,1,0,2.488,13.485,13.485,0,0,1-1.829,4.2c-.084.137-.169.273-.269.434h.215c1.156,0,2.312,0,3.467,0a.35.35,0,0,1,.381.242q.959,2.385,1.931,4.765c.114.28.02.409-.3.409H505.906c-.315,0-.41-.132-.3-.41q.963-2.374,1.927-4.749c.094-.231.132-.254.4-.255H511.6Zm2.316,2.292c.051-.057.092-.1.124-.14.622-.847,1.274-1.676,1.857-2.546a13.387,13.387,0,0,0,1.844-3.871,5.346,5.346,0,0,0,.2-2.386,4,4,0,0,0-3.862-3.2,4.059,4.059,0,0,0-4.105,2.878,4.827,4.827,0,0,0,.058,2.436,12.088,12.088,0,0,0,1.287,3.113A24.485,24.485,0,0,0,513.919,218.165Zm-1.94,1.689a.449.449,0,0,0-.033-.065q-1.383-1.689-2.77-3.374a.261.261,0,0,0-.173-.078c-.287-.008-.575,0-.862-.007a.2.2,0,0,0-.224.149q-.843,2.09-1.694,4.177c-.02.049-.034.1-.057.167h.217c.8,0,1.6.006,2.392,0a2.074,2.074,0,0,0,.6-.1c.869-.28,1.732-.574,2.607-.867Zm-2.234-3.52c.06.078.095.127.133.173.826,1.008,1.655,2.014,2.474,3.026a.249.249,0,0,0,.331.09q3.174-1.07,6.352-2.127l1.147-.383c-.09-.222-.178-.426-.253-.634a.2.2,0,0,0-.224-.149q-1.812.008-3.624,0a.263.263,0,0,0-.24.123q-.815,1.066-1.642,2.124c-.2.256-.351.257-.548.006-.556-.709-1.1-1.424-1.657-2.134a.274.274,0,0,0-.168-.111c-.68-.008-1.359-.005-2.081-.005Zm.915,4.457.011.017h8.165c-.04-.054-.066-.09-.094-.125-.522-.637-1.047-1.272-1.564-1.912a.206.206,0,0,0-.274-.073q-3.008,1.012-6.021,2.014c-.075.025-.149.052-.224.079Zm6.908-2.3c.627.764,1.24,1.516,1.861,2.262a.293.293,0,0,0,.2.065c.563.005,1.126,0,1.689,0h.375l-1.33-3.276-2.713.9a.681.681,0,0,0-.08.041Z" transform="translate(-503.938 -201.036)" fill="#ff4949"/>
        <path id="Path_3" data-name="Path 3" d="M596.6,230.395v0Zm0-7.525v0Z" transform="translate(-582.996 -210.823)" fill="none"/>
        <path id="Path_4" data-name="Path 4" d="M531.7,455.6c-2,.469-3.981.942-5.97,1.391a6.616,6.616,0,0,1-1.367.157c-1.826.017-3.652.007-5.478.007h-.5c.051-.106.084-.189.13-.268q1.942-3.351,3.879-6.7c.1-.172.215-.248.512-.24.657.017,1.316,0,1.973.011a.734.734,0,0,1,.4.124q3.182,2.7,6.344,5.415A.68.68,0,0,1,531.7,455.6Z" transform="translate(-515.063 -441.833)" fill="none"/>
        <path id="Path_5" data-name="Path 5" d="M594.528,449.977a6.785,6.785,0,0,1,1.089.037,4.284,4.284,0,0,1,.088.831c.29,5.3.576,10.633.867,15.922.1,1.878.181,1.872.287-.043q.434-7.88.859-15.847c.025-.6.074-.958.125-.921a18.294,18.294,0,0,0,1.9,0c.068,0,.1.3.117,1.115.039,1.551.085,3.07.132,4.73l-.6,2.859q-1.662,7.92-3.323,15.868c-.081.388-.121.248-.173-.672-.429-7.552-.863-15.058-1.295-22.578C594.578,450.922,594.559,450.557,594.528,449.977Z" transform="translate(-587.122 -449.95)" fill="none"/>
        <path id="Path_6" data-name="Path 6" d="M613.989,511.65c.181-.106.363-.216.546-.316q7.354-4.03,14.706-8.072c.31-.171.469-.111.669.294,1.263,2.568,2.544,5.112,3.819,7.665.069.138.132.285.23.5H614.016Z" transform="translate(-613.989 -495.058)" fill="none"/>
        <path id="Path_7" data-name="Path 7" d="M760.949,484.5c.021-.113.044-.214.067-.3.754-2.2,1.508-4.4,2.276-6.636l1.116,24.022h-.315c-.472,0-.945.016-1.417-.021-.061.022-.12-.15-.166-.48C761.989,495.609,761.475,490.1,760.949,484.5Z" transform="translate(-753.67 -477.183)" fill="none"/>
        <path id="Path_8" data-name="Path 8" d="M640.958,262.3a1.9,1.9,0,0,1-1.746-1.132,1.759,1.759,0,0,1,.43-1.977,1.956,1.956,0,0,1,2.072-.371,1.812,1.812,0,0,1,1.147,1.695A1.851,1.851,0,0,1,640.958,262.3Zm.019-.43a1.577,1.577,0,0,0,.436-.065,1.38,1.38,0,0,0,1.005-1.321,1.446,1.446,0,0,0-2.889,0,1.35,1.35,0,0,0,.423.98,1.472,1.472,0,0,0,1.024.4Z" transform="translate(-630.939 -252.341)" fill="#ff4949"/>
        <path id="Path_9" data-name="Path 9" d="M655.2,288.073c-2.259.023-4.3-2.269-5.175-5.8a14.587,14.587,0,0,1,1.2-10.321c1.6-2.71,4-3.517,6.086-2.043s3.439,4.937,3.428,8.768C660.727,283.855,658.253,288.053,655.2,288.073Z" transform="translate(-645.179 -266.238)" fill="none"/>
      </g>
    </g>
  </g>
</svg>
