<svg width="25" height="25" viewBox="0 0 25 25" fill="none" xmlns="http://www.w3.org/2000/svg">
<g clip-path="url(#clip0_119_26)">
<path d="M21 0H4C1.79086 0 0 1.79086 0 4V21C0 23.2091 1.79086 25 4 25H21C23.2091 25 25 23.2091 25 21V4C25 1.79086 23.2091 0 21 0Z" fill="#AD24D5" fill-opacity="0.33"/>
<path d="M19.3232 18.3482C19.452 18.351 19.58 18.3277 19.6996 18.2797C19.8192 18.2317 19.9278 18.16 20.0189 18.0689C20.11 17.9778 20.1817 17.8692 20.2297 17.7496C20.2777 17.6301 20.301 17.502 20.2982 17.3732C20.2982 16.3982 19.3232 13.4741 15.425 13.4741C11.5268 13.4741 10.5509 16.3991 10.5509 17.3741C10.5482 17.5028 10.5716 17.6308 10.6196 17.7502C10.6677 17.8697 10.7394 17.9782 10.8305 18.0692C10.9216 18.1602 11.0302 18.2318 11.1497 18.2798C11.2692 18.3277 11.3971 18.351 11.5259 18.3482H19.3232ZM11.5473 17.3741H11.5259C11.5913 16.7514 11.8505 16.1649 12.2669 15.6973C12.6656 15.2655 13.1567 14.9293 13.7036 14.714C14.2504 14.4986 14.8389 14.4096 15.425 14.4536C16.011 14.41 16.5994 14.4992 17.1461 14.7145C17.6929 14.9299 18.1841 15.2658 18.583 15.6973C18.997 16.1632 19.2558 16.7464 19.3232 17.3661H19.3152H19.3018L11.5473 17.3741ZM15.425 11.5259C15.8759 11.5257 16.3128 11.3692 16.6613 11.083C17.0098 10.7969 17.2482 10.3987 17.3361 9.95641C17.4239 9.51412 17.3556 9.05505 17.143 8.65744C16.9303 8.25982 16.5863 7.94825 16.1696 7.77582C15.753 7.60338 15.2894 7.58074 14.858 7.71177C14.4265 7.84279 14.0538 8.11936 13.8034 8.49436C13.5529 8.86936 13.4403 9.31959 13.4846 9.76834C13.5289 10.2171 13.7275 10.6366 14.0464 10.9554C14.4122 11.3205 14.9081 11.5263 15.425 11.5259ZM18.3491 9.57678C18.349 10.2533 18.1143 10.9088 17.6851 11.4317C17.2559 11.9546 16.6586 12.3125 15.9951 12.4444C15.3316 12.5763 14.6428 12.474 14.0462 12.155C13.4497 11.8361 12.9821 11.3201 12.7233 10.6951C12.4645 10.07 12.4304 9.37459 12.6269 8.72724C12.8233 8.07989 13.2382 7.52068 13.8007 7.1449C14.3632 6.76911 15.0386 6.6 15.7119 6.66638C16.3851 6.73276 17.0145 7.03052 17.4928 7.50892C18.0411 8.05744 18.3491 8.80124 18.3491 9.57678ZM11.4634 13.7473C11.0734 13.6245 10.6714 13.5436 10.2643 13.5062C10.0357 13.4842 9.80623 13.4735 9.57587 13.4741C5.67766 13.475 4.70266 16.3991 4.70266 17.3741C4.68385 17.5065 4.69611 17.6414 4.73848 17.7683C4.78084 17.8951 4.85214 18.0103 4.94673 18.1048C5.04132 18.1993 5.15661 18.2705 5.28347 18.3127C5.41034 18.355 5.54529 18.3671 5.67766 18.3482H9.7848C9.64019 18.0438 9.56807 17.7101 9.57408 17.3732C9.58904 16.335 9.96467 15.3344 10.6366 14.5429C10.8817 14.2478 11.159 13.9809 11.4634 13.7473ZM9.49908 14.4491C8.92374 15.3164 8.61349 16.3325 8.60623 17.3732H5.67766C5.74236 16.7492 6.0016 16.1614 6.41873 15.6929C6.80786 15.2702 7.28614 14.9394 7.81891 14.7245C8.35168 14.5095 8.9256 14.4157 9.49908 14.45V14.4491ZM6.16516 10.0634C6.16463 9.38693 6.39865 8.73122 6.82736 8.20796C7.25606 7.68469 7.85292 7.32625 8.51627 7.1937C9.17961 7.06114 9.86839 7.16267 10.4653 7.48099C11.0621 7.79931 11.5302 8.31473 11.7897 8.93944C12.0492 9.56415 12.084 10.2595 11.8883 10.907C11.6926 11.5546 11.2785 12.1142 10.7165 12.4906C10.1544 12.8671 9.47926 13.037 8.80598 12.9715C8.13271 12.9059 7.50298 12.609 7.02408 12.1312C6.75257 11.8597 6.5372 11.5373 6.39029 11.1825C6.24337 10.8277 6.16778 10.4474 6.16783 10.0634H6.16516ZM9.08926 8.11428C8.63833 8.11444 8.20141 8.27095 7.85294 8.55713C7.50446 8.84331 7.266 9.24147 7.17817 9.68376C7.09034 10.1261 7.15859 10.5851 7.37128 10.9827C7.58397 11.3803 7.92795 11.6919 8.3446 11.8644C8.76126 12.0368 9.22481 12.0594 9.65629 11.9284C10.0878 11.7974 10.4605 11.5208 10.7109 11.1458C10.9613 10.7708 11.0739 10.3206 11.0296 9.87183C10.9853 9.42309 10.7868 9.00359 10.4678 8.68482C10.2868 8.50385 10.0718 8.36032 9.8353 8.26242C9.59876 8.16453 9.34526 8.11419 9.08926 8.11428Z" fill="#AF00D8"/>
</g>
<defs>
<clipPath id="clip0_119_26">
<rect width="25" height="25" fill="white"/>
</clipPath>
</defs>
</svg>
