<svg xmlns="http://www.w3.org/2000/svg" width="26.002" height="26.002" viewBox="0 0 26.002 26.002">
  <g id="Group_22936" data-name="Group 22936" transform="translate(2543.869 -2358.164)">
    <g id="Group_22928" data-name="Group 22928" transform="translate(-66.481 57.863)">
      <g id="Group_22926" data-name="Group 22926" transform="translate(-2474.196 2254.302)">
        <g id="Group_22924" data-name="Group 22924" transform="translate(-1.192 0)">
          <g id="Group_22925" data-name="Group 22925" transform="translate(-1 46)">
            <g id="Group_22923" data-name="Group 22923" transform="translate(-1)">
              <rect id="Rectangle_4517" data-name="Rectangle 4517" width="26.002" height="26.002" rx="4" fill="rgba(55,151,164,0.24)"/>
            </g>
          </g>
        </g>
      </g>
    </g>
    <g id="Group_22935" data-name="Group 22935" transform="translate(-8 -8)">
      <g id="Group_22921" data-name="Group 22921" transform="translate(-2531.012 2370.946)">
        <path id="Path_17189" data-name="Path 17189" d="M-118.826-127.812h3.132a1.372,1.372,0,0,1,1.483,1.488q0,5.641,0,11.282a1.371,1.371,0,0,1-1.46,1.477h-13.095a1.641,1.641,0,0,1-1.733-1.747q0-6.608,0-13.216A1.369,1.369,0,0,1-129.038-130h8.753a1.37,1.37,0,0,1,1.46,1.477C-118.826-128.294-118.826-128.061-118.826-127.812Zm-8.833,13.7h12.018a.822.822,0,0,0,.886-.9q0-5.676,0-11.353a.824.824,0,0,0-.9-.9h-10.688a.827.827,0,0,0-.9.918q0,1.772,0,3.544v.183h-.543v-3.709a1.37,1.37,0,0,1,1.469-1.485h6.946v-.684a.836.836,0,0,0-.943-.96h-8.7a.835.835,0,0,0-.94.945v13.185c0,.057,0,.114,0,.171a1.056,1.056,0,0,0,.392.786,1.024,1.024,0,0,0,1.144.151,1.038,1.038,0,0,0,.631-.993c.007-1.124,0-2.249,0-3.373v-.178h.543v.193c0,1.039-.008,2.078,0,3.116A1.894,1.894,0,0,1-127.658-114.113Z" transform="translate(130.499 130.004)" fill="#feffde"/>
        <path id="Path_17191" data-name="Path 17191" d="M37.5-6.637A3.324,3.324,0,0,1,40.756-10a3.242,3.242,0,0,1,2.333.979,3.409,3.409,0,0,1,.968,2.386,3.326,3.326,0,0,1-3.25,3.355,3.376,3.376,0,0,1-.681-.07A3.324,3.324,0,0,1,37.5-6.637Zm5.489,1.753a2.914,2.914,0,0,0-.318-3.885,2.761,2.761,0,0,0-2.029-.751,2.775,2.775,0,0,0-1.948.95A2.884,2.884,0,0,0,38.569-4.9c.017-.044.034-.083.049-.124.137-.374.281-.745.408-1.122a.8.8,0,0,1,.642-.583c.1-.019.193-.049.291-.075a2.589,2.589,0,0,1-.112-1.137A.95.95,0,0,1,40.79-8.8a.932.932,0,0,1,.918.889A2.135,2.135,0,0,1,41.591-6.8a2.421,2.421,0,0,0,.251.068.841.841,0,0,1,.708.645c.128.4.287.794.438,1.206Zm-2.341-1.6c-.314.081-.6.16-.89.227a.351.351,0,0,0-.28.248c-.165.469-.338.936-.514,1.4a.159.159,0,0,0,.058.213,2.764,2.764,0,0,0,3.518,0,.159.159,0,0,0,.052-.214c-.173-.461-.344-.923-.508-1.388a.363.363,0,0,0-.289-.258c-.292-.067-.581-.148-.885-.227.093-.193.181-.364.26-.54a.756.756,0,0,0,.074-.255c.011-.194.009-.39,0-.585a.472.472,0,0,0-.469-.459.473.473,0,0,0-.464.464c0,.045,0,.09,0,.135a1.564,1.564,0,0,0,.234,1.027A2.205,2.205,0,0,1,40.648-6.48Z" transform="translate(-29.356 16.129)" fill="#feffde"/>
        <path id="Path_17192" data-name="Path 17192" d="M-103,17.026v-1h-3.274V14.084h3.263v-1l2.785,1.977Zm-2.724-2.558v1.173h3.277v.442l1.439-1.021-1.455-1.049v.455Z" transform="translate(107.012 -5.565)" fill="#feffde"/>
      </g>
    </g>
  </g>
</svg>
