<svg width="25" height="25" viewBox="0 0 25 25" fill="none" xmlns="http://www.w3.org/2000/svg">
<g clip-path="url(#clip0_174_2)">
<path d="M4 0H21C22.0609 0 23.0783 0.421427 23.8284 1.17157C24.5786 1.92172 25 2.93913 25 4V21C25 22.0609 24.5786 23.0783 23.8284 23.8284C23.0783 24.5786 22.0609 25 21 25H4C2.93913 25 1.92172 24.5786 1.17157 23.8284C0.421427 23.0783 0 22.0609 0 21V4C0 2.93913 0.421427 1.92172 1.17157 1.17157C1.92172 0.421427 2.93913 0 4 0Z" fill="#D54E24" fill-opacity="0.41"/>
<path d="M14.6186 3.57036C14.111 3.93027 13.547 4.53013 13.3778 4.95004C13.0675 5.69986 13.0393 5.69986 9.28869 5.69986H5.53804V7.73938C5.53804 8.87911 5.45344 11.4585 5.34063 13.438L5.17143 17.0972H4.07162C3 17.0972 3 17.0972 3 18.2669C3 18.9867 3.2256 19.7066 3.59221 20.2165L4.15622 20.9963H9.7963C16.9592 20.9963 16.5362 21.3262 16.5362 15.7775V11.7884L17.6642 11.5785C19.1024 11.3385 20.6535 9.71892 20.9355 8.21927C21.1893 6.74961 20.6817 5.1 19.6382 4.05025C18.482 2.88052 16.0286 2.64058 14.6186 3.57036ZM19.0178 4.35018C20.7381 5.87982 20.8791 8.30925 19.3844 9.92887C16.508 12.9582 11.9959 9.23903 13.8572 5.39993C14.7596 3.54037 17.495 2.9705 19.0178 4.35018ZM12.9265 7.6494L13.0111 8.99909H11.5447C10.7269 8.99909 10.0501 9.11906 10.0501 9.29902C10.0501 9.44898 10.7551 9.59895 11.6293 9.59895C12.9829 9.59895 13.3496 9.71892 14.1956 10.4987C14.7032 10.9786 15.3236 11.3985 15.5492 11.3985C15.8876 11.3985 15.9722 12.0884 15.9722 15.4176C15.9722 19.8865 15.803 20.3964 14.2802 20.3964C13.2932 20.3964 12.5881 19.4366 12.5881 18.087V17.1272L9.28869 17.0372C6.32765 16.9472 5.96104 16.8872 5.98924 16.4073C5.98924 16.1374 6.01744 13.738 6.04564 11.0986L6.10205 6.29972H9.4579H12.8137L12.9265 7.6494ZM12.0241 18.4769C12.0241 18.8968 12.1651 19.4966 12.3061 19.8265C12.5881 20.3664 12.4753 20.3964 8.52728 20.3964C4.63562 20.3964 4.41002 20.3664 4.01521 19.7366C3.76141 19.3767 3.56401 18.7468 3.56401 18.3869C3.56401 17.697 3.59221 17.697 7.79407 17.697H12.0241V18.4769Z" fill="#E85C1D"/>
<path d="M16.1696 5.27996C15.4928 6.23973 15.6338 6.95956 16.6208 7.43945C17.4104 7.85935 17.6078 8.5192 17.0438 8.87911C16.8746 8.99909 16.5926 8.87911 16.3952 8.60918C16.0004 8.00932 15.6902 7.94933 15.6902 8.45921C15.7184 8.87911 16.79 10.3488 16.9028 10.1688C16.9592 10.1088 17.2694 9.65893 17.6078 9.17904C18.3128 8.18928 18.0872 7.34947 16.931 6.89958C16.1696 6.56966 16.0004 5.69986 16.7054 5.69986C16.9592 5.69986 17.3258 5.90981 17.5232 6.20974C17.7488 6.50967 17.918 6.56966 18.059 6.3597C18.2 6.08977 17.1002 4.47015 16.79 4.50014C16.7336 4.50014 16.4516 4.86006 16.1696 5.27996Z" fill="#E85C1D"/>
<path d="M7.79407 8.84912C7.31466 9.47898 7.65307 10.1988 8.47088 10.1988C9.23229 10.1988 9.6553 9.41899 9.17589 8.81913C8.75288 8.27926 8.24528 8.27926 7.79407 8.84912ZM8.78109 9.29902C8.86569 9.44898 8.75288 9.59895 8.49908 9.59895C8.24528 9.59895 8.13248 9.44898 8.21708 9.29902C8.30168 9.11906 8.44268 8.99909 8.49908 8.99909C8.55548 8.99909 8.69648 9.11906 8.78109 9.29902Z" fill="#E85C1D"/>
<path d="M7.79407 11.5485C7.31466 12.1783 7.65307 12.8982 8.47088 12.8982C9.23229 12.8982 9.6553 12.1184 9.17589 11.5185C8.75288 10.9786 8.24528 10.9786 7.79407 11.5485ZM8.78109 11.9984C8.86569 12.1484 8.75288 12.2983 8.49908 12.2983C8.24528 12.2983 8.13248 12.1484 8.21708 11.9984C8.30168 11.8184 8.44268 11.6985 8.49908 11.6985C8.55548 11.6985 8.69648 11.8184 8.78109 11.9984Z" fill="#E85C1D"/>
<path d="M10.0501 11.9984C10.0501 12.1783 11.0089 12.2983 12.3343 12.2983C13.7726 12.2983 14.534 12.1783 14.4212 11.9984C14.3366 11.8184 13.2932 11.6984 12.1369 11.6984C10.9243 11.6984 10.0501 11.8184 10.0501 11.9984Z" fill="#E85C1D"/>
<path d="M7.79407 14.2479C7.31466 14.8777 7.65307 15.5975 8.47088 15.5975C9.23229 15.5975 9.6553 14.8177 9.17589 14.2179C8.75288 13.678 8.24528 13.678 7.79407 14.2479ZM8.78109 14.6977C8.86569 14.8477 8.75288 14.9977 8.49908 14.9977C8.24528 14.9977 8.13248 14.8477 8.21708 14.6977C8.30168 14.5178 8.44268 14.3978 8.49908 14.3978C8.55548 14.3978 8.69648 14.5178 8.78109 14.6977Z" fill="#E85C1D"/>
<path d="M10.1911 14.6978C10.0783 14.8777 10.8397 14.9977 12.3061 14.9977C13.7726 14.9977 14.534 14.8777 14.4212 14.6978C14.3366 14.5178 13.3778 14.3978 12.3061 14.3978C11.2345 14.3978 10.2757 14.5178 10.1911 14.6978Z" fill="#E85C1D"/>
</g>
<defs>
<clipPath id="clip0_174_2">
<rect width="25" height="25" fill="white"/>
</clipPath>
</defs>
</svg>
