<svg width="25" height="25" viewBox="0 0 25 25" fill="none" xmlns="http://www.w3.org/2000/svg">
<g clip-path="url(#clip0_115_2)">
<path d="M21 0H4C1.79086 0 0 1.79086 0 4V21C0 23.2091 1.79086 25 4 25H21C23.2091 25 25 23.2091 25 21V4C25 1.79086 23.2091 0 21 0Z" fill="#505050" fill-opacity="0.3"/>
<path d="M6.18171 5.10071C5.88076 5.40803 5.98108 19.8049 6.28203 19.994C6.4325 20.0886 7.71153 19.0484 9.29151 17.5827L12.0251 15.006L14.7838 17.6064C16.6648 19.3794 17.6178 20.1122 17.7933 19.9468C17.9689 19.7813 18.019 17.1809 17.9939 12.3819L17.9187 5.07707L12.1254 5.00615C8.94041 4.98251 6.28203 5.02979 6.18171 5.10071ZM17.2917 12.311V18.9539L14.7838 16.6844C13.4045 15.4315 12.1756 14.4149 12.0502 14.4149C11.9248 14.4149 10.6959 15.4315 9.29151 16.6844L6.75853 18.9539V12.311V5.66808H12.0251H17.2917V12.311Z" fill="#838383"/>
</g>
<defs>
<clipPath id="clip0_115_2">
<rect width="25" height="25" fill="white"/>
</clipPath>
</defs>
</svg>
