<svg width="25" height="25" viewBox="0 0 25 25" fill="none" xmlns="http://www.w3.org/2000/svg">
<g clip-path="url(#clip0_145_14)">
<path d="M21.1541 0.000976562H3.84586C1.72185 0.000976562 0 1.72283 0 3.84683V21.1551C0 23.2791 1.72185 25.001 3.84586 25.001H21.1541C23.2782 25.001 25 23.2791 25 21.1551V3.84683C25 1.72283 23.2782 0.000976562 21.1541 0.000976562Z" fill="#3797A4" fill-opacity="0.35"/>
<path d="M6.80578 5.49295C6.55449 5.77834 6.07703 6.03778 5.72522 6.08967L5.09699 6.1675L5.02161 12.5758C4.97135 18.8025 4.97135 19.01 5.4488 19.01C5.77548 19.01 5.97652 19.2176 6.02677 19.6068C6.10216 20.1516 6.20268 20.1776 10.1228 20.3332C12.3342 20.437 14.7215 20.6446 15.4502 20.8262C17.1087 21.2672 18.3903 20.8781 19.6217 19.5549C20.7022 18.3874 21.1545 16.9864 20.9535 15.5075C20.7525 14.2363 19.5965 12.3942 18.8175 12.1347C18.3401 11.9791 18.2898 11.7196 18.2396 9.07329C18.1642 6.19345 18.1642 6.1675 17.5359 6.08967C17.1841 6.03778 16.7067 5.77834 16.4554 5.49295C15.9025 4.87028 15.7015 4.87028 15.1487 5.51889C14.8974 5.80428 14.5707 6.03778 14.4199 6.03778C14.244 6.03778 13.9425 5.80428 13.6912 5.51889C13.465 5.2335 13.1635 5 13.0127 5C12.8619 5 12.5604 5.2335 12.3342 5.51889C12.0829 5.80428 11.7814 6.03778 11.6055 6.03778C11.4547 6.03778 11.128 5.80428 10.8767 5.51889C10.6254 5.2335 10.3239 5 10.1982 5C10.0977 5 9.79615 5.2335 9.56999 5.51889C9.3187 5.80428 9.01715 6.03778 8.84124 6.03778C8.69047 6.03778 8.36379 5.80428 8.1125 5.51889C7.55966 4.87028 7.35862 4.87028 6.80578 5.49295ZM7.73556 6.29723C7.73556 6.58262 7.63504 6.81612 7.48427 6.81612C7.35862 6.81612 7.23298 6.58262 7.23298 6.29723C7.23298 6.01184 7.35862 5.77834 7.48427 5.77834C7.63504 5.77834 7.73556 6.01184 7.73556 6.29723ZM10.4998 6.29723C10.4998 6.58262 10.3993 6.81612 10.2485 6.81612C10.1228 6.81612 9.99719 6.58262 9.99719 6.29723C9.99719 6.01184 10.1228 5.77834 10.2485 5.77834C10.3993 5.77834 10.4998 6.01184 10.4998 6.29723ZM13.264 6.29723C13.264 6.58262 13.1635 6.81612 13.0127 6.81612C12.887 6.81612 12.7614 6.58262 12.7614 6.29723C12.7614 6.01184 12.887 5.77834 13.0127 5.77834C13.1635 5.77834 13.264 6.01184 13.264 6.29723ZM16.0282 6.29723C16.0282 6.58262 15.9277 6.81612 15.7769 6.81612C15.6513 6.81612 15.5256 6.58262 15.5256 6.29723C15.5256 6.01184 15.6513 5.77834 15.7769 5.77834C15.9277 5.77834 16.0282 6.01184 16.0282 6.29723ZM6.73039 6.94584C6.73039 7.20529 6.98168 7.33501 7.48427 7.33501C7.98685 7.33501 8.23814 7.20529 8.23814 6.94584C8.23814 6.71234 8.46431 6.55667 8.86637 6.55667C9.26844 6.55667 9.4946 6.71234 9.4946 6.94584C9.4946 7.20529 9.7459 7.33501 10.2485 7.33501C10.7511 7.33501 11.0024 7.20529 11.0024 6.94584C11.0024 6.71234 11.2285 6.55667 11.6306 6.55667C12.0327 6.55667 12.2588 6.71234 12.2588 6.94584C12.2588 7.20529 12.5101 7.33501 13.0127 7.33501C13.5153 7.33501 13.7666 7.20529 13.7666 6.94584C13.7666 6.71234 13.9927 6.55667 14.3948 6.55667C14.7969 6.55667 15.023 6.71234 15.023 6.94584C15.023 7.20529 15.2743 7.33501 15.7769 7.33501C16.2795 7.33501 16.5308 7.20529 16.5308 6.94584C16.5308 6.71234 16.7569 6.55667 17.159 6.55667C17.6867 6.55667 17.7872 6.68639 17.7872 7.33501V8.11334H11.6306H5.47393V7.33501C5.47393 6.68639 5.57445 6.55667 6.10216 6.55667C6.50423 6.55667 6.73039 6.71234 6.73039 6.94584ZM17.7872 10.1889V11.4861H16.5308C14.8974 11.4861 13.8168 11.9531 12.8117 13.1466C11.8316 14.3141 11.6557 14.9886 11.8316 16.9604L11.9573 18.4912H8.7156H5.47393V13.6914V8.89168H11.6306H17.7872V10.1889ZM18.7924 12.7834C19.9483 13.6395 20.652 15.3778 20.4258 16.8826C20.1745 18.569 18.6165 20.1776 16.9831 20.437C15.5256 20.6705 13.842 19.9441 13.0127 18.7506C12.4096 17.8685 12.0829 16.1043 12.3593 15.0146C12.5604 14.1325 13.7163 12.7834 14.6461 12.3682C15.7518 11.8234 17.7872 12.031 18.7924 12.7834ZM12.7111 19.4511C12.7865 19.7105 12.0829 19.7884 9.77102 19.7884C7.20785 19.7884 6.73039 19.7365 6.73039 19.3992C6.73039 19.0619 7.15759 19.01 9.67051 19.0619C11.7311 19.1138 12.6358 19.2435 12.7111 19.4511Z" fill="#FEFFDE"/>
<path d="M6.9063 10.0851C6.60475 10.3964 6.70527 11.1488 7.10733 11.4861C7.60992 11.9272 8.28841 11.3564 8.18789 10.604C8.1125 10.0592 7.25811 9.72189 6.9063 10.0851ZM7.60992 10.7078C7.6853 10.8375 7.63505 10.9672 7.5094 10.9672C7.35862 10.9672 7.23298 10.8375 7.23298 10.7078C7.23298 10.5521 7.28324 10.4483 7.3335 10.4483C7.40888 10.4483 7.53453 10.5521 7.60992 10.7078Z" fill="#FEFFDE"/>
<path d="M9.67051 10.0851C9.36896 10.3964 9.46947 11.1488 9.87154 11.4861C10.3741 11.9272 11.0526 11.3564 10.9521 10.604C10.8767 10.0592 10.0223 9.72189 9.67051 10.0851ZM10.4998 10.7078C10.4998 10.8375 10.3993 10.9672 10.2485 10.9672C10.1228 10.9672 9.99718 10.8375 9.99718 10.7078C9.99718 10.5521 10.1228 10.4483 10.2485 10.4483C10.3993 10.4483 10.4998 10.5521 10.4998 10.7078Z" fill="#FEFFDE"/>
<path d="M12.4347 10.0851C12.1332 10.3964 12.2337 11.1488 12.6358 11.4861C13.1383 11.9272 13.8168 11.3564 13.7163 10.604C13.6409 10.0592 12.7865 9.72189 12.4347 10.0851ZM13.264 10.7078C13.264 10.8375 13.1635 10.9672 13.0127 10.9672C12.887 10.9672 12.7614 10.8375 12.7614 10.7078C12.7614 10.5521 12.887 10.4483 13.0127 10.4483C13.1635 10.4483 13.264 10.5521 13.264 10.7078Z" fill="#FEFFDE"/>
<path d="M6.83091 12.6277C6.57962 13.3023 6.93142 13.873 7.53453 13.7693C8.36379 13.6655 8.36379 12.4201 7.53453 12.3164C7.20785 12.2645 6.9063 12.3942 6.83091 12.6277ZM7.73556 13.0428C7.73556 13.1725 7.63504 13.3023 7.48427 13.3023C7.35862 13.3023 7.23298 13.1725 7.23298 13.0428C7.23298 12.8871 7.35862 12.7834 7.48427 12.7834C7.63504 12.7834 7.73556 12.8871 7.73556 13.0428Z" fill="#FEFFDE"/>
<path d="M9.59512 12.6277C9.34383 13.3023 9.69563 13.873 10.2987 13.7693C11.128 13.6655 11.128 12.4201 10.2987 12.3164C9.97206 12.2645 9.67051 12.3942 9.59512 12.6277ZM10.4998 13.0428C10.4998 13.1725 10.3993 13.3023 10.2485 13.3023C10.1228 13.3023 9.99718 13.1725 9.99718 13.0428C9.99718 12.8871 10.1228 12.7834 10.2485 12.7834C10.3993 12.7834 10.4998 12.8871 10.4998 13.0428Z" fill="#FEFFDE"/>
<path d="M6.83091 14.9627C6.57962 15.6373 6.93142 16.208 7.53453 16.1043C8.36379 16.0005 8.36379 14.7552 7.53453 14.6514C7.20785 14.5995 6.9063 14.7292 6.83091 14.9627ZM7.73556 15.3778C7.73556 15.5075 7.63504 15.6373 7.48427 15.6373C7.35862 15.6373 7.23298 15.5075 7.23298 15.3778C7.23298 15.2222 7.35862 15.1184 7.48427 15.1184C7.63504 15.1184 7.73556 15.2222 7.73556 15.3778Z" fill="#FEFFDE"/>
<path d="M9.59512 14.9627C9.34383 15.6373 9.69563 16.208 10.2987 16.1043C10.7259 16.0524 10.8767 15.8448 10.8767 15.3778C10.8767 14.9108 10.7259 14.7033 10.2987 14.6514C9.97206 14.5995 9.67051 14.7292 9.59512 14.9627ZM10.4998 15.3778C10.4998 15.5075 10.3993 15.6373 10.2485 15.6373C10.1228 15.6373 9.99718 15.5075 9.99718 15.3778C9.99718 15.2222 10.1228 15.1184 10.2485 15.1184C10.3993 15.1184 10.4998 15.2222 10.4998 15.3778Z" fill="#FEFFDE"/>
<path d="M14.5707 13.0428C11.4044 15.0405 12.7363 19.8662 16.4554 19.8662C19.094 19.8662 20.7776 16.7529 19.3955 14.34C18.4406 12.6536 16.179 12.031 14.5707 13.0428ZM16.3046 13.8212C16.4303 13.8212 16.5308 13.6914 16.5308 13.5617C16.5308 12.939 17.7872 13.3541 18.516 14.2103C19.3955 15.2481 19.496 15.8189 18.8678 16.3118C18.4406 16.6491 18.4406 16.6491 18.8678 16.675C19.5463 16.675 19.1945 17.6609 18.2144 18.569C17.3098 19.3733 16.5308 19.503 16.5308 18.8025C16.5056 18.3874 16.4805 18.4133 16.1538 18.8544C15.8523 19.2695 15.7015 19.2954 15.0482 19.0101C14.244 18.6728 13.5153 17.7388 13.5153 17.0642C13.5153 16.8567 13.6409 16.675 13.7666 16.675C13.9173 16.675 14.0179 16.5453 14.0179 16.4156C14.0179 16.2599 13.842 16.1562 13.6158 16.1562C12.7363 16.1562 13.9425 13.9509 15.0984 13.432C15.7769 13.1206 15.9025 13.1466 15.9779 13.4579C16.0282 13.6655 16.179 13.8212 16.3046 13.8212Z" fill="#FEFFDE"/>
<path d="M17.1841 15.4038C16.6313 15.8448 16.4554 15.8967 16.1287 15.6373C15.9277 15.4556 15.7015 15.3778 15.6261 15.4556C15.4251 15.6632 16.0031 16.675 16.3046 16.675C16.6313 16.675 18.2898 15.3259 18.2898 15.0405C18.2898 14.7032 17.8626 14.833 17.1841 15.4038Z" fill="#FEFFDE"/>
</g>
<defs>
<clipPath id="clip0_145_14">
<rect width="25" height="25" fill="white"/>
</clipPath>
</defs>
</svg>
