<svg width="25" height="25" viewBox="0 0 25 25" fill="none" xmlns="http://www.w3.org/2000/svg">
<g clip-path="url(#clip0_29_8)">
<path d="M4 0H21C22.0609 0 23.0783 0.421427 23.8284 1.17157C24.5786 1.92172 25 2.93913 25 4V21C25 22.0609 24.5786 23.0783 23.8284 23.8284C23.0783 24.5786 22.0609 25 21 25H4C2.93913 25 1.92172 24.5786 1.17157 23.8284C0.421427 23.0783 0 22.0609 0 21V4C0 2.93913 0.421427 1.92172 1.17157 1.17157C1.92172 0.421427 2.93913 0 4 0Z" fill="#FFC420" fill-opacity="0.34"/>
<path d="M5.28533 7.48633L3 9.97266V12.9358C3 16.0012 3.34437 16.9208 4.5653 16.9208C4.87836 16.9208 5.28533 17.3295 5.50447 17.9425C6.34973 20.1564 8.94813 20.7013 10.5447 18.9984C11.0456 18.4534 11.4526 17.7382 11.4526 17.4657C11.4526 17.057 11.7657 16.9208 12.5483 16.9208C13.1431 16.9208 13.644 16.7505 13.644 16.5802C13.644 16.3758 13.1744 16.2396 12.5796 16.2396C11.703 16.2396 11.4839 16.1033 11.3274 15.3881C11.1082 14.4004 9.48033 13.1742 8.41592 13.1742C7.25761 13.1742 6.22451 13.8895 5.6297 15.0816C4.50268 17.3295 3.62612 16.3418 3.62612 12.8677V10.3473L5.75492 7.99722L7.91503 5.68119H11.9848C16.5868 5.68119 16.5242 5.64713 17.9955 8.81464C18.4964 9.90454 18.9973 10.5176 19.6234 10.756C20.1243 10.9263 20.5313 11.335 20.5313 11.6416C20.5313 11.9481 20.9696 12.6633 21.4705 13.2424C22.4097 14.2641 22.5662 14.741 22.2218 15.6946C21.9088 16.6142 21.0322 16.3077 20.4061 15.0816C18.8408 11.88 14.6145 13.038 14.5832 16.6823C14.5832 20.2926 19.2791 21.2804 20.5313 17.9425C20.7505 17.3295 21.1574 16.9208 21.4705 16.9208C22.5975 16.9208 23.1297 15.899 22.9732 13.9576C22.8166 11.8459 22.2844 11.0966 20.4061 10.3133C19.2791 9.83642 18.9347 9.46177 18.3086 7.99722C17.0251 5.03406 16.9937 5 11.9535 5H7.57066L5.28533 7.48633ZM22.0966 12.5612C22.0966 12.7655 21.8775 12.7315 21.627 12.4931C21.3766 12.2546 21.1574 11.914 21.1574 11.7437C21.1574 11.5394 21.3766 11.5734 21.627 11.8119C21.8775 12.0503 22.0966 12.3909 22.0966 12.5612ZM10.0438 14.7069C11.6404 16.4099 10.6073 19.3049 8.41592 19.3049C7.19499 19.3049 5.81753 18.0447 5.81753 16.9208C5.81753 14.2982 8.44723 12.9358 10.0438 14.7069ZM18.9973 14.2982C20.3435 15.4222 20.5626 17.2614 19.4356 18.4534C17.8703 20.1905 15.2093 19.0665 15.2093 16.6823C15.2093 14.5366 17.5259 13.0721 18.9973 14.2982Z" fill="#FC913E"/>
<path d="M7.6333 15.2859C6.88196 15.9671 6.75673 16.7845 7.25763 17.5679C7.85244 18.4534 8.66639 18.4875 9.35512 17.6701C10.0752 16.8186 10.0125 16.0352 9.19859 15.4222C8.35334 14.775 8.25942 14.775 7.6333 15.2859ZM9.13598 16.2736C9.2299 16.478 9.13598 16.8867 8.85423 17.1592C8.29072 17.7723 7.69591 17.4657 7.69591 16.5461C7.69591 15.8309 8.76031 15.6265 9.13598 16.2736Z" fill="#FC913E"/>
<path d="M16.8372 15.4222C15.992 16.0352 15.9607 16.9548 16.712 17.7042C17.4947 18.4875 18.2147 18.4194 18.7782 17.5679C19.2791 16.7846 19.1539 15.9671 18.4025 15.2859C17.7764 14.7751 17.6825 14.7751 16.8372 15.4222ZM18.3399 16.5461C18.3399 17.4657 17.7451 17.7723 17.1816 17.1592C16.6181 16.5461 16.8998 15.899 17.7451 15.899C18.1208 15.899 18.3399 16.1374 18.3399 16.5461Z" fill="#FC913E"/>
<path d="M6.41234 8.13351C5.56708 9.12123 4.87835 10.0408 4.87835 10.1771C4.87835 10.3474 7.75849 10.4495 11.2961 10.4495C15.491 10.4495 17.7138 10.3133 17.7138 10.1089C17.7138 9.90459 17.3694 8.98499 16.9311 8.06539L16.1485 6.36242H13.4875H10.8265V8.06539V9.76835H8.47852C6.2245 9.76835 6.13058 9.73429 6.44364 9.12123C6.91323 8.13351 8.32199 7.04361 9.13595 7.04361C9.51162 7.04361 9.9499 6.87331 10.0438 6.70301C10.169 6.49866 9.76206 6.36242 9.10464 6.36242C8.10285 6.36242 7.72718 6.63489 6.41234 8.13351ZM16.2424 8.23568C16.5241 8.91687 16.7746 9.52994 16.7746 9.59806C16.7746 9.70023 15.585 9.76835 14.1136 9.76835H11.4526V8.40598V7.04361H13.5814H15.7102L16.2424 8.23568Z" fill="#FC913E"/>
</g>
<defs>
<clipPath id="clip0_29_8">
<rect width="25" height="25" fill="white"/>
</clipPath>
</defs>
</svg>
