<svg width="25" height="25" viewBox="0 0 25 25" fill="none" xmlns="http://www.w3.org/2000/svg">
<path d="M21.1541 0H3.84586C1.72185 0 0 1.72185 0 3.84586V21.1541C0 23.2782 1.72185 25 3.84586 25H21.1541C23.2782 25 25 23.2782 25 21.1541V3.84586C25 1.72185 23.2782 0 21.1541 0Z" fill="#CFFF04" fill-opacity="0.24"/>
<path d="M5.12043 4.76515C5.12043 5.7339 4.68293 6.01515 4.18293 5.4214C3.96418 5.1714 3.58918 4.95265 3.37043 4.95265C2.80793 4.95265 2.80793 5.70265 3.40168 6.20265C4.02668 6.70265 3.71418 7.14015 2.74543 7.14015C1.68293 7.14015 1.93293 7.89015 3.02668 8.01515C3.99543 8.14015 4.05793 8.2964 3.33918 9.07765C2.99543 9.4839 2.93293 9.76515 3.15168 9.9839C3.37043 10.2027 3.58918 10.1402 3.87043 9.7964C4.46418 9.07765 5.12043 9.2339 5.12043 10.1089C5.12043 10.6089 5.30793 10.8902 5.58918 10.8902C5.87043 10.8902 6.05793 10.6089 6.05793 10.1089C6.05793 9.2339 6.27668 9.1714 7.12043 9.7964C7.96418 10.4214 8.37043 10.0464 7.80793 9.14015C7.15168 8.1714 7.18293 8.07765 8.08918 8.07765C8.58918 8.07765 8.87043 7.89015 8.87043 7.6089C8.87043 7.32765 8.58918 7.14015 8.08918 7.14015C7.21418 7.14015 7.05793 6.4839 7.77668 5.89015C8.12043 5.6089 8.18293 5.39015 7.96418 5.1714C7.74543 4.95265 7.43293 5.01515 6.99543 5.4214C6.33918 6.01515 6.37043 6.07765 5.87043 4.39015C5.68293 3.70265 5.12043 3.9839 5.12043 4.76515ZM5.99543 6.7964C6.62043 7.1714 6.30793 8.2339 5.55793 8.32765C4.77668 8.45265 4.30793 7.57765 4.83918 6.95265C5.24543 6.45265 5.43293 6.4214 5.99543 6.7964Z" fill="#FFCF00"/>
<path d="M9.87044 8.45265C9.96419 8.7339 10.9954 8.9214 12.9954 9.01515C14.9329 9.1089 16.1829 9.32765 16.5579 9.64015C18.7454 11.3276 20.1204 12.5464 20.1204 12.7964C20.1204 12.9526 18.6829 13.0776 16.9329 13.0776H13.7454L12.4329 11.7964C11.7142 11.0776 10.9642 10.6089 10.7767 10.7026C10.2454 11.0464 10.9017 12.0151 12.3704 13.0776C13.6204 13.9839 13.7454 14.0151 17.3704 14.0151H21.0579V15.3276V16.6089L20.3392 15.9526C18.4642 14.1714 15.6829 16.1401 16.8392 18.3901C17.7767 20.1714 19.5579 20.0151 21.0579 18.0151C21.8392 16.9214 21.9954 16.4214 21.9954 14.9839C21.9954 13.2651 21.9642 13.2339 19.9954 11.2964C16.9017 8.2964 16.4329 8.07765 12.8392 8.07765C10.4954 8.07765 9.77669 8.1714 9.87044 8.45265ZM19.8079 16.6714C20.6517 17.6714 19.0892 19.2339 18.0892 18.3901C17.6204 17.9839 17.4642 16.7964 17.8392 16.4214C18.2142 16.0464 19.4017 16.2026 19.8079 16.6714Z" fill="#FFCF00"/>
<path d="M18.4329 17.0464C18.0892 17.3902 18.2454 17.7652 18.7142 17.7652C18.9642 17.7652 19.1829 17.6402 19.1829 17.4839C19.1829 17.0777 18.6829 16.7964 18.4329 17.0464Z" fill="#FFCF00"/>
<path d="M6.87044 11.7339C6.77669 11.8277 6.68294 13.0777 6.68294 14.4527C6.68294 16.9527 6.68294 16.9839 7.90169 18.3277C9.40169 19.9527 10.4017 20.0464 11.6829 18.7027C12.4017 17.9214 12.8079 17.7652 14.0267 17.7652C16.0267 17.7652 15.7454 17.0152 13.7142 16.8902C12.5579 16.8277 12.0579 16.6089 11.6204 16.0152C10.8392 15.0464 9.33919 15.0152 8.33919 15.9527L7.62044 16.6089V14.2339C7.62044 12.0464 7.37044 11.2339 6.87044 11.7339ZM10.9954 16.7027C11.6204 17.8277 10.6829 18.9214 9.49544 18.5464C8.74544 18.2964 8.49544 17.5464 8.87044 16.7964C9.27669 16.0777 10.6204 16.0152 10.9954 16.7027Z" fill="#FFCF00"/>
<path d="M9.68293 17.0464C9.33918 17.3902 9.49543 17.7652 9.96418 17.7652C10.2142 17.7652 10.4329 17.6402 10.4329 17.4839C10.4329 17.0777 9.93293 16.7964 9.68293 17.0464Z" fill="#FFCF00"/>
<path d="M9.27669 13.4527C9.33919 13.6714 9.58919 13.8589 9.80794 13.8589C10.0267 13.8589 10.2767 13.6714 10.3704 13.4527C10.4329 13.2339 10.2142 13.0777 9.80794 13.0777C9.40169 13.0777 9.18294 13.2339 9.27669 13.4527Z" fill="#FFCF00"/>
<path d="M2.21419 14.2027C1.68294 14.7339 2.12044 14.9527 3.74544 14.9527C4.99544 14.9527 5.46419 14.8277 5.37044 14.5464C5.21419 14.1402 2.58919 13.8589 2.21419 14.2027Z" fill="#FFCF00"/>
<path d="M3.40168 16.2026C3.15168 16.5776 3.93293 16.9214 4.68293 16.7651C4.99543 16.7339 5.27668 16.4839 5.37043 16.2651C5.52668 15.7964 3.68293 15.7339 3.40168 16.2026Z" fill="#FFCF00"/>
</svg>
