<?xml version="1.0" standalone="no"?>
<!DOCTYPE svg PUBLIC "-//W3C//DTD SVG 20010904//EN"
 "http://www.w3.org/TR/2001/REC-SVG-20010904/DTD/svg10.dtd">
<svg version="1.0" xmlns="http://www.w3.org/2000/svg"
 width="1280.000000pt" height="904.000000pt" viewBox="0 0 1280.000000 904.000000"
 preserveAspectRatio="xMidYMid meet">
<metadata>
Created by potrace 1.15, written by Peter Selinger 2001-2017
</metadata>
<g transform="translate(0.000000,904.000000) scale(0.100000,-0.100000)"
fill="#ff9800" stroke="none">
<path d="M7226 8183 c-13 -21 -51 -84 -83 -141 l-60 -103 -108 121 c-80 91
-113 120 -128 118 -17 -2 -29 -29 -70 -153 -27 -82 -51 -152 -53 -154 -2 -2
-59 40 -128 93 -120 92 -158 111 -169 84 -2 -7 -12 -78 -22 -158 -10 -80 -21
-148 -24 -152 -3 -3 -71 25 -151 63 -79 38 -151 67 -158 64 -12 -4 -14 -30 -8
-153 4 -81 9 -155 12 -164 7 -25 -9 -23 -171 21 -77 21 -146 36 -152 33 -20
-7 -15 -48 26 -196 l39 -138 -142 6 c-77 4 -148 9 -157 12 -8 2 -24 -2 -35
-10 -18 -14 -17 -19 54 -161 40 -81 72 -149 70 -151 -2 -2 -73 -12 -157 -24
-84 -11 -157 -22 -162 -26 -21 -12 -5 -47 59 -131 37 -48 80 -104 95 -125 l28
-36 -155 -52 c-96 -32 -157 -57 -160 -67 -7 -17 36 -61 171 -176 l73 -61 -83
-48 c-45 -27 -108 -63 -139 -81 -60 -33 -75 -51 -59 -71 6 -7 69 -46 140 -87
72 -40 130 -77 131 -80 0 -4 -54 -55 -120 -114 -66 -58 -120 -111 -120 -116 0
-16 44 -37 170 -80 69 -23 129 -46 134 -50 5 -5 -30 -60 -82 -128 -51 -66 -92
-129 -92 -140 0 -22 6 -25 108 -42 39 -7 72 -15 72 -19 0 -4 23 -8 50 -9 76
-3 90 -5 90 -12 0 -4 -30 -69 -67 -143 l-66 -136 -507 0 -506 0 -72 61 -71 62
49 26 c61 32 93 59 85 71 -3 4 8 18 25 30 16 12 30 28 30 35 0 8 -44 40 -97
71 -65 38 -92 59 -82 63 32 12 92 71 94 90 1 12 14 34 28 49 36 38 27 57 -36
78 -29 9 -75 25 -103 35 l-51 19 39 41 c26 27 38 48 35 60 -3 10 6 33 19 50
25 35 31 64 14 74 -9 5 -181 33 -215 35 -7 0 -7 3 0 8 15 11 46 82 40 92 -3 5
5 33 19 63 35 79 30 83 -113 79 l-120 -4 13 44 c25 81 40 188 29 199 -8 8 -33
5 -84 -10 -41 -11 -93 -24 -116 -29 l-41 -9 1 121 c2 117 1 121 -20 124 -11 2
-62 -17 -112 -42 -50 -25 -94 -46 -99 -46 -5 0 -16 50 -25 111 -10 61 -20 115
-23 120 -11 19 -38 6 -127 -60 -50 -38 -93 -69 -94 -67 -1 1 -20 51 -41 111
-31 85 -44 111 -59 113 -14 2 -41 -21 -94 -82 -41 -46 -78 -84 -82 -82 -5 1
-34 44 -65 96 -77 128 -82 128 -156 0 -32 -55 -61 -100 -64 -100 -4 0 -40 39
-81 85 -99 114 -105 113 -153 -25 -20 -58 -38 -108 -40 -112 -2 -4 -44 24 -95
62 -51 39 -99 70 -107 70 -24 0 -32 -27 -46 -142 l-13 -106 -110 54 c-143 70
-142 71 -133 -88 4 -65 6 -118 4 -118 -2 0 -55 14 -117 30 -151 40 -151 41
-110 -109 16 -62 29 -115 27 -116 -2 -2 -55 1 -118 5 -160 12 -160 12 -92
-126 29 -59 51 -108 49 -110 -3 -3 -216 -34 -233 -34 -1 0 -5 -7 -8 -17 -4
-11 16 -46 64 -108 38 -51 70 -95 70 -98 0 -3 -50 -22 -111 -42 -64 -22 -113
-44 -116 -53 -6 -15 7 -29 125 -134 l52 -46 -102 -59 c-76 -43 -103 -64 -103
-78 0 -15 28 -37 102 -81 l103 -62 -90 -77 c-50 -42 -90 -82 -90 -89 0 -21 17
-30 120 -66 52 -18 98 -36 102 -39 4 -4 -24 -47 -62 -96 -38 -50 -70 -96 -70
-103 0 -16 27 -25 120 -42 41 -7 80 -17 86 -22 6 -4 19 -6 28 -2 13 5 11 -4
-9 -50 -13 -30 -36 -78 -51 -106 -34 -65 -24 -80 55 -80 31 0 62 -5 67 -10 6
-6 27 -7 57 -1 57 10 57 12 22 -113 -32 -118 -22 -130 89 -99 12 3 16 1 12 -6
-10 -15 21 -14 80 4 27 8 50 15 51 15 2 0 0 -49 -4 -108 -7 -124 -1 -133 61
-107 42 18 49 18 41 5 -12 -19 25 -10 84 20 l59 29 11 -72 c7 -40 14 -87 17
-105 4 -25 10 -32 27 -32 13 0 32 7 44 15 14 10 23 11 25 4 4 -13 57 9 60 25
2 6 5 -486 8 -1094 5 -1008 6 -1108 22 -1140 47 -98 110 -147 231 -179 l82
-21 3730 2 c3615 3 3731 4 3773 22 40 17 121 96 123 120 1 12 3 23 18 86 7 30
11 383 11 1088 0 693 3 1041 10 1037 6 -3 10 -2 10 3 0 5 9 12 20 15 18 4 20
14 20 75 l0 69 31 7 c17 3 51 1 76 -5 37 -10 47 -9 59 3 14 13 14 22 0 75 -9
34 -16 64 -16 67 0 3 25 6 56 6 34 0 53 4 49 10 -4 6 7 10 25 10 43 0 47 21
15 91 -15 33 -24 63 -21 66 3 4 6 4 6 1 0 -8 83 11 90 20 3 4 17 15 33 25 15
10 27 22 27 27 0 5 -18 33 -40 62 l-39 52 42 16 c23 9 41 22 39 29 -1 6 11 17
28 22 45 16 40 48 -17 99 -29 24 -43 43 -36 46 22 10 63 45 60 53 -1 5 10 20
25 34 15 14 25 32 23 39 -3 7 -31 28 -61 47 -54 32 -55 33 -34 48 11 8 20 23
18 33 -2 10 10 32 25 48 42 43 33 60 -46 89 -58 22 -65 27 -51 38 10 7 15 19
11 28 -3 9 7 33 25 58 41 57 31 71 -60 84 -39 6 -75 14 -78 18 -4 4 -2 7 4 7
6 0 10 8 10 18 -1 9 9 41 22 69 32 75 22 84 -80 76 l-78 -6 17 79 c10 43 16
85 14 92 -6 16 -37 15 -97 -3 -82 -25 -81 -26 -78 63 5 108 -4 114 -98 67 -40
-20 -74 -35 -75 -33 -2 2 -10 39 -17 83 -16 99 -26 103 -110 41 -34 -25 -65
-43 -69 -39 -3 5 -17 39 -29 76 -12 38 -29 71 -38 74 -10 5 -34 -14 -75 -57
-33 -35 -62 -58 -66 -52 -3 5 -22 38 -41 71 -45 79 -62 78 -112 -9 -21 -36
-42 -65 -46 -65 -5 0 -30 25 -57 55 -68 76 -82 74 -113 -20 -14 -41 -26 -77
-28 -79 -2 -2 -31 17 -65 43 -35 25 -72 46 -83 46 -12 0 -41 20 -66 44 -39 37
-89 93 -66 74 12 -10 201 106 201 124 0 9 13 26 28 38 15 12 27 28 27 35 0 8
-33 33 -72 56 -40 23 -99 57 -131 77 l-59 34 24 17 c62 41 148 126 146 142 -2
10 10 31 26 48 16 17 26 36 23 44 -3 8 -50 30 -104 47 -130 44 -189 70 -177
78 5 4 32 36 60 72 52 67 75 108 51 93 -6 -4 -4 5 6 20 9 15 24 38 32 51 16
24 11 56 -9 56 -6 0 -74 9 -151 20 -77 11 -140 20 -141 20 -1 0 17 34 39 76
22 42 39 88 39 103 0 14 9 43 19 63 38 76 22 87 -111 77 -52 -4 -120 -8 -151
-8 l-56 -1 19 68 c10 37 27 108 38 157 18 82 19 91 4 102 -10 8 -25 8 -47 2
-108 -31 -268 -71 -272 -68 -2 3 0 74 4 159 7 127 6 158 -5 170 -12 12 -33 5
-161 -59 l-148 -72 -13 88 c-35 233 -36 238 -57 241 -13 2 -65 -31 -145 -92
-69 -53 -126 -92 -128 -88 -2 4 -27 72 -55 152 -42 117 -56 146 -72 148 -15 2
-48 -29 -127 -118 l-107 -120 -69 117 c-38 65 -74 128 -81 141 -18 33 -47 27
-75 -15z"/>
</g>
</svg>
