<svg width="25" height="25" viewBox="0 0 25 25" fill="none" xmlns="http://www.w3.org/2000/svg">
<g clip-path="url(#clip0_13_14)">
<path d="M4 0H21C22.0609 0 23.0783 0.421427 23.8284 1.17157C24.5786 1.92172 25 2.93913 25 4V21C25 22.0609 24.5786 23.0783 23.8284 23.8284C23.0783 24.5786 22.0609 25 21 25H4C2.93913 25 1.92172 24.5786 1.17157 23.8284C0.421427 23.0783 0 22.0609 0 21V4C0 2.93913 0.421427 1.92172 1.17157 1.17157C1.92172 0.421427 2.93913 0 4 0Z" fill="#D54E24" fill-opacity="0.41"/>
<path d="M8.04101 8.09499H11.975V7.675C11.9774 6.70106 12.3653 5.76768 13.054 5.079C13.7427 4.39032 14.6761 4.00238 15.65 4H20.375C20.5143 4 20.6478 4.05531 20.7462 4.15376C20.8447 4.25222 20.9 4.38576 20.9 4.52499V20.225H22.483C22.6223 20.225 22.7558 20.2803 22.8542 20.3788C22.9527 20.4772 23.008 20.6108 23.008 20.75C23.008 20.8892 22.9527 21.0228 22.8542 21.1212C22.7558 21.2197 22.6223 21.275 22.483 21.275H2.51801C2.37877 21.275 2.24524 21.2197 2.14678 21.1212C2.04832 21.0228 1.99301 20.8892 1.99301 20.75C1.99301 20.6108 2.04832 20.4772 2.14678 20.3788C2.24524 20.2803 2.37877 20.225 2.51801 20.225H4.10101V12.034C4.10392 10.99 4.51999 9.98966 5.25828 9.25156C5.99657 8.51345 6.99704 8.09763 8.04101 8.09499ZM16.726 20.221V18.099H16.148V20.221H16.726ZM15.098 20.221V17.573C15.098 17.4338 15.1533 17.3002 15.2518 17.2018C15.3502 17.1033 15.4838 17.048 15.623 17.048H17.251C17.3903 17.048 17.5238 17.1033 17.6222 17.2018C17.7207 17.3002 17.776 17.4338 17.776 17.573V20.221H19.849V5.05H15.649C14.9535 5.05237 14.2872 5.32969 13.7955 5.82146C13.3037 6.31323 13.0264 6.97953 13.024 7.675V20.221H15.098ZM6.37101 14.16H7.84101C7.98025 14.16 8.11379 14.2153 8.21224 14.3138C8.3107 14.4122 8.36601 14.5458 8.36601 14.685V16.26C8.36601 16.3992 8.3107 16.5328 8.21224 16.6312C8.11379 16.7297 7.98025 16.785 7.84101 16.785H6.37101C6.23177 16.785 6.09824 16.7297 5.99978 16.6312C5.90132 16.5328 5.84601 16.3992 5.84601 16.26V14.685C5.84601 14.5458 5.90132 14.4122 5.99978 14.3138C6.09824 14.2153 6.23177 14.16 6.37101 14.16ZM7.31601 15.21H6.89601V15.74H7.31601V15.21ZM9.28501 14.16H10.755C10.8943 14.16 11.0278 14.2153 11.1262 14.3138C11.2247 14.4122 11.28 14.5458 11.28 14.685V16.26C11.28 16.3992 11.2247 16.5328 11.1262 16.6312C11.0278 16.7297 10.8943 16.785 10.755 16.785H9.28501C9.14577 16.785 9.01224 16.7297 8.91378 16.6312C8.81532 16.5328 8.76001 16.3992 8.76001 16.26V14.685C8.76001 14.5458 8.81532 14.4122 8.91378 14.3138C9.01224 14.2153 9.14577 14.16 9.28501 14.16ZM10.23 15.21H9.81001V15.74H10.23V15.21ZM6.37101 10.93H7.84101C7.98025 10.93 8.11379 10.9853 8.21224 11.0838C8.3107 11.1822 8.36601 11.3158 8.36601 11.455V13.03C8.36601 13.1692 8.3107 13.3028 8.21224 13.4012C8.11379 13.4997 7.98025 13.555 7.84101 13.555H6.37101C6.23177 13.555 6.09824 13.4997 5.99978 13.4012C5.90132 13.3028 5.84601 13.1692 5.84601 13.03V11.456C5.84601 11.3168 5.90132 11.1832 5.99978 11.0848C6.09824 10.9863 6.23177 10.931 6.37101 10.931V10.93ZM7.31601 11.98H6.89601V12.505H7.31601V11.98ZM9.28501 10.93H10.755C10.8943 10.93 11.0278 10.9853 11.1262 11.0838C11.2247 11.1822 11.28 11.3158 11.28 11.455V13.03C11.28 13.1692 11.2247 13.3028 11.1262 13.4012C11.0278 13.4997 10.8943 13.555 10.755 13.555H9.28501C9.14577 13.555 9.01224 13.4997 8.91378 13.4012C8.81532 13.3028 8.76001 13.1692 8.76001 13.03V11.456C8.76001 11.3168 8.81532 11.1832 8.91378 11.0848C9.01224 10.9863 9.14577 10.931 9.28501 10.931V10.93ZM10.23 11.98H9.81001V12.505H10.23V11.98ZM14.205 8.82999C14.0658 8.82999 13.9322 8.77468 13.8338 8.67622C13.7353 8.57777 13.68 8.44423 13.68 8.30499C13.68 8.16575 13.7353 8.03222 13.8338 7.93376C13.9322 7.8353 14.0658 7.78 14.205 7.78H18.668C18.8072 7.78 18.9408 7.8353 19.0392 7.93376C19.1377 8.03222 19.193 8.16575 19.193 8.30499C19.193 8.44423 19.1377 8.57777 19.0392 8.67622C18.9408 8.77468 18.8072 8.82999 18.668 8.82999H14.21H14.205ZM14.205 14.606C14.0658 14.606 13.9322 14.5507 13.8338 14.4522C13.7353 14.3538 13.68 14.2202 13.68 14.081C13.68 13.9418 13.7353 13.8082 13.8338 13.7098C13.9322 13.6113 14.0658 13.556 14.205 13.556H18.668C18.8072 13.556 18.9408 13.6113 19.0392 13.7098C19.1377 13.8082 19.193 13.9418 19.193 14.081C19.193 14.2202 19.1377 14.3538 19.0392 14.4522C18.9408 14.5507 18.8072 14.606 18.668 14.606H14.21H14.205ZM14.205 11.718C14.0658 11.718 13.9322 11.6627 13.8338 11.5642C13.7353 11.4658 13.68 11.3322 13.68 11.193C13.68 11.0538 13.7353 10.9202 13.8338 10.8218C13.9322 10.7233 14.0658 10.668 14.205 10.668H18.668C18.8072 10.668 18.9408 10.7233 19.0392 10.8218C19.1377 10.9202 19.193 11.0538 19.193 11.193C19.193 11.3322 19.1377 11.4658 19.0392 11.5642C18.9408 11.6627 18.8072 11.718 18.668 11.718H14.21H14.205ZM11.975 9.14H8.04101C7.27552 9.14263 6.54212 9.44782 6.00074 9.98901C5.45935 10.5302 5.15391 11.2635 5.15101 12.029V20.216H11.975V9.14Z" fill="#E85C1D"/>
</g>
<defs>
<clipPath id="clip0_13_14">
<rect width="25" height="25" fill="white"/>
</clipPath>
</defs>
</svg>
