<svg width="47" height="46" viewBox="0 0 47 46" fill="none" xmlns="http://www.w3.org/2000/svg">
<g clip-path="url(#clip0_148_2)">
<path d="M37 0H10C4.47715 0 0 4.47715 0 10V36C0 41.5228 4.47715 46 10 46H37C42.5228 46 47 41.5228 47 36V10C47 4.47715 42.5228 0 37 0Z" fill="#368FE1" fill-opacity="0.15"/>
<path d="M30.775 15.688H25.597L22.697 13.37C22.5921 13.2856 22.4616 13.2394 22.327 13.239H13.909C13.3364 13.239 12.7873 13.4665 12.3824 13.8714C11.9775 14.2762 11.75 14.8254 11.75 15.398V32.16C11.7491 32.3083 11.8032 32.4517 11.9018 32.5625C12.0004 32.6733 12.1366 32.7437 12.284 32.76H12.35C12.487 32.7596 12.6197 32.7124 12.7261 32.6262C12.8325 32.54 12.9062 32.4199 12.935 32.286L15.376 20.736C15.4248 20.5208 15.5468 20.3293 15.7212 20.1942C15.8956 20.059 16.1115 19.9886 16.332 19.995H32.332C32.4911 19.995 32.6438 19.9318 32.7563 19.8193C32.8688 19.7067 32.932 19.5541 32.932 19.395V17.849C32.932 17.2771 32.7051 16.7285 32.3011 16.3238C31.897 15.919 31.3489 15.6911 30.777 15.69L30.775 15.688Z" fill="#249AD5"/>
<path d="M34.782 19.615C34.5798 19.36 34.3224 19.154 34.0291 19.0127C33.7359 18.8714 33.4145 18.7983 33.089 18.799H16.327C15.8386 18.7986 15.3645 18.9644 14.9829 19.2692C14.6012 19.574 14.3346 19.9996 14.227 20.476L11.782 32.025C11.7616 32.1116 11.7608 32.2016 11.7795 32.2885C11.7982 32.3755 11.836 32.4572 11.8902 32.5277C11.9444 32.5983 12.0136 32.6559 12.0927 32.6964C12.1719 32.7369 12.2591 32.7593 12.348 32.762H31.098C31.5868 32.7615 32.0609 32.5948 32.4425 32.2894C32.8241 31.9839 33.0905 31.5578 33.198 31.081L35.189 21.451C35.2645 21.1339 35.2668 20.8038 35.1958 20.4857C35.1248 20.1676 34.9822 19.8698 34.779 19.615H34.782Z" fill="#7ECBF7"/>
</g>
<defs>
<clipPath id="clip0_148_2">
<rect width="47" height="46" fill="white"/>
</clipPath>
</defs>
</svg>
