<svg width="35" height="35" viewBox="0 0 35 35" fill="none" xmlns="http://www.w3.org/2000/svg">
<g clip-path="url(#clip0_31_2)">
<path d="M31 0H4C1.79086 0 0 1.79086 0 4V31C0 33.2091 1.79086 35 4 35H31C33.2091 35 35 33.2091 35 31V4C35 1.79086 33.2091 0 31 0Z" fill="#FFC151" fill-opacity="0.28"/>
<path d="M7 9.25C7 8.65326 7.23705 8.08097 7.65901 7.65901C8.08097 7.23705 8.65326 7 9.25 7H13.75C14.3467 7 14.919 7.23705 15.341 7.65901C15.7629 8.08097 16 8.65326 16 9.25V13.75C16 14.3467 15.7629 14.919 15.341 15.341C14.919 15.7629 14.3467 16 13.75 16H9.25C8.65326 16 8.08097 15.7629 7.65901 15.341C7.23705 14.919 7 14.3467 7 13.75V9.25ZM9.25 8.5C9.05109 8.5 8.86032 8.57902 8.71967 8.71967C8.57902 8.86032 8.5 9.05109 8.5 9.25V13.75C8.5 13.9489 8.57902 14.1397 8.71967 14.2803C8.86032 14.421 9.05109 14.5 9.25 14.5H13.75C13.9489 14.5 14.1397 14.421 14.2803 14.2803C14.421 14.1397 14.5 13.9489 14.5 13.75V9.25C14.5 9.05109 14.421 8.86032 14.2803 8.71967C14.1397 8.57902 13.9489 8.5 13.75 8.5H9.25ZM19 9.25C19 8.65326 19.2371 8.08097 19.659 7.65901C20.081 7.23705 20.6533 7 21.25 7H25.75C26.3467 7 26.919 7.23705 27.341 7.65901C27.7629 8.08097 28 8.65326 28 9.25V13.75C28 14.3467 27.7629 14.919 27.341 15.341C26.919 15.7629 26.3467 16 25.75 16H21.25C20.6533 16 20.081 15.7629 19.659 15.341C19.2371 14.919 19 14.3467 19 13.75V9.25ZM21.25 8.5C21.0511 8.5 20.8603 8.57902 20.7197 8.71967C20.579 8.86032 20.5 9.05109 20.5 9.25V13.75C20.5 13.9489 20.579 14.1397 20.7197 14.2803C20.8603 14.421 21.0511 14.5 21.25 14.5H25.75C25.9489 14.5 26.1397 14.421 26.2803 14.2803C26.421 14.1397 26.5 13.9489 26.5 13.75V9.25C26.5 9.05109 26.421 8.86032 26.2803 8.71967C26.1397 8.57902 25.9489 8.5 25.75 8.5H21.25ZM7 21.25C7 20.6533 7.23705 20.081 7.65901 19.659C8.08097 19.2371 8.65326 19 9.25 19H13.75C14.3467 19 14.919 19.2371 15.341 19.659C15.7629 20.081 16 20.6533 16 21.25V25.75C16 26.3467 15.7629 26.919 15.341 27.341C14.919 27.7629 14.3467 28 13.75 28H9.25C8.65326 28 8.08097 27.7629 7.65901 27.341C7.23705 26.919 7 26.3467 7 25.75V21.25ZM9.25 20.5C9.05109 20.5 8.86032 20.579 8.71967 20.7197C8.57902 20.8603 8.5 21.0511 8.5 21.25V25.75C8.5 25.9489 8.57902 26.1397 8.71967 26.2803C8.86032 26.421 9.05109 26.5 9.25 26.5H13.75C13.9489 26.5 14.1397 26.421 14.2803 26.2803C14.421 26.1397 14.5 25.9489 14.5 25.75V21.25C14.5 21.0511 14.421 20.8603 14.2803 20.7197C14.1397 20.579 13.9489 20.5 13.75 20.5H9.25ZM19 21.25C19 20.6533 19.2371 20.081 19.659 19.659C20.081 19.2371 20.6533 19 21.25 19H25.75C26.3467 19 26.919 19.2371 27.341 19.659C27.7629 20.081 28 20.6533 28 21.25V25.75C28 26.3467 27.7629 26.919 27.341 27.341C26.919 27.7629 26.3467 28 25.75 28H21.25C20.6533 28 20.081 27.7629 19.659 27.341C19.2371 26.919 19 26.3467 19 25.75V21.25ZM21.25 20.5C21.0511 20.5 20.8603 20.579 20.7197 20.7197C20.579 20.8603 20.5 21.0511 20.5 21.25V25.75C20.5 25.9489 20.579 26.1397 20.7197 26.2803C20.8603 26.421 21.0511 26.5 21.25 26.5H25.75C25.9489 26.5 26.1397 26.421 26.2803 26.2803C26.421 26.1397 26.5 25.9489 26.5 25.75V21.25C26.5 21.0511 26.421 20.8603 26.2803 20.7197C26.1397 20.579 25.9489 20.5 25.75 20.5H21.25Z" fill="#F6A513"/>
</g>
<defs>
<clipPath id="clip0_31_2">
<rect width="35" height="35" fill="white"/>
</clipPath>
</defs>
</svg>
