<svg width="25" height="25" viewBox="0 0 25 25" fill="none" xmlns="http://www.w3.org/2000/svg">
<g clip-path="url(#clip0_13_6)">
<path d="M4 0H21C22.0609 0 23.0783 0.421427 23.8284 1.17157C24.5786 1.92172 25 2.93913 25 4V21C25 22.0609 24.5786 23.0783 23.8284 23.8284C23.0783 24.5786 22.0609 25 21 25H4C2.93913 25 1.92172 24.5786 1.17157 23.8284C0.421427 23.0783 0 22.0609 0 21V4C0 2.93913 0.421427 1.92172 1.17157 1.17157C1.92172 0.421427 2.93913 0 4 0Z" fill="#98A716" fill-opacity="0.47"/>
<path d="M3.79167 5.83333C3 6.63333 3 6.73333 3 12.5C3 18.2667 3 18.3667 3.79167 19.1667L4.55167 20H12.5H20.4483L21.2083 19.1667C22 18.3667 22 18.2667 22 12.5C22 6.73333 22 6.63333 21.2083 5.83333L20.4483 5H12.5H4.55167L3.79167 5.83333ZM20.7333 6.63333C20.8917 7 21.05 9.36667 21.05 11.9667V16.6667L18.8333 15.1667C16.3 13.4667 15.445 13.3333 14.4 14.5C13.9883 14.9667 13.545 15.3333 13.4183 15.3333C13.26 15.3333 12.4683 14.9 11.645 14.3333C10.8217 13.7667 9.84 13.3333 9.42833 13.3333C9.01667 13.3333 7.62333 14.1 6.325 15L3.95 16.7V11.7333C3.95 8.33333 4.07667 6.66667 4.33 6.4C4.615 6.1 6.86333 6 12.5633 6C19.9733 6 20.4167 6.03333 20.7333 6.63333ZM11.1383 15.1667C11.8667 15.6333 12.5 16.1333 12.5 16.2333C12.5 16.3667 11.9617 17.0333 11.3283 17.7333L10.1567 19H7.40167C5.28 19 4.55167 18.8667 4.235 18.4667C3.88667 18.0333 3.88667 17.9 4.26667 17.6667C4.52 17.5 5.66 16.7 6.8 15.8667C7.94 15.0333 9.04833 14.3667 9.30167 14.3667C9.555 14.3333 10.3783 14.7 11.1383 15.1667ZM18.77 16.2667C20.7967 17.7 21.0183 17.9333 20.6383 18.4333C20.29 18.9333 19.72 19 15.9833 18.9333L11.7083 18.8333L13.5767 16.7333C14.59 15.6 15.6667 14.6667 15.9517 14.6667C16.2367 14.7 17.5033 15.4 18.77 16.2667Z" fill="#95A706"/>
<path d="M8.985 7.09999C8.25667 7.66666 7.75 8.83332 7.75 9.83332C7.75 11.1 9.33333 12.6667 10.6 12.6667C11.9617 12.6667 13.45 11.1 13.45 9.66666C13.45 7.49999 10.5683 5.83332 8.985 7.09999ZM11.93 8.23332C13.165 9.39999 12.215 11.6667 10.4733 11.6667C9.58667 11.6667 8.7 10.7 8.7 9.73332C8.7 7.93332 10.6633 7.03332 11.93 8.23332Z" fill="#95A706"/>
</g>
<defs>
<clipPath id="clip0_13_6">
<rect width="25" height="25" fill="white"/>
</clipPath>
</defs>
</svg>
