<svg width="25" height="25" viewBox="0 0 25 25" fill="none" xmlns="http://www.w3.org/2000/svg">
<g clip-path="url(#clip0_1_2)">
<path d="M4 0H21C22.0609 0 23.0783 0.421427 23.8284 1.17157C24.5786 1.92172 25 2.93913 25 4V21C25 22.0609 24.5786 23.0783 23.8284 23.8284C23.0783 24.5786 22.0609 25 21 25H4C2.93913 25 1.92172 24.5786 1.17157 23.8284C0.421427 23.0783 0 22.0609 0 21V4C0 2.93913 0.421427 1.92172 1.17157 1.17157C1.92172 0.421427 2.93913 0 4 0Z" fill="#CB4B4B" fill-opacity="0.4"/>
<path d="M16.371 17.199C16.2205 17.1919 16.0733 17.2442 15.961 17.3447C15.8488 17.4451 15.7805 17.5857 15.771 17.736C15.7586 17.93 15.6704 18.1112 15.5253 18.2406C15.3802 18.3699 15.1901 18.4369 14.996 18.427H6.981C6.78691 18.4369 6.59675 18.3699 6.4517 18.2406C6.30664 18.1112 6.21837 17.93 6.206 17.736V7.76401C6.21888 7.57042 6.30736 7.38966 6.45236 7.26076C6.59736 7.13185 6.78724 7.06513 6.981 7.07501H14.992C15.1861 7.06515 15.3762 7.13214 15.5213 7.26147C15.6664 7.3908 15.7546 7.57207 15.767 7.76601C15.789 7.9094 15.8616 8.04017 15.9716 8.13466C16.0817 8.22915 16.2219 8.28109 16.367 8.28109C16.5121 8.28109 16.6523 8.22915 16.7624 8.13466C16.8724 8.04017 16.945 7.9094 16.967 7.76601C16.9366 7.27 16.7112 6.80616 16.3401 6.47569C15.969 6.14522 15.4822 5.97494 14.986 6.00201H6.981C6.48513 5.97492 5.99864 6.14493 5.62757 6.47498C5.2565 6.80502 5.03093 7.26836 5 7.76401V17.736C5.03042 18.232 5.25578 18.6959 5.62691 19.0263C5.99803 19.3568 6.4848 19.5271 6.981 19.5H14.992C15.4882 19.5271 15.975 19.3568 16.3461 19.0263C16.7172 18.6959 16.9426 18.232 16.973 17.736C16.9635 17.5857 16.8952 17.4451 16.783 17.3447C16.6707 17.2442 16.5235 17.1919 16.373 17.199H16.371Z" fill="#E82D2D"/>
<path d="M17.553 9.33001C17.4315 9.23516 17.2811 9.18471 17.127 9.18701C16.9727 9.18372 16.8221 9.23428 16.701 9.33001C16.6459 9.36932 16.601 9.42123 16.57 9.48141C16.539 9.5416 16.5228 9.60831 16.5228 9.67601C16.5228 9.74371 16.539 9.81042 16.57 9.87061C16.601 9.93079 16.6459 9.9827 16.701 10.022L19.509 12.265H8.46999C8.39712 12.2495 8.32169 12.2504 8.24923 12.2678C8.17676 12.2851 8.10909 12.3185 8.05117 12.3653C7.99324 12.4122 7.94653 12.4714 7.91444 12.5387C7.88235 12.6059 7.86569 12.6795 7.86569 12.754C7.86569 12.8285 7.88235 12.9021 7.91444 12.9693C7.94653 13.0366 7.99324 13.0958 8.05117 13.1427C8.10909 13.1896 8.17676 13.2229 8.24923 13.2403C8.32169 13.2576 8.39712 13.2586 8.46999 13.243H19.521L16.782 15.483C16.7278 15.523 16.6838 15.5751 16.6535 15.6352C16.6231 15.6953 16.6073 15.7617 16.6073 15.829C16.6073 15.8963 16.6231 15.9627 16.6535 16.0228C16.6838 16.0829 16.7278 16.135 16.782 16.175C16.9044 16.2644 17.0524 16.3121 17.204 16.311C17.3584 16.315 17.5093 16.2643 17.63 16.168L21.188 13.289C21.2748 13.2352 21.3465 13.1601 21.3962 13.0709C21.4458 12.9816 21.4719 12.8812 21.4719 12.779C21.4719 12.6769 21.4458 12.5764 21.3962 12.4872C21.3465 12.3979 21.2748 12.3228 21.188 12.269L17.549 9.32801L17.553 9.33001Z" fill="#E82D2D"/>
</g>
<defs>
<clipPath id="clip0_1_2">
<rect width="25" height="25" fill="white"/>
</clipPath>
</defs>
</svg>
