<svg width="25" height="25" viewBox="0 0 25 25" fill="none" xmlns="http://www.w3.org/2000/svg">
<g clip-path="url(#clip0_33_27)">
<path d="M4 0H21C22.0609 0 23.0783 0.421427 23.8284 1.17157C24.5786 1.92172 25 2.93913 25 4V21C25 22.0609 24.5786 23.0783 23.8284 23.8284C23.0783 24.5786 22.0609 25 21 25H4C2.93913 25 1.92172 24.5786 1.17157 23.8284C0.421427 23.0783 0 22.0609 0 21V4C0 2.93913 0.421427 1.92172 1.17157 1.17157C1.92172 0.421427 2.93913 0 4 0Z" fill="#24D547" fill-opacity="0.33"/>
<path d="M5.91406 5.37782C5.14062 6.10547 5 6.91709 5 11.1711V15.425L5.67969 16.2366L6.35938 17.0483H10.0625H13.7422L15.3359 18.6155C16.2266 19.4831 17.0469 20.0988 17.1875 19.9869C17.3047 19.9029 17.4219 19.2032 17.4219 18.4196C17.4219 17.1322 17.4688 17.0483 18.0312 17.0483C18.3828 17.0483 18.9219 16.7124 19.3203 16.2366L20 15.425V11.1711C20 6.91709 19.8594 6.10547 19.0859 5.37782C18.5469 4.87406 6.45312 4.87406 5.91406 5.37782ZM18.9688 6.24541C19.2266 6.66521 19.2969 7.81266 19.2969 11.0031C19.2969 13.326 19.2031 15.397 19.0859 15.6209C18.9688 15.8448 18.4062 16.0967 17.8438 16.1807L16.8359 16.3486L16.7656 17.664L16.6953 19.0073L15.2891 17.608L13.8828 16.2087H10.1562C7.08594 16.2087 6.38281 16.1247 6.07812 15.7609C5.77344 15.397 5.70312 14.5574 5.70312 11.0591C5.70312 6.74917 5.82031 6.13346 6.64062 5.76963C6.82812 5.68567 9.61719 5.6297 12.8047 5.65769C18.2656 5.71366 18.6641 5.74165 18.9688 6.24541Z" fill="#32C832"/>
<path d="M7.34375 8.65226C7.34375 8.82018 9.21875 8.93213 12.5 8.93213C15.7812 8.93213 17.6562 8.82018 17.6562 8.65226C17.6562 8.48434 15.7812 8.3724 12.5 8.3724C9.21875 8.3724 7.34375 8.48434 7.34375 8.65226Z" fill="#32C832"/>
<path d="M7.41406 10.9472C7.55468 11.4789 17.4453 11.4789 17.6094 10.9472C17.6797 10.6953 16.5547 10.6113 12.5 10.6113C8.44531 10.6113 7.32031 10.6953 7.41406 10.9472Z" fill="#32C832"/>
<path d="M7.50781 13.0182C7.03906 13.5779 7.78906 13.6898 12.5234 13.6898C16.5547 13.6898 17.6797 13.6059 17.6094 13.326C17.5156 13.0741 16.2734 12.9622 12.5937 12.9062C9.875 12.8782 7.60156 12.9342 7.50781 13.0182Z" fill="#32C832"/>
</g>
<defs>
<clipPath id="clip0_33_27">
<rect width="25" height="25" fill="white"/>
</clipPath>
</defs>
</svg>
