<?xml version="1.0" standalone="no"?>
<!DOCTYPE svg PUBLIC "-//W3C//DTD SVG 20010904//EN"
 "http://www.w3.org/TR/2001/REC-SVG-20010904/DTD/svg10.dtd">
<svg version="1.0" xmlns="http://www.w3.org/2000/svg"
 width="1280.000000pt" height="1083.000000pt" viewBox="0 0 1280.000000 1083.000000"
 preserveAspectRatio="xMidYMid meet">
<metadata>
Created by potrace 1.15, written by Peter Selinger 2001-2017
</metadata>
<g transform="translate(0.000000,1083.000000) scale(0.100000,-0.100000)"
fill="#9c27b0" stroke="none">
<path d="M6534 10815 c-10 -8 -40 -15 -66 -15 -26 0 -50 -4 -53 -10 -3 -5 -16
-10 -29 -10 -13 0 -31 -9 -41 -20 -12 -13 -33 -20 -73 -22 -68 -4 -91 -28 -54
-58 12 -10 22 -20 22 -22 0 -3 -22 -2 -49 2 -41 5 -52 3 -75 -16 -27 -24 -34
-48 -16 -59 19 -11 10 -22 -14 -18 -22 5 -23 2 -22 -39 1 -23 5 -48 9 -55 12
-19 -13 -26 -32 -9 -10 9 -21 16 -26 16 -5 0 -16 7 -26 16 -23 21 -39 10 -39
-26 0 -17 -7 -33 -17 -40 -17 -9 -16 -11 6 -30 13 -11 31 -20 40 -21 9 0 3 -5
-13 -9 -18 -6 -35 -5 -46 3 -24 14 -70 -5 -77 -33 -3 -12 -14 -20 -27 -20 -12
0 -37 -16 -56 -35 l-34 -35 22 -22 c21 -21 22 -22 42 -3 l22 20 -13 -29 c-12
-26 -11 -30 14 -50 25 -20 26 -23 11 -38 -10 -10 -14 -24 -10 -33 5 -14 13
-16 39 -10 17 4 49 11 70 15 21 4 47 16 58 26 18 16 19 16 13 1 -7 -19 -54
-47 -77 -47 -8 0 -25 -9 -38 -20 l-24 -20 30 -25 c36 -30 74 -42 84 -26 5 8
12 6 24 -7 24 -26 107 -16 122 15 11 21 12 21 28 5 12 -12 21 -14 31 -7 77 58
103 80 114 101 12 22 52 35 52 16 0 -5 -13 -26 -30 -48 -16 -21 -30 -45 -30
-52 0 -7 -25 -24 -55 -39 -46 -23 -55 -31 -55 -54 0 -20 9 -32 35 -48 19 -11
35 -28 35 -38 0 -9 9 -27 21 -39 13 -14 17 -24 10 -28 -6 -4 -19 7 -29 23 -10
17 -40 49 -66 72 -41 36 -56 43 -100 47 -33 2 -57 -1 -69 -10 -17 -13 -17 -16
0 -83 17 -63 21 -70 50 -78 24 -7 38 -22 62 -67 17 -32 31 -69 31 -84 0 -30
30 -41 91 -33 45 6 48 1 14 -31 -24 -23 -25 -23 -54 -6 -26 16 -36 16 -86 5
-59 -13 -91 -43 -79 -75 3 -9 1 -23 -6 -31 -19 -23 -23 -110 -6 -124 11 -10
19 -7 35 10 18 20 21 20 27 6 8 -22 33 -22 50 1 12 15 13 14 8 -13 -11 -59 50
-147 91 -131 8 3 20 17 25 31 11 30 20 32 20 5 0 -34 -35 -60 -82 -60 -40 0
-44 3 -59 39 -22 52 -54 72 -99 62 -38 -8 -38 -6 -24 -98 5 -33 10 -43 25 -43
38 0 18 -45 -24 -55 -42 -11 -81 -92 -70 -147 9 -43 14 -48 76 -68 31 -9 42
-9 55 2 38 30 60 38 71 25 12 -16 109 -42 119 -33 3 4 1 15 -5 26 -15 23 -2
35 50 44 27 5 37 4 32 -3 -10 -17 23 -25 40 -11 8 7 15 21 15 31 0 16 8 19 41
19 l41 0 -6 -34 c-5 -24 -2 -37 10 -47 14 -12 25 -4 90 65 40 43 76 91 79 107
13 58 -53 123 -70 69 -5 -16 -10 -18 -26 -10 -14 8 -18 17 -13 35 9 37 -3 47
-34 31 -15 -8 -40 -12 -55 -9 -22 4 -45 1 -66 -10 -1 -1 -4 17 -6 41 l-3 43
19 -25 c11 -14 29 -28 40 -31 24 -8 116 34 144 65 18 19 17 22 -9 69 -28 52
-25 63 18 65 12 1 36 10 54 21 39 24 40 56 2 66 l-25 6 28 11 c33 14 36 45 5
66 -12 9 -17 16 -10 16 18 0 31 41 20 65 -12 25 -82 59 -109 52 -15 -4 -19 -2
-15 10 3 8 6 17 6 19 0 2 22 4 49 4 57 0 66 8 45 38 -18 26 -48 28 -99 6 -20
-8 -40 -13 -42 -10 -8 8 39 45 56 46 14 0 65 35 96 66 11 12 13 20 6 27 -6 6
-11 17 -11 25 0 11 3 12 14 3 30 -25 84 29 71 69 -4 12 -2 20 4 20 6 0 11 9
11 20 0 22 -19 26 -53 9 -17 -8 -16 -5 6 13 15 13 27 34 27 47 0 12 6 29 14
36 7 8 17 40 21 71 4 31 13 77 21 103 7 25 14 60 14 76 1 17 7 41 15 55 19 33
19 65 -1 81 -22 18 -44 3 -70 -47 -33 -66 -65 -114 -75 -114 -17 0 -9 18 26
60 27 33 33 46 24 56 -9 11 -15 11 -37 -2 l-27 -16 25 19 c53 38 120 119 131
156 12 45 3 138 -16 164 -7 10 -27 18 -43 19 -17 1 -44 11 -61 23 -46 33 -72
25 -98 -31 -13 -27 -28 -48 -34 -48 -7 0 -8 7 -4 18 14 30 17 69 7 75 -5 4
-18 0 -28 -8z m-547 -787 c-3 -8 -6 -5 -6 6 -1 11 2 17 5 13 3 -3 4 -12 1 -19z"/>
<path d="M5653 10163 c-19 -7 -16 -53 2 -53 18 0 19 -12 4 -27 -7 -7 -25 -9
-40 -6 -27 5 -29 4 -29 -29 0 -22 7 -42 20 -53 28 -25 25 -32 -15 -49 -27 -12
-35 -21 -35 -40 0 -15 -4 -26 -10 -26 -5 0 -10 -9 -10 -20 0 -11 7 -20 15 -20
21 0 19 -17 -3 -22 -16 -5 -18 -12 -12 -56 6 -51 25 -86 41 -76 5 3 9 1 9 -5
0 -5 -4 -13 -10 -16 -17 -10 -11 -38 13 -69 24 -29 54 -29 43 0 -3 8 -1 14 4
14 6 0 10 -4 10 -10 0 -16 26 -11 54 11 14 11 26 19 27 17 0 -2 2 -19 4 -39 3
-33 2 -36 -19 -32 -15 3 -33 -4 -52 -20 l-29 -25 24 -44 c34 -61 41 -68 67
-68 13 0 24 -4 24 -10 0 -5 -4 -10 -10 -10 -21 0 -9 -40 19 -59 57 -41 111
-48 111 -15 0 8 7 14 15 14 7 0 19 8 24 18 9 15 10 14 11 -6 0 -17 5 -23 18
-20 12 2 18 14 20 41 2 24 8 37 18 37 9 0 14 10 14 29 0 17 5 33 10 36 6 4 17
23 26 43 8 20 33 56 56 79 39 40 40 43 28 73 -7 17 -22 37 -34 45 -23 17 -66
20 -66 5 0 -5 -4 -10 -8 -10 -5 0 -7 25 -4 57 4 47 2 59 -14 70 -11 8 -19 28
-21 50 -3 53 -9 63 -39 63 -25 0 -26 -2 -20 -40 3 -22 2 -40 -3 -40 -5 0 -12
18 -16 40 -6 34 -12 43 -41 55 -19 8 -34 20 -34 28 0 11 -73 162 -85 175 -6 7
-61 18 -72 15z m-33 -373 c0 -15 -5 -12 -26 11 -19 22 -19 22 4 10 12 -6 22
-16 22 -21z"/>
<path d="M5370 9805 c-13 -33 -13 -45 0 -45 6 0 15 -11 20 -25 10 -25 35 -34
42 -14 2 6 1 32 -2 58 -4 38 -9 47 -27 49 -17 3 -26 -3 -33 -23z"/>
<path d="M5120 9643 c-44 -16 -67 -72 -37 -90 8 -4 16 -16 20 -25 4 -12 12
-15 23 -11 13 5 16 2 12 -9 -4 -9 -2 -20 4 -26 6 -6 12 -22 14 -34 2 -21 -1
-23 -32 -20 -40 5 -53 -15 -36 -53 9 -20 18 -24 49 -23 46 1 112 -23 130 -48
7 -10 13 -30 13 -45 0 -33 43 -71 74 -67 18 3 21 11 24 55 2 29 -1 61 -7 71
-6 12 -6 32 1 60 12 48 -5 84 -48 104 -13 6 -24 17 -24 24 0 7 -11 26 -25 41
l-25 28 -6 -22 c-10 -35 -20 -27 -16 11 6 55 -53 99 -108 79z"/>
<path d="M6079 9561 c-21 -17 -22 -20 -7 -26 21 -8 58 11 58 30 0 21 -23 19
-51 -4z"/>
<path d="M4735 9520 c-27 -10 -63 -19 -78 -19 -24 -1 -28 -5 -25 -23 2 -16 11
-24 28 -26 14 -2 32 -10 41 -18 12 -10 18 -11 27 -2 9 9 16 8 29 -5 10 -8 30
-20 44 -26 23 -8 30 -6 48 13 22 23 22 23 4 72 -22 58 -40 63 -118 34z"/>
<path d="M5434 9408 c1 -67 17 -108 41 -108 8 0 15 -4 15 -10 0 -5 -6 -10 -14
-10 -24 0 -27 -15 -10 -49 19 -38 28 -44 51 -32 10 5 30 12 46 16 15 3 36 14
47 25 17 17 18 24 9 47 -6 16 -11 43 -10 60 0 24 -6 36 -22 44 -12 7 -28 20
-35 30 -6 9 -25 20 -42 24 -16 4 -32 11 -35 16 -4 5 -14 9 -24 9 -15 0 -18 -9
-17 -62z"/>
<path d="M4506 9415 c-5 -15 11 -73 25 -89 12 -13 39 13 39 38 0 46 -50 86
-64 51z"/>
<path d="M4621 9366 c-31 -17 -57 -90 -43 -120 6 -12 13 -29 16 -38 4 -15 17
-18 65 -18 68 0 81 12 81 74 0 31 4 38 35 50 36 15 44 33 23 54 -16 16 -147
15 -177 -2z"/>
<path d="M4160 9280 c-41 -31 -75 -49 -93 -50 -20 0 -33 -8 -45 -30 -13 -22
-22 -28 -38 -24 -12 3 -37 -1 -56 -9 -33 -14 -35 -18 -34 -58 1 -36 5 -44 21
-47 11 -2 29 -8 41 -13 11 -6 27 -9 35 -7 9 2 13 -4 11 -19 -2 -16 4 -26 22
-34 30 -14 56 -6 63 21 3 11 14 20 24 20 10 0 34 19 53 43 19 23 44 53 56 67
l21 25 -16 -32 c-19 -40 -19 -73 -1 -99 14 -18 15 -18 36 8 12 15 36 31 53 36
23 6 33 15 35 32 2 13 11 29 20 36 9 7 13 19 9 33 -4 16 1 26 19 37 26 17 30
46 14 88 -11 30 -44 35 -58 10 -8 -15 -12 -15 -40 0 -50 26 -81 19 -152 -34z"/>
<path d="M5186 9224 c-9 -24 22 -54 56 -54 21 0 28 5 28 19 0 43 -70 71 -84
35z"/>
<path d="M4985 9219 c-13 -20 7 -131 26 -150 41 -41 60 -9 35 60 -9 25 -16 56
-16 67 0 12 -7 25 -16 28 -21 8 -22 8 -29 -5z"/>
<path d="M5600 9193 c-41 -5 -70 -28 -70 -55 0 -23 38 -39 89 -37 20 0 45 -1
56 -3 15 -2 22 6 32 36 8 22 10 43 6 47 -11 11 -72 17 -113 12z"/>
<path d="M5837 9153 c-16 -16 -6 -70 17 -92 33 -31 60 -24 64 16 3 25 -3 39
-24 58 -27 25 -45 31 -57 18z"/>
<path d="M4425 9110 c-10 -16 15 -52 32 -46 8 3 23 6 34 6 30 0 22 27 -12 39
-39 14 -46 14 -54 1z"/>
<path d="M4315 9011 c-3 -10 -14 -21 -24 -24 -11 -2 -27 -17 -37 -32 -15 -23
-16 -30 -4 -48 12 -20 12 -21 -3 -9 -13 11 -21 10 -47 -9 -35 -27 -36 -50 0
-61 19 -6 15 -7 -16 -4 -92 8 -100 -54 -12 -98 12 -6 25 -22 28 -36 6 -26 32
-37 88 -39 26 -1 35 4 39 19 8 29 19 25 18 -6 0 -26 0 -26 90 -29 50 -2 92 -4
94 -4 2 -1 -2 -8 -9 -16 -9 -11 -33 -15 -84 -15 -85 0 -150 -20 -154 -47 -4
-25 28 -64 71 -87 l34 -19 114 37 c98 33 142 49 170 64 4 1 9 -7 12 -18 4 -18
12 -21 39 -19 18 2 45 -3 60 -10 23 -12 31 -11 65 5 30 15 42 30 59 72 12 29
26 58 33 65 17 17 13 85 -6 118 -20 34 -65 40 -94 13 -17 -15 -19 -15 -30 10
-7 14 -18 26 -26 26 -18 0 -16 10 4 32 14 16 15 24 6 49 -7 17 -9 52 -6 80 9
74 -14 76 -83 8 -29 -30 -54 -61 -54 -68 0 -8 12 -28 28 -44 15 -17 22 -31 16
-34 -6 -2 -19 -9 -28 -16 -15 -11 -16 -15 -2 -49 9 -20 20 -39 26 -43 15 -10
12 -25 -6 -25 -9 0 -40 7 -70 16 -51 15 -54 17 -54 48 0 19 -7 39 -15 46 -11
9 -12 16 -5 25 7 8 5 19 -7 36 -10 13 -23 33 -29 44 -6 11 -22 22 -35 25 -18
5 -23 12 -21 29 6 38 -25 61 -79 61 -38 0 -49 -4 -54 -19z"/>
<path d="M4130 8969 c-24 -16 -49 -29 -56 -29 -6 0 -17 -6 -23 -14 -15 -18 3
-66 24 -66 23 0 125 99 125 121 0 26 -17 23 -70 -12z"/>
<path d="M5510 8975 c-23 -28 -21 -73 6 -102 13 -14 24 -32 24 -39 0 -7 6 -17
14 -21 8 -4 15 -17 18 -28 3 -18 10 -20 58 -17 30 2 59 8 65 13 17 17 35 9 35
-15 0 -14 11 -38 25 -54 27 -32 35 -103 20 -176 -7 -32 -5 -41 11 -53 13 -9
18 -23 16 -46 -3 -27 3 -37 30 -57 32 -24 51 -29 133 -33 34 -2 41 2 53 26 17
36 30 34 34 -5 l3 -33 105 4 c57 2 122 10 143 17 22 8 52 14 66 14 19 0 34 10
50 31 18 24 25 28 36 19 8 -7 30 -16 49 -20 28 -6 38 -4 52 11 9 11 25 19 34
19 25 0 40 21 40 57 0 26 4 33 19 33 21 0 37 32 26 50 -4 6 -15 10 -25 8 -24
-4 -25 -1 -10 49 16 51 1 78 -37 68 -18 -4 -23 -1 -23 15 0 16 -7 20 -35 20
-22 0 -38 6 -41 15 -4 9 -19 15 -35 15 -16 0 -46 -7 -66 -15 -19 -8 -43 -15
-53 -15 -9 0 -25 -9 -36 -21 -10 -11 -37 -29 -60 -39 -54 -25 -71 -45 -54 -65
18 -22 -3 -18 -34 6 -22 18 -36 20 -72 15 -32 -4 -43 -2 -41 7 4 24 -37 12
-44 -13 -6 -22 -7 -20 -8 12 -2 56 -46 87 -106 76 -14 -3 -25 -1 -25 3 0 5 5
9 10 9 6 0 15 12 20 26 7 16 16 24 24 21 8 -3 19 0 25 7 12 14 -5 33 -46 55
-13 6 -23 18 -23 26 0 36 -85 60 -110 30 -20 -24 -35 -18 -59 25 -12 22 -29
40 -37 40 -8 0 -25 7 -38 15 -12 8 -42 18 -67 21 -36 5 -48 3 -59 -11z"/>
<path d="M5890 8941 c-8 -15 -8 -32 0 -61 12 -44 20 -52 39 -41 9 6 11 21 6
54 -9 57 -29 78 -45 48z"/>
<path d="M5237 8920 c-51 -41 -22 -74 32 -37 32 23 37 50 10 55 -8 1 -27 -7
-42 -18z"/>
<path d="M5021 8911 c-11 -7 -11 -15 0 -45 7 -20 17 -36 21 -36 4 0 8 -4 8
-10 0 -5 -7 -10 -15 -10 -19 0 -20 -34 -1 -49 7 -6 20 -9 27 -7 8 2 26 7 42
10 18 4 27 13 27 26 0 16 -7 20 -37 21 -33 0 -35 1 -15 9 36 15 38 38 6 71
-29 31 -40 34 -63 20z"/>
<path d="M5263 8866 c-24 -21 -26 -26 -13 -41 18 -22 52 -117 39 -109 -6 3
-22 32 -36 64 -25 58 -53 80 -72 56 -15 -17 -6 -96 14 -136 l18 -35 -21 19
c-21 18 -21 17 -56 -16 -31 -31 -48 -68 -30 -68 3 0 46 7 95 16 49 9 93 14 96
10 4 -3 -10 -23 -30 -44 -33 -33 -36 -42 -32 -76 8 -57 17 -64 84 -61 78 3
121 32 121 80 0 19 5 37 11 41 7 4 9 25 5 58 -4 29 -2 73 3 98 9 40 8 53 -9
90 -10 24 -26 52 -35 63 -16 20 -17 20 -40 -10 -26 -31 -26 -31 -44 3 -15 28
-33 28 -68 -2z"/>
<path d="M3586 8752 c-15 -24 -36 -102 -36 -133 0 -31 -9 -44 -57 -91 -96 -91
-263 -267 -263 -276 0 -4 20 -47 45 -95 49 -96 52 -109 31 -157 -22 -52 -11
-70 41 -70 24 0 57 7 74 15 26 14 30 14 35 0 4 -9 18 -15 38 -15 52 0 74 11
87 41 25 62 66 106 104 113 27 5 41 16 56 40 15 26 34 39 82 57 34 12 84 33
110 46 26 13 64 24 85 25 20 1 51 9 67 18 27 15 30 21 27 61 -4 42 -15 76 -49
146 -19 40 -55 64 -98 68 -18 2 -50 15 -72 28 -34 22 -42 34 -57 86 -9 34 -20
61 -24 62 -4 0 -34 2 -68 3 -33 2 -69 8 -80 13 -30 16 -72 24 -78 15z"/>
<path d="M5086 8714 c-25 -24 -20 -44 12 -44 29 0 67 34 57 50 -10 15 -52 12
-69 -6z"/>
<path d="M5614 8685 c-11 -29 35 -61 51 -35 9 14 -13 50 -31 50 -8 0 -17 -7
-20 -15z"/>
<path d="M5587 8606 c-14 -11 -25 -11 -46 -3 -36 13 -59 4 -67 -28 -9 -38 1
-41 46 -16 54 30 52 20 -15 -74 l-19 -28 64 -58 c57 -51 70 -59 106 -59 22 0
45 5 52 12 15 15 16 152 1 181 -18 35 -71 87 -88 87 -9 0 -24 -7 -34 -14z"/>
<path d="M4964 8593 c-3 -10 -11 -28 -17 -41 -8 -17 -8 -28 -1 -40 14 -21 64
-28 75 -11 8 14 4 82 -6 99 -10 16 -45 11 -51 -7z"/>
<path d="M1010 7593 c-431 -489 -790 -896 -798 -906 -14 -16 -14 -21 1 -52 9
-19 23 -35 32 -35 8 0 17 -11 21 -25 5 -20 13 -25 36 -25 16 0 41 -8 54 -19
l23 -18 -20 -19 c-19 -17 -20 -26 -14 -171 5 -124 3 -159 -10 -189 -8 -20 -15
-40 -15 -44 0 -4 37 -10 82 -13 73 -6 84 -5 103 13 12 11 24 17 28 14 4 -4 13
-2 21 5 10 8 29 9 63 4 45 -8 48 -11 54 -43 3 -23 0 -41 -10 -53 -12 -14 -12
-28 -4 -75 6 -31 7 -61 3 -67 -4 -5 0 -54 10 -107 9 -54 13 -101 9 -105 -5 -5
-13 -80 -20 -168 -9 -128 -15 -164 -30 -180 -13 -15 -15 -24 -8 -38 8 -13 7
-22 -1 -32 -7 -8 -10 -25 -7 -37 3 -11 2 -29 -3 -39 -7 -12 -5 -21 7 -30 8 -8
24 -32 34 -54 10 -22 29 -58 42 -80 13 -22 22 -46 19 -54 -3 -7 5 -21 18 -31
27 -20 21 -55 -11 -65 -19 -6 -69 -93 -69 -120 0 -5 -16 -21 -35 -34 -39 -26
-43 -36 -18 -45 12 -5 7 -11 -23 -26 -21 -11 -44 -20 -51 -20 -6 0 -26 -15
-42 -32 -28 -30 -30 -37 -25 -79 4 -26 2 -49 -3 -52 -10 -6 11 -194 22 -205 4
-4 13 2 21 12 12 17 14 18 14 3 0 -22 43 -23 60 -2 10 12 8 16 -11 24 -21 8
-18 10 20 10 l45 1 -30 -28 c-16 -16 -37 -31 -47 -35 -26 -10 -32 -34 -20 -91
7 -35 7 -58 0 -73 -8 -17 -7 -30 4 -49 13 -24 12 -28 -14 -48 -31 -25 -33 -39
-12 -90 15 -35 18 -37 48 -31 18 4 29 4 26 1 -3 -4 -26 -10 -50 -14 -35 -6
-44 -12 -44 -27 0 -11 5 -19 10 -19 6 1 26 5 45 9 26 4 31 3 20 -4 -8 -6 -24
-11 -35 -11 -54 -1 -102 -63 -69 -91 17 -14 18 -29 2 -29 -7 -1 -24 -17 -36
-38 -24 -36 -24 -36 -6 -94 19 -65 37 -86 57 -70 9 8 23 1 55 -30 24 -22 41
-43 40 -47 -34 -66 -35 -59 13 -101 24 -21 56 -41 72 -44 15 -3 30 -14 34 -23
4 -10 16 -31 27 -46 l21 -29 -22 -18 c-28 -22 -28 -26 -3 -85 18 -42 23 -47
46 -42 32 6 43 -17 20 -42 -22 -24 -20 -41 7 -75 20 -25 26 -27 44 -17 31 16
31 16 25 -34 -3 -28 0 -50 8 -60 10 -13 9 -15 -10 -15 -15 0 -20 -5 -18 -17 2
-11 50 -38 133 -76 1390 -632 2857 -972 4328 -1004 l297 -6 0 51 c0 43 3 52
18 52 14 0 20 -14 29 -70 14 -88 29 -107 99 -116 30 -3 57 -10 60 -15 7 -12
71 -12 78 0 12 19 75 22 108 5 42 -21 78 -54 78 -71 0 -16 32 -17 48 -1 9 9
16 8 30 -5 10 -9 23 -17 29 -17 6 0 16 -7 23 -15 17 -20 84 -20 100 1 24 28
50 37 67 22 9 -7 46 -16 82 -21 36 -4 82 -9 101 -11 46 -6 78 16 86 58 7 38
38 74 49 57 3 -6 13 -11 21 -11 15 0 28 25 38 73 4 15 11 27 16 27 6 0 6 -9 0
-26 -14 -35 -13 -44 5 -44 8 0 25 20 37 45 19 38 20 49 10 65 -10 17 -10 20 6
20 10 0 43 -9 74 -20 46 -16 71 -19 131 -14 85 8 112 -2 120 -44 3 -16 30 -55
59 -87 l52 -57 56 5 c30 3 65 9 78 13 20 6 22 3 22 -27 0 -28 8 -41 42 -71 42
-36 43 -36 32 -77 -12 -44 -6 -56 31 -63 17 -3 20 -11 20 -53 0 -49 1 -50 28
-48 15 1 48 -9 72 -21 42 -23 50 -24 207 -19 90 3 183 5 208 4 106 -2 135 0
162 14 28 14 29 13 95 -56 36 -38 71 -69 77 -69 11 0 116 -113 116 -124 0 -3
-10 -6 -21 -6 -21 0 -23 -14 -8 -70 6 -22 -43 -25 -81 -5 -17 9 -35 13 -40 10
-5 -3 -21 -3 -35 1 -18 4 -25 13 -25 29 0 16 -7 25 -25 29 -13 3 -35 20 -47
36 -24 33 -58 39 -78 15 -10 -12 -4 -23 39 -63 59 -56 62 -69 26 -159 -26 -63
-26 -63 -10 -151 22 -129 21 -137 -30 -197 -33 -38 -48 -65 -54 -101 -5 -27
-6 -53 -2 -59 13 -17 7 -67 -9 -76 -8 -4 -29 -13 -47 -19 -52 -20 -57 -82 -7
-94 31 -8 124 3 124 15 0 9 83 95 97 100 6 2 25 29 45 59 30 48 41 57 81 68
26 6 78 12 116 12 45 0 72 5 80 13 13 16 5 27 -21 27 -33 0 -19 20 29 42 108
47 168 68 195 68 21 0 28 5 28 20 0 11 -9 25 -20 32 -11 7 -20 20 -20 29 0 9
-7 22 -15 29 -12 10 -21 8 -48 -9 -34 -21 -91 -28 -101 -13 -3 5 15 39 40 76
49 72 101 112 191 146 30 11 64 26 76 34 13 9 47 14 87 14 55 0 67 3 83 23 23
29 18 51 -13 60 l-25 7 27 1 c15 1 31 7 35 15 9 16 79 66 92 66 12 0 81 78 81
91 0 6 11 24 25 41 14 16 25 36 25 43 0 34 52 74 123 96 73 23 436 153 515
184 40 17 42 19 42 61 0 37 3 44 19 44 10 0 22 7 25 16 5 13 9 14 21 4 20 -16
38 -2 32 26 -3 16 0 24 9 24 18 0 18 9 -1 30 -14 15 -13 19 3 41 21 28 27 102
9 133 -20 37 -18 202 4 305 11 52 22 98 25 103 3 5 15 -3 26 -17 25 -33 47
-32 80 4 15 15 40 34 56 40 26 11 36 10 72 -9 34 -17 47 -32 67 -78 93 -209
122 -267 132 -268 6 -1 21 -2 34 -3 16 -1 27 -12 39 -41 20 -45 52 -67 72 -51
8 6 21 9 30 5 9 -3 16 -1 16 5 0 6 14 11 30 11 41 0 108 44 116 75 4 15 13 25
23 25 21 0 53 33 76 80 10 19 32 52 50 72 17 21 38 56 45 77 7 22 19 42 26 45
16 6 18 -5 6 -19 -10 -12 -32 -86 -32 -109 0 -22 27 -20 40 4 11 21 146 90
176 90 14 0 10 -5 -14 -20 -18 -11 -42 -36 -54 -56 -20 -34 -22 -35 -29 -15
-12 31 -44 26 -59 -9 -7 -16 -19 -35 -27 -42 -9 -7 -30 -42 -48 -78 -18 -36
-49 -95 -69 -132 -36 -66 -40 -93 -12 -82 11 4 13 -3 9 -34 -5 -35 -1 -46 27
-81 28 -35 39 -41 70 -41 24 0 43 -7 55 -20 10 -11 22 -20 26 -20 16 0 59 43
59 59 0 8 11 31 24 50 13 20 36 78 50 129 24 83 25 95 12 114 -13 18 -13 23 0
43 10 16 21 21 38 18 37 -7 66 13 66 47 0 22 11 38 50 71 27 23 78 81 112 128
34 47 75 98 90 113 15 14 28 30 28 35 0 6 11 15 25 21 15 7 25 20 25 33 0 22
-7 22 -67 4 -18 -6 -23 -3 -23 9 0 27 -50 40 -81 22 -23 -14 -27 -14 -42 1
-13 13 -19 14 -31 3 -9 -7 -16 -18 -16 -25 0 -27 -60 -65 -101 -65 -25 0 -46
-7 -58 -19 -12 -12 -28 -17 -44 -14 -14 3 -33 1 -43 -5 -25 -14 -53 -4 -47 18
4 16 -2 18 -69 16 -41 -1 -78 -5 -84 -9 -6 -3 -28 12 -49 33 -22 22 -49 40
-61 40 -15 0 -24 9 -30 33 -11 36 -44 48 -71 25 -14 -11 -15 -10 -8 12 4 14 7
27 7 30 1 87 -4 121 -21 141 l-19 24 -36 -19 c-19 -10 -40 -31 -47 -47 -16
-40 -22 -42 -54 -17 -24 19 -32 20 -81 11 -30 -5 -54 -7 -54 -4 0 3 17 18 38
32 28 20 45 25 70 22 46 -7 79 18 113 90 16 34 37 75 45 90 12 22 14 40 7 75
-7 40 -13 49 -44 64 -44 22 -148 26 -207 9 -29 -8 -76 -40 -145 -100 -108 -92
-141 -127 -197 -207 -142 -203 -173 -265 -205 -419 -30 -138 -52 -199 -86
-230 -17 -17 -47 -54 -66 -83 -18 -28 -38 -52 -43 -52 -8 0 37 77 83 142 10
14 21 43 24 64 3 22 12 47 20 56 8 9 23 73 34 145 28 192 49 266 99 366 39 78
53 95 91 117 l44 26 7 106 c3 58 12 117 18 129 33 65 109 118 298 210 103 51
196 96 207 102 81 43 215 107 222 106 20 -3 34 3 74 37 23 19 60 44 81 55 66
34 118 87 118 121 0 17 6 42 14 56 24 45 40 136 28 158 -7 14 -6 24 4 39 8 10
14 31 14 46 0 19 9 34 28 48 16 11 37 40 46 65 14 37 25 48 71 70 48 24 55 32
69 74 8 26 22 67 31 92 20 53 14 123 -13 153 -9 11 -17 29 -17 41 0 18 -5 21
-33 18 -33 -3 -61 17 -62 45 0 6 -10 28 -22 47 -47 74 -206 116 -242 64 -9
-12 -16 -35 -16 -51 0 -19 -4 -27 -12 -24 -8 2 -12 17 -10 34 2 25 -4 34 -37
58 -50 34 -95 29 -144 -15 -27 -24 -30 -32 -21 -47 10 -16 7 -26 -17 -57 -15
-21 -31 -58 -35 -82 -3 -23 -12 -45 -20 -48 -8 -3 -14 -16 -14 -29 0 -14 -7
-30 -15 -37 -8 -7 -15 -18 -15 -24 0 -7 -7 -21 -16 -32 -13 -16 -15 -17 -10
-1 3 9 1 28 -6 41 -16 36 -4 67 53 141 41 54 50 72 46 95 -5 23 4 39 49 93 71
87 74 148 6 130 -11 -2 -32 3 -46 12 -22 15 -29 15 -42 4 -9 -7 -20 -24 -25
-36 -13 -34 -32 -37 -91 -18 -45 14 -54 15 -63 3 -13 -18 -53 -29 -61 -17 -10
16 -31 9 -62 -21 -38 -36 -52 -38 -52 -8 0 31 -33 97 -48 98 -7 0 -23 -5 -35
-12 -29 -15 -127 -19 -127 -4 0 19 -40 39 -54 27 -8 -7 -24 -6 -50 3 -25 9
-34 16 -26 21 6 4 10 18 7 31 -2 14 1 25 9 28 17 7 19 62 2 72 -6 4 -17 -1
-25 -12 -12 -16 -13 -15 -7 14 9 45 -9 64 -52 56 -26 -5 -35 -2 -40 10 -3 9
-16 16 -28 16 -31 0 -37 9 -23 31 9 14 8 22 -4 36 -9 10 -19 26 -22 36 -8 21
-21 22 -51 2 -22 -15 -24 -14 -29 5 -3 11 -16 24 -30 29 -14 6 -28 19 -32 30
-8 26 -19 26 -62 0 -34 -21 -57 -19 -35 3 19 19 14 56 -8 68 -11 6 -20 8 -20
5 0 -3 -19 13 -42 35 -28 27 -49 39 -61 36 -10 -2 -21 2 -23 9 -3 8 -20 17
-37 21 -31 7 -136 103 -172 158 -19 28 -55 35 -55 11 0 -8 7 -15 15 -15 8 0
15 -4 15 -10 0 -5 -4 -10 -9 -10 -13 0 -20 -171 -8 -195 11 -22 27 -126 29
-195 1 -39 -1 -45 -23 -50 -20 -5 -25 -14 -30 -50 -3 -25 -17 -63 -32 -84 -15
-21 -27 -45 -27 -52 0 -19 -7 -18 -37 6 -14 11 -35 20 -47 20 -11 0 -39 12
-61 25 -22 14 -47 25 -55 25 -28 -1 -110 -59 -110 -79 0 -25 -20 -38 -31 -20
-12 19 -11 29 3 27 6 -2 13 6 15 17 2 11 9 30 14 41 8 16 7 29 -6 54 -14 26
-21 31 -41 26 -13 -4 -25 -3 -25 1 -1 5 -3 18 -4 31 -1 13 -7 28 -14 35 -6 6
-11 19 -11 29 0 9 -9 22 -20 28 -15 8 -19 17 -14 34 4 17 -3 33 -27 61 -29 33
-33 44 -32 91 2 61 -21 101 -47 84 -12 -8 -13 -13 -2 -30 11 -18 10 -20 -8
-20 -11 0 -23 7 -26 15 -8 20 -34 19 -63 -2 -17 -12 -41 -16 -85 -14 -34 1
-64 6 -69 10 -4 4 -11 27 -15 52 -7 38 -11 44 -29 41 -12 -2 -35 4 -52 12 -16
9 -39 16 -50 16 -11 0 -26 9 -33 19 -7 10 -47 30 -88 44 l-74 25 -55 -56 c-46
-45 -63 -56 -96 -58 -22 -2 -47 -4 -55 -5 -8 0 -59 2 -113 7 l-98 7 -40 -38
c-23 -24 -39 -48 -39 -62 0 -29 30 -90 65 -132 34 -40 54 -130 41 -188 -9 -43
5 -80 25 -68 9 6 49 -75 49 -99 0 -8 13 -27 28 -43 36 -36 43 -54 26 -73 -7
-9 -15 -52 -18 -100 -5 -68 -10 -91 -31 -119 -16 -23 -21 -39 -15 -45 6 -6 10
-18 10 -27 0 -33 49 -77 102 -93 67 -19 130 -65 200 -143 70 -79 106 -149 119
-237 16 -102 -3 -227 -45 -301 -16 -28 -41 -71 -55 -96 -48 -83 -127 -164
-182 -183 -53 -20 -63 -41 -25 -56 13 -4 34 -25 46 -45 12 -20 33 -40 46 -45
14 -6 26 -21 30 -37 12 -55 46 -147 63 -172 9 -14 22 -37 29 -51 6 -14 16 -32
21 -40 6 -8 13 -28 16 -43 3 -16 20 -42 37 -57 27 -25 30 -32 24 -67 -19 -105
-18 -138 3 -157 21 -19 28 -60 12 -70 -5 -3 -14 8 -20 24 -6 19 -17 30 -28 30
-11 0 -24 5 -31 12 -19 19 -34 -5 -40 -64 -6 -68 -14 -78 -56 -68 -45 10 -51
14 -119 87 -33 35 -70 66 -83 69 -13 3 -43 29 -68 57 -24 29 -71 75 -105 102
-57 47 -60 52 -61 95 0 54 -30 155 -66 228 -26 52 -34 125 -18 175 8 25 -15
107 -32 114 -7 3 -19 1 -26 -4 -7 -4 -65 -9 -128 -10 -63 -1 -153 -6 -200 -10
l-85 -8 -73 38 c-41 22 -81 37 -92 34 -10 -2 -45 8 -77 25 -33 16 -67 27 -78
24 -36 -9 -65 5 -79 38 -14 33 -43 61 -134 126 -43 31 -65 39 -117 45 -47 5
-76 15 -111 38 -38 25 -61 32 -110 35 -56 4 -69 1 -122 -28 -42 -24 -65 -31
-78 -25 -11 5 -22 8 -26 7 -4 -1 -6 16 -6 38 1 58 -30 175 -68 258 -25 55 -32
81 -27 104 6 31 6 31 -30 25 -23 -3 -47 -1 -63 8 -22 11 -31 11 -60 -1 -42
-18 -44 -18 -44 4 0 10 -8 29 -17 42 -15 21 -17 45 -16 145 2 75 8 136 17 162
8 23 12 51 9 63 -3 11 1 28 10 38 16 18 77 192 77 220 0 9 17 34 38 55 34 36
36 39 19 51 -15 12 -15 15 -3 19 8 3 27 25 41 47 15 23 40 49 56 58 19 11 28
23 26 33 -3 12 4 19 24 23 43 8 32 56 -13 56 -10 0 -18 5 -18 10 0 6 28 10 63
10 59 0 64 2 100 40 57 61 51 94 -29 145 -38 25 -66 35 -94 35 -26 0 -55 10
-90 32 -30 19 -65 32 -86 32 -30 1 -32 3 -17 14 20 14 37 10 116 -30 33 -16
69 -28 80 -27 12 1 44 -8 70 -19 27 -12 55 -22 63 -22 25 0 84 51 84 72 0 43
18 58 69 58 33 0 56 6 74 20 14 11 29 20 35 20 17 0 42 36 48 71 4 19 15 43
24 54 23 26 53 127 44 149 -10 25 -46 36 -119 36 -79 0 -98 8 -154 59 -25 22
-61 46 -80 52 -61 19 -61 31 -1 23 62 -8 120 -34 166 -74 38 -33 113 -46 152
-27 33 15 92 92 92 118 0 11 9 33 21 48 27 36 22 62 -16 79 -85 37 -85 51 1
50 57 0 67 -3 71 -19 3 -11 11 -19 18 -19 7 0 27 -3 44 -6 24 -5 31 -3 31 10
0 20 24 21 40 1 33 -40 63 0 31 41 -22 27 -21 48 1 26 7 -7 19 -12 28 -12 28
0 90 70 117 130 16 38 32 60 45 64 19 4 20 10 14 73 -5 53 -11 72 -29 86 -42
33 -87 81 -87 92 0 7 -9 20 -20 30 -11 10 -20 26 -20 36 0 10 -9 21 -20 24
-30 10 -13 26 23 23 27 -3 34 2 49 32 21 43 23 86 4 97 -8 4 -16 24 -18 43 -3
33 -5 35 -46 41 -48 6 -76 29 -77 62 0 20 -6 23 -85 30 -47 4 -92 8 -100 8
-38 -2 -90 -8 -94 -12 -3 -3 0 -38 5 -79 10 -74 17 -88 64 -115 14 -9 16 -15
7 -31 -7 -13 -7 -25 0 -38 9 -15 7 -17 -10 -12 -31 10 -42 -20 -42 -111 0 -51
-5 -88 -16 -108 -9 -16 -19 -57 -22 -90 -6 -52 -10 -60 -29 -63 -14 -2 -23
-10 -23 -21 0 -10 -6 -24 -14 -30 -11 -9 -15 -5 -19 18 -4 16 -19 44 -35 63
-50 58 -94 179 -70 194 4 3 8 -4 8 -15 0 -34 37 -27 45 8 9 42 -41 134 -104
194 -28 26 -54 47 -58 47 -18 0 -43 -65 -43 -110 0 -27 -4 -52 -10 -55 -5 -3
-10 -26 -10 -51 0 -24 -4 -44 -9 -44 -10 0 -18 29 -31 108 -4 29 -18 72 -30
97 -20 41 -20 46 -6 66 20 29 4 63 -27 55 -11 -3 -27 0 -34 6 -10 8 -17 8 -25
0 -16 -16 -29 -15 -57 7 -24 18 -24 18 -5 50 15 26 16 35 6 51 -19 31 -15 45
7 26 41 -37 55 8 19 54 -66 83 -86 118 -91 161 -9 70 -30 121 -67 168 -27 33
-39 41 -56 37 -18 -5 -23 -1 -26 16 -4 30 -58 40 -58 12 0 -10 -12 -31 -27
-47 -27 -28 -27 -29 -9 -42 16 -12 17 -17 6 -30 -9 -11 -16 -12 -26 -4 -21 17
-41 -27 -48 -108 -7 -67 -6 -73 14 -83 l22 -12 -26 -27 c-32 -33 -35 -91 -7
-137 28 -46 107 -107 130 -101 14 3 23 -3 31 -24 7 -16 20 -29 28 -29 12 0 13
-3 4 -12 -7 -7 -12 -19 -12 -27 0 -9 -7 -29 -15 -45 -19 -36 -19 -70 0 -86 22
-18 55 -3 55 26 0 14 4 22 10 19 6 -3 10 -28 10 -55 0 -36 -5 -52 -17 -59 -10
-5 -29 -31 -43 -58 -22 -42 -30 -49 -63 -54 -52 -8 -60 -19 -53 -71 4 -23 9
-70 13 -103 l5 -60 -19 24 c-16 20 -23 22 -40 13 -18 -10 -21 -9 -22 11 -2 58
3 129 11 143 3 5 8 30 12 56 l7 46 -46 0 c-38 -1 -51 3 -68 24 -12 15 -32 31
-44 37 -19 10 -24 8 -33 -10 -9 -16 -17 -19 -41 -14 -22 5 -31 3 -35 -10 -4
-9 -2 -21 5 -28 6 -6 11 -19 11 -29 0 -27 38 -60 60 -53 21 7 70 -36 70 -61 0
-31 -49 -14 -88 31 -45 51 -72 58 -72 20 0 -21 -5 -25 -28 -25 -15 0 -38 7
-50 16 -17 12 -35 14 -65 10 -23 -4 -73 -9 -112 -12 l-70 -5 -50 48 c-27 27
-55 57 -60 67 -9 15 -14 16 -36 6 -32 -14 -69 1 -69 28 -1 9 -15 26 -33 37
-27 18 -32 26 -29 54 5 43 -24 118 -47 126 -10 3 -37 -2 -62 -10 -24 -9 -73
-20 -109 -25 -56 -8 -69 -14 -99 -46 l-33 -36 23 -23 c31 -30 89 -38 89 -12 0
8 20 13 60 14 43 1 67 7 86 22 27 21 44 20 44 -3 0 -14 -95 -61 -158 -76 -23
-6 -57 -24 -74 -39 -29 -26 -31 -31 -21 -57 6 -16 14 -60 18 -99 3 -38 9 -81
12 -95 5 -24 5 -24 -9 -6 -16 20 -38 15 -38 -10 0 -16 -16 -19 -25 -5 -3 5 0
30 7 55 10 38 9 52 -7 100 -11 31 -25 56 -32 56 -8 0 -18 11 -23 24 -5 14 -18
29 -28 35 -11 6 -25 24 -32 41 -13 32 -29 37 -62 19 -28 -15 -202 5 -264 31
-108 45 -183 86 -183 99 -1 8 6 22 15 32 13 14 26 17 60 12 56 -7 74 7 74 59
0 41 -34 118 -70 156 -22 23 -23 24 -86 26 -54 3 -132 60 -173 126 -17 28 -34
50 -39 50 -12 0 -112 100 -112 112 0 24 -83 119 -120 138 -54 27 -68 25 -91
-14 -24 -41 -41 -49 -74 -34 -30 13 -32 31 -6 64 11 13 17 33 14 43 -3 12 6
34 22 55 25 33 28 66 6 66 -12 0 -93 -66 -138 -111 -51 -51 -57 -35 -58 146 0
164 -7 191 -43 168 -11 -7 -16 -21 -14 -43 1 -17 -2 -29 -7 -26 -14 9 -61 -15
-61 -31 0 -7 -4 -13 -9 -13 -5 0 -17 -3 -26 -6 -10 -4 -15 -2 -13 7 2 9 -13
15 -48 20 -29 4 -57 10 -64 14 -6 4 -30 -1 -52 -11 -37 -16 -41 -17 -49 -2
-19 35 -204 7 -230 -35 -10 -14 -29 1 -29 24 0 14 7 19 26 19 14 0 35 5 47 11
13 7 85 13 187 14 91 1 173 5 183 10 30 13 17 49 -18 53 -16 2 -38 11 -48 20
-14 13 -24 14 -47 5 -19 -7 -58 -8 -126 -1 -82 8 -99 7 -105 -5 -6 -11 -17
-13 -41 -8 -22 5 -51 1 -87 -11 -63 -21 -103 -23 -132 -5 -17 10 -23 10 -26 0
-8 -22 -23 -14 -23 10 0 13 -12 34 -26 48 -55 50 -84 100 -84 145 0 24 -5 46
-10 49 -6 4 -10 21 -8 39 1 21 -8 51 -26 82 -37 63 -75 114 -85 114 -5 0 -361
-399 -791 -887z m4715 -613 c3 -5 -1 -10 -9 -10 -9 0 -16 5 -16 10 0 6 4 10 9
10 6 0 13 -4 16 -10z m-5095 -3166 c-7 -7 -22 -14 -34 -14 -18 1 -16 3 8 13
27 12 28 14 12 29 -15 15 -15 17 2 20 21 4 29 -27 12 -48z m9021 -2195 c-38
-61 -51 -94 -52 -124 -1 -22 -5 -53 -10 -70 -6 -21 -7 -9 -4 39 5 74 28 133
79 202 49 66 42 43 -13 -47z"/>
<path d="M6790 8250 c-8 -5 -41 -10 -73 -10 -65 0 -73 -8 -62 -67 4 -22 19
-48 38 -66 17 -16 38 -50 47 -75 14 -45 17 -47 50 -45 21 1 39 8 45 18 30 52
40 57 110 62 134 8 143 20 69 91 -93 88 -176 123 -224 92z"/>
<path d="M4089 8221 c-26 -10 -65 -18 -88 -18 -38 0 -105 -27 -178 -73 -24
-14 -33 -27 -33 -46 0 -28 -43 -75 -92 -100 -36 -19 -36 -49 0 -66 22 -11 26
-19 24 -45 -4 -42 13 -50 121 -59 48 -4 87 -10 87 -14 0 -4 -35 -7 -77 -6 -94
3 -156 -9 -179 -35 -16 -18 -16 -23 -3 -66 8 -25 21 -50 29 -54 107 -58 171
-81 238 -86 49 -4 76 -11 79 -20 3 -7 24 -25 47 -38 23 -13 54 -38 70 -54 55
-57 1 -69 -100 -20 -35 16 -64 34 -64 38 0 12 -125 42 -200 47 -121 9 -146
-35 -94 -167 32 -80 33 -81 133 -134 l76 -40 1 -45 c2 -58 20 -124 39 -140 18
-15 64 -25 204 -45 l103 -14 66 29 c54 25 73 29 113 24 43 -6 51 -3 88 27 23
18 41 38 41 46 0 12 10 16 27 11 5 -2 7 -7 5 -11 -4 -14 18 -47 32 -47 7 0 25
-9 39 -20 14 -11 33 -20 44 -21 15 0 14 -2 -4 -9 -46 -19 -17 -50 46 -50 28 0
57 -7 74 -19 22 -14 37 -16 75 -10 99 16 112 28 108 104 -1 31 -7 43 -28 55
-24 13 -29 13 -46 -3 -25 -23 -32 -21 -32 6 0 13 -5 28 -12 35 -8 8 -8 12 -1
12 6 0 13 -7 17 -15 6 -17 45 -21 47 -5 1 6 2 16 3 23 1 6 7 11 14 9 7 -1 15
5 18 13 9 24 24 18 24 -10 0 -33 35 -35 44 -2 l7 22 9 -23 c6 -15 17 -22 27
-20 15 3 18 14 18 63 0 54 -2 60 -21 60 -12 1 -29 8 -38 18 -10 9 -22 17 -27
17 -5 0 -9 5 -9 12 0 6 -10 27 -22 45 -16 23 -30 33 -45 31 -16 -2 -30 9 -52
42 -17 25 -31 51 -31 58 0 7 -7 27 -16 44 -15 30 -15 34 1 64 12 23 15 43 11
66 -16 77 -25 169 -26 253 l0 90 -48 70 c-27 39 -56 70 -64 70 -9 0 -25 9 -36
19 -12 10 -25 15 -30 12 -22 -13 -57 -304 -43 -353 8 -26 6 -37 -11 -58 -11
-14 -23 -23 -27 -20 -9 5 -16 97 -12 175 2 58 1 61 -45 155 -24 49 -34 61 -57
63 -37 4 -46 -22 -18 -52 19 -20 21 -27 10 -44 -7 -11 -19 -18 -26 -15 -8 3
-25 -4 -38 -17 -15 -14 -31 -20 -47 -17 l-23 4 22 8 c30 10 35 31 18 68 -37
77 -69 117 -95 117 -10 0 -30 -18 -45 -40 -23 -33 -33 -40 -61 -40 -19 0 -34
2 -34 4 0 3 18 15 40 27 45 26 55 46 45 97 -14 77 -28 84 -106 53z"/>
<path d="M5691 8216 c-6 -7 -21 -11 -34 -9 -32 6 -76 -41 -60 -66 9 -15 6 -19
-19 -29 -24 -9 -29 -15 -23 -29 8 -20 7 -192 -1 -205 -3 -4 7 -32 21 -61 16
-34 25 -71 25 -101 0 -41 3 -48 27 -57 43 -16 54 -8 79 61 20 54 22 70 12 93
-15 39 4 51 49 32 19 -8 40 -12 48 -9 21 9 75 91 75 115 0 12 13 48 29 82 15
34 33 76 39 94 14 45 -5 58 -87 58 -48 1 -77 7 -108 23 -49 26 -57 27 -72 8z"/>
<path d="M5338 8199 c-68 -35 -38 -76 33 -44 54 25 66 41 40 54 -26 14 -29 14
-73 -10z"/>
<path d="M6555 8211 c-6 -5 -28 -11 -50 -13 -34 -3 -43 -8 -59 -39 -11 -19
-34 -45 -53 -57 -24 -16 -33 -29 -33 -50 0 -16 -7 -37 -15 -48 -31 -41 -8
-194 29 -194 20 0 20 -14 0 -31 -8 -7 -13 -21 -10 -31 2 -11 -2 -22 -10 -25
-8 -3 -14 -10 -14 -17 1 -24 49 -68 81 -75 32 -6 34 -9 37 -55 2 -27 -1 -53
-7 -59 -16 -16 -26 0 -11 18 11 14 3 26 -59 88 -74 74 -98 122 -88 175 3 13
-2 48 -9 78 -17 62 -5 165 21 194 8 9 15 22 15 29 0 7 8 26 17 42 15 25 16 31
3 43 -13 12 -26 12 -88 2 -63 -11 -79 -19 -112 -51 -56 -55 -89 -122 -100
-207 -5 -40 -14 -90 -20 -111 -8 -26 -8 -65 -1 -132 6 -52 11 -114 11 -139 0
-25 6 -48 13 -53 10 -6 49 -10 140 -14 9 0 28 -11 41 -24 l23 -23 -22 -5 c-13
-2 -42 5 -65 15 -53 25 -75 12 -65 -39 7 -40 61 -123 79 -123 7 0 18 -11 24
-24 10 -24 28 -26 105 -17 4 1 7 12 7 25 0 21 6 18 53 -30 58 -60 82 -66 117
-29 20 21 25 23 42 11 15 -11 29 -11 81 0 54 11 67 11 105 -3 39 -15 44 -15
62 2 18 16 21 17 44 1 14 -9 30 -16 36 -16 20 0 23 31 5 50 -20 22 -16 25 45
33 21 3 43 0 54 -8 13 -10 25 -11 46 -3 50 17 53 31 20 77 -17 22 -35 42 -40
42 -6 1 -14 2 -19 3 -5 0 -13 4 -17 9 -14 14 62 7 82 -8 10 -8 31 -15 45 -15
20 0 30 -9 48 -45 25 -51 38 -62 54 -46 6 6 18 11 28 11 12 0 15 -6 11 -25 -4
-24 3 -30 35 -26 6 1 32 -12 57 -29 54 -37 61 -70 21 -88 -23 -11 -25 -16 -19
-49 4 -21 12 -41 17 -45 16 -10 41 7 56 39 7 15 17 35 21 43 12 23 61 12 96
-21 25 -24 37 -29 58 -23 20 5 26 2 26 -9 0 -19 55 -62 90 -71 15 -4 42 -29
65 -62 22 -31 53 -71 69 -90 24 -30 27 -38 18 -57 -6 -12 -13 -49 -16 -82 -4
-68 -21 -113 -60 -164 -44 -59 -33 -92 44 -131 40 -21 73 -57 64 -72 -3 -4
-16 -8 -29 -8 -18 0 -26 -7 -31 -25 -4 -18 -13 -25 -30 -25 -13 0 -29 -9 -36
-20 -7 -11 -23 -20 -35 -20 -12 0 -25 -5 -28 -10 -4 -7 -35 -8 -84 -4 -65 6
-80 4 -94 -10 -19 -19 -23 -51 -7 -61 17 -11 11 -25 -15 -37 -14 -6 -28 -21
-31 -32 -7 -30 31 -110 66 -140 48 -40 130 -55 130 -25 0 6 23 24 50 41 51 32
59 45 38 66 -19 19 17 26 67 12 51 -14 65 -8 65 26 0 29 16 64 30 64 5 0 10
-15 12 -32 3 -34 38 -55 38 -24 0 9 2 16 5 16 15 0 95 -47 131 -76 23 -19 46
-34 53 -34 6 0 20 -5 30 -12 15 -9 26 -9 45 0 42 19 56 6 56 -48 0 -42 4 -51
30 -70 23 -16 38 -19 64 -14 20 3 58 1 85 -6 44 -10 54 -10 82 7 31 18 31 18
47 -5 16 -25 78 -55 94 -46 5 3 15 1 21 -5 9 -7 31 -5 73 6 44 11 85 14 160
10 106 -6 124 -1 124 36 0 26 -38 77 -58 77 -8 0 -25 9 -37 20 -28 26 -107 57
-225 88 -19 5 -58 25 -86 43 -28 19 -60 39 -70 46 -18 11 -18 11 0 19 11 4 37
-1 68 -14 39 -16 54 -19 68 -10 19 12 90 -10 122 -39 14 -12 25 -13 68 -4 76
16 106 14 121 -10 9 -13 20 -18 31 -14 23 9 31 47 13 61 -9 7 -11 14 -5 20 12
12 -15 54 -36 54 -8 0 -14 4 -14 9 0 5 -12 24 -26 41 -15 17 -24 34 -20 37 8
8 34 -15 41 -38 9 -27 35 -24 35 5 0 29 -35 75 -66 87 -14 5 -28 19 -34 33 -9
26 -60 56 -93 56 -19 0 -19 1 -5 13 12 9 14 18 7 35 -9 23 -33 30 -44 12 -9
-14 -25 -12 -25 3 0 6 -11 25 -24 42 -20 24 -26 27 -39 17 -35 -29 -177 30
-177 74 0 8 -5 14 -11 14 -7 0 -17 7 -23 15 -14 18 -53 9 -59 -14 -3 -13 -5
-13 -12 4 -4 11 -22 32 -39 47 -17 14 -28 30 -24 33 4 4 14 0 23 -9 20 -20 25
-20 53 0 34 23 27 43 -23 64 -48 21 -62 45 -20 34 20 -5 25 -2 25 14 0 11 -10
26 -22 34 -23 15 -23 15 10 23 26 5 36 3 46 -10 11 -15 118 -65 140 -65 5 0
17 7 27 16 17 15 18 15 16 -11 -1 -18 5 -31 17 -39 10 -6 34 -26 52 -43 18
-18 40 -33 48 -33 7 0 16 -7 20 -15 7 -20 45 -19 52 0 4 10 10 12 18 6 6 -5
27 -11 46 -13 34 -3 35 -2 34 33 -1 20 -10 50 -21 65 -11 16 -25 43 -30 60
-10 27 -9 30 9 30 25 -1 46 57 46 120 -1 41 -3 44 -28 44 -23 0 -27 3 -23 24
4 17 10 22 23 19 24 -6 34 24 17 51 -10 15 -11 27 -4 44 14 31 -8 52 -61 59
-36 5 -46 1 -87 -32 -25 -21 -49 -35 -53 -31 -4 4 -7 29 -7 54 0 57 -15 60
-47 12 -23 -34 -58 -52 -58 -30 0 22 -52 79 -82 89 -25 9 -35 8 -48 -4 -24
-22 -31 -18 -19 12 22 59 -15 72 -52 18 -13 -19 -27 -35 -31 -35 -5 0 -8 -7
-8 -16 0 -13 -3 -14 -14 -5 -7 6 -21 9 -30 5 -9 -3 -16 -1 -16 6 0 6 -8 10
-18 8 -19 -3 -55 27 -64 53 -5 14 -15 15 -69 7 -42 -5 -65 -5 -69 2 -4 6 -25
9 -51 5 -39 -4 -41 -4 -14 5 53 18 68 35 60 69 -4 17 -15 37 -26 45 -18 12
-17 14 17 19 61 10 92 50 59 77 -12 10 -28 9 -82 -3 -38 -9 -72 -12 -76 -8
-13 13 12 55 44 73 16 9 29 22 29 27 0 15 -92 80 -113 81 -18 0 -21 -5 -32
-54 -6 -26 -7 -27 -24 -12 -24 22 -37 20 -55 -6 -9 -12 -16 -18 -16 -12 0 6
18 32 40 57 22 25 40 50 40 56 0 16 -29 28 -87 36 -50 7 -53 6 -63 -19 -12
-32 -21 -34 -17 -5 3 34 -16 32 -37 -4 l-19 -32 -8 44 c-11 57 -26 73 -45 47
-8 -11 -14 -26 -14 -34 0 -12 -3 -12 -15 -2 -13 10 -19 10 -35 -5 -26 -23 -26
-10 0 22 28 36 25 54 -14 86 -48 37 -81 36 -95 -4 -6 -18 -11 -43 -11 -56 0
-33 -27 -27 -48 12 -9 17 -20 32 -24 33 -5 2 -8 12 -8 22 0 36 -22 33 -55 -6
-18 -21 -37 -36 -41 -31 -4 4 2 16 14 27 42 40 22 100 -33 100 -28 0 -35 4
-35 20 0 28 -43 53 -78 46 -17 -4 -40 -1 -58 9 -16 8 -41 15 -56 15 -35 0 -92
-50 -93 -81 -1 -13 -5 -34 -9 -46 -6 -19 -10 -21 -27 -10 -17 10 -23 9 -36 -8
-15 -20 -15 -20 -9 2 4 12 2 24 -4 28 -18 11 -38 -14 -45 -58 -9 -60 -15 -77
-26 -77 -13 0 -11 44 2 74 9 19 9 29 0 39 -6 8 -8 27 -5 44 7 37 -32 124 -64
138 -14 6 -22 18 -22 34 0 13 -11 39 -26 58 -25 33 -51 42 -69 24z m332 -353
c-3 -7 -5 -2 -5 12 0 14 2 19 5 13 2 -7 2 -19 0 -25z m673 -143 c-7 -8 -22
-14 -34 -14 -20 1 -20 2 -1 6 11 3 24 9 30 14 15 14 19 10 5 -6z"/>
<path d="M4747 8165 c-32 -30 -31 -29 -13 -58 8 -12 30 -51 48 -86 18 -36 38
-66 44 -68 6 -2 26 24 44 59 18 35 38 70 43 79 8 13 4 25 -18 50 -45 54 -104
64 -148 24z"/>
<path d="M5234 8176 c-4 -11 -16 -15 -33 -14 -24 3 -26 0 -25 -38 0 -34 -2
-40 -17 -37 -11 3 -22 -3 -28 -16 -15 -27 11 -81 38 -81 18 0 18 0 12 -97 -2
-42 -36 -28 -56 22 -23 62 -48 74 -80 39 -30 -33 -31 -57 -5 -107 11 -20 20
-44 20 -53 0 -18 62 -84 79 -84 16 0 81 -113 88 -153 6 -42 42 -77 77 -77 31
0 46 19 46 57 0 36 2 38 30 23 14 -8 25 -5 47 14 15 12 35 25 43 28 10 3 15
18 16 44 0 21 4 68 8 104 8 74 -2 102 -28 81 -14 -12 -16 -10 -16 17 0 17 -2
37 -5 44 -4 10 3 14 22 13 23 0 29 5 31 28 3 23 0 27 -22 27 -14 0 -26 -6 -26
-12 0 -9 -15 -13 -44 -13 l-44 0 18 25 c10 14 27 34 39 44 12 11 21 27 21 36
0 10 9 24 21 31 21 14 21 15 3 52 -17 35 -21 38 -48 33 -16 -4 -43 -13 -59
-21 -46 -23 -63 -19 -73 17 -10 36 -40 49 -50 24z"/>
<path d="M2251 8116 c-9 -11 -31 -13 -89 -11 -100 5 -107 1 -90 -54 7 -24 20
-46 28 -51 25 -13 200 40 200 60 0 9 -30 70 -35 70 -1 0 -8 -6 -14 -14z"/>
<path d="M6980 7249 c-8 -5 -24 -9 -36 -9 -11 0 -29 -9 -39 -21 -19 -20 -18
-20 10 -44 36 -29 44 -30 52 -7 4 9 15 23 25 30 31 23 20 72 -12 51z"/>
<path d="M7071 7229 c-32 -43 -14 -58 28 -24 17 15 31 33 31 41 0 25 -36 15
-59 -17z"/>
<path d="M6292 7211 c-8 -5 -12 -17 -10 -27 4 -25 65 -33 74 -10 13 33 -32 58
-64 37z"/>
<path d="M7217 7202 c-20 -22 -22 -43 -5 -60 18 -18 38 -15 38 6 0 10 5 23 11
29 14 14 5 43 -14 43 -8 0 -21 -8 -30 -18z"/>
<path d="M7066 7106 c-21 -71 -20 -86 3 -86 30 0 51 39 51 92 0 41 -3 48 -19
48 -15 0 -23 -13 -35 -54z"/>
<path d="M5310 7075 c-23 -24 -34 -45 -36 -72 -2 -21 -3 -41 -3 -44 -1 -3 -19
-13 -42 -22 -37 -15 -40 -19 -37 -49 2 -27 8 -34 28 -36 14 -2 32 -10 40 -18
9 -7 36 -23 60 -34 25 -12 65 -32 90 -45 59 -31 76 -31 110 3 15 15 36 32 46
38 28 16 25 58 -3 62 -17 3 -23 10 -23 28 0 15 -18 41 -50 74 -27 28 -50 55
-50 61 0 11 -79 88 -91 89 -3 0 -20 -16 -39 -35z"/>
<path d="M7434 7076 c-10 -25 0 -48 29 -70 23 -17 29 -18 37 -6 6 9 2 23 -11
41 -10 15 -19 32 -19 38 0 16 -30 13 -36 -3z"/>
<path d="M5521 7012 c-13 -25 5 -52 35 -52 32 0 41 25 19 50 -22 25 -41 25
-54 2z"/>
<path d="M7375 6967 l-40 -23 -3 -103 c-3 -129 7 -151 71 -151 60 0 114 17
132 43 21 30 19 85 -5 129 -12 23 -18 48 -15 65 7 39 -3 49 -55 56 -36 5 -54
1 -85 -16z"/>
<path d="M7555 6960 c-43 -48 30 -94 103 -64 52 21 36 64 -24 64 -18 0 -36 5
-39 10 -9 15 -20 12 -40 -10z"/>
<path d="M5093 6893 c-14 -5 -17 -31 -7 -57 10 -25 43 -19 50 9 11 44 -6 63
-43 48z"/>
<path d="M4940 6844 c-11 -13 -10 -19 7 -36 23 -22 43 -17 43 11 0 17 -18 41
-31 41 -4 0 -12 -7 -19 -16z"/>
<path d="M4666 6831 c-15 -24 27 -62 47 -42 14 14 -2 51 -23 51 -10 0 -21 -4
-24 -9z"/>
<path d="M6384 6715 c-14 -22 -15 -30 -4 -58 29 -71 46 -70 56 6 5 31 3 52 -6
62 -17 21 -27 19 -46 -10z"/>
<path d="M6724 6209 c-3 -6 3 -24 15 -40 11 -15 21 -32 21 -37 0 -12 46 -32
76 -32 31 0 45 30 20 44 -10 6 -38 26 -61 44 -47 34 -60 38 -71 21z"/>
<path d="M6650 6163 c1 -30 39 -105 52 -101 29 10 31 34 4 76 -27 43 -56 56
-56 25z"/>
<path d="M6575 6116 c-14 -21 -15 -49 -6 -232 9 -207 9 -209 -13 -244 -47 -72
-56 -90 -56 -104 0 -26 19 -28 64 -6 25 11 60 24 79 27 l34 5 7 -53 c4 -30 12
-59 18 -66 30 -36 99 13 117 82 8 30 20 50 39 62 36 24 43 34 38 63 -2 16 5
36 19 54 21 27 22 27 28 7 4 -17 13 -21 45 -21 36 0 39 -2 35 -24 -5 -22 0
-26 38 -36 24 -6 58 -16 75 -21 48 -14 56 -12 102 37 46 50 51 79 17 98 -10 6
-25 17 -33 23 -10 10 -18 10 -35 1 -12 -7 -30 -11 -40 -9 -10 1 -25 -3 -33
-10 -8 -6 -18 -8 -22 -4 -4 4 -1 10 6 12 19 7 15 25 -18 77 -22 35 -43 53 -78
68 -26 11 -68 35 -94 54 -25 18 -64 37 -85 43 -21 6 -44 20 -51 31 -18 29 -41
25 -56 -12 l-14 -32 -22 45 c-27 54 -68 109 -80 109 -5 0 -17 -11 -25 -24z"/>
<path d="M9082 6058 c-16 -16 -15 -35 3 -42 29 -11 64 21 49 45 -8 13 -38 11
-52 -3z"/>
<path d="M9137 5822 c-10 -10 -17 -23 -17 -28 1 -11 70 -44 93 -44 23 0 21 39
-2 68 -23 27 -52 28 -74 4z"/>
<path d="M8370 5806 c0 -23 57 -58 87 -54 39 4 43 40 8 56 -37 17 -95 16 -95
-2z"/>
<path d="M7610 5766 c0 -17 69 -53 93 -48 29 6 20 39 -14 51 -44 15 -79 14
-79 -3z"/>
<path d="M7508 5699 c-10 -5 -18 -17 -18 -25 0 -8 8 -17 18 -21 9 -3 27 -15
39 -26 19 -17 27 -18 47 -9 32 14 39 49 15 73 -21 21 -73 25 -101 8z"/>
<path d="M7062 5450 c-25 -12 -54 -17 -67 -14 -24 6 -27 2 -40 -63 -3 -17 -13
-37 -21 -44 -18 -15 -18 -43 1 -59 8 -7 15 -18 15 -24 0 -7 5 -17 12 -24 9 -9
16 -8 32 7 22 21 23 21 56 21 11 0 23 8 27 18 3 9 21 38 40 63 26 37 33 56 33
93 0 41 -2 46 -22 46 -13 0 -43 -9 -66 -20z"/>
<path d="M8932 5408 c-7 -7 -12 -20 -12 -30 0 -10 -5 -27 -12 -37 -16 -26 -3
-51 26 -51 20 0 28 9 42 45 16 43 16 46 -1 65 -21 23 -27 24 -43 8z"/>
<path d="M7420 5387 c-56 -28 -64 -93 -20 -159 41 -62 53 -71 74 -55 23 17 27
149 6 191 -18 36 -28 39 -60 23z"/>
<path d="M68 4678 c-16 -17 -28 -36 -28 -42 0 -6 -6 -23 -14 -38 -9 -16 -13
-53 -12 -98 1 -39 -2 -74 -6 -76 -8 -5 -7 -27 8 -207 7 -86 31 -133 55 -110
10 10 10 18 1 35 -14 30 -25 179 -14 196 5 7 22 16 38 21 45 12 39 44 -9 52
-21 3 -43 11 -50 18 -14 14 -5 14 27 0 23 -11 29 -8 71 34 25 25 65 60 91 77
52 36 53 54 2 58 -29 2 -38 -1 -42 -16 -7 -22 -47 -42 -79 -41 -16 1 -13 4 13
13 52 17 60 24 60 58 0 21 -6 31 -20 35 -11 3 -20 13 -20 22 0 19 -19 41 -34
40 -6 0 -23 -15 -38 -31z"/>
<path d="M350 4468 c0 -19 41 -57 56 -51 17 6 18 35 2 51 -15 15 -58 16 -58 0z"/>
<path d="M407 4404 c-11 -12 -8 -172 3 -179 6 -4 17 -1 25 5 12 10 14 28 9 84
-6 67 -22 105 -37 90z"/>
<path d="M333 4365 c-7 -11 -6 -35 2 -70 17 -70 23 -79 41 -64 19 16 8 107
-16 133 -17 17 -18 17 -27 1z"/>
<path d="M11658 4288 c-7 -7 -22 -18 -32 -23 -10 -6 -29 -40 -43 -75 -21 -55
-24 -77 -20 -141 3 -41 0 -83 -5 -93 -7 -12 -7 -21 1 -29 6 -6 11 -21 11 -33
0 -12 11 -66 25 -120 14 -54 25 -126 25 -161 0 -64 18 -100 46 -89 9 4 14 -2
14 -16 0 -12 -3 -18 -7 -15 -9 10 -33 -12 -28 -26 2 -7 6 -38 9 -69 6 -53 5
-58 -14 -58 -26 0 -57 -47 -41 -63 8 -8 19 -7 44 8 17 10 37 26 44 34 16 22
27 7 14 -17 -6 -12 -11 -37 -11 -57 0 -20 -7 -49 -16 -66 -15 -29 -11 -69 6
-69 5 0 11 -9 15 -19 8 -26 39 -35 67 -20 12 7 44 36 70 65 30 32 63 58 86 65
20 6 48 20 61 30 13 11 31 19 40 19 29 0 101 40 101 55 0 8 16 30 35 50 20 19
40 46 45 61 12 31 34 27 38 -7 5 -36 15 -41 50 -24 38 20 48 33 33 48 -18 18
-13 25 29 47 44 23 46 21 26 -18 -8 -15 -17 -50 -21 -77 -5 -27 -16 -63 -26
-80 -25 -40 -24 -52 6 -57 17 -4 35 4 60 25 47 38 55 62 44 122 -8 44 -7 52
18 87 l26 39 -16 53 c-20 62 -20 66 -7 66 15 0 100 -80 100 -94 0 -28 23 -89
40 -106 32 -32 50 -15 50 46 0 30 5 54 10 54 6 0 10 -9 10 -20 0 -25 51 -80
74 -80 9 0 21 11 26 24 5 13 14 27 19 31 16 9 13 51 -4 84 -8 16 -17 48 -21
70 -12 73 -86 153 -116 123 -9 -9 -8 -16 5 -30 15 -17 16 -23 4 -51 -22 -52
-39 -13 -50 113 -3 39 -22 44 -43 11 -13 -20 -16 -41 -12 -100 5 -70 4 -73
-14 -64 -10 5 -18 20 -18 33 0 30 -24 50 -50 43 -25 -7 -25 4 0 36 11 14 20
32 20 40 0 9 5 19 10 22 11 7 14 64 4 89 -3 9 -12 16 -20 16 -15 0 -44 -50
-44 -77 0 -10 -11 -23 -25 -29 -22 -11 -24 -9 -27 15 -2 21 -8 26 -32 26 -35
0 -40 10 -27 64 7 34 6 45 -8 62 -14 18 -24 20 -57 15 -61 -11 -144 -61 -144
-89 0 -12 -12 -34 -25 -49 -27 -31 -35 -34 -35 -14 0 7 -7 19 -15 26 -12 10
-16 8 -24 -12 -13 -35 -35 -50 -65 -42 -14 3 -26 10 -26 15 0 5 -7 9 -15 9 -8
0 -15 5 -15 10 0 6 4 10 8 10 12 0 32 59 25 76 -7 18 -30 18 -40 0 -12 -20
-51 -38 -58 -26 -3 5 -12 7 -19 4 -9 -3 -16 -32 -21 -82 l-7 -76 -14 39 c-8
22 -18 77 -23 122 -5 48 -16 94 -26 109 -15 24 -15 27 0 38 13 9 15 22 9 65
-7 54 -25 74 -47 52 -6 -6 -16 -11 -21 -11 -6 1 2 11 17 24 23 18 28 30 25 57
-3 37 -26 49 -50 27z"/>
<path d="M451 4145 c-17 -20 -31 -44 -31 -54 0 -12 -7 -17 -22 -17 -20 1 -23
-5 -26 -37 -3 -33 0 -38 14 -35 10 2 21 14 24 27 4 19 7 21 16 10 6 -8 14 -22
17 -31 11 -32 36 -19 57 28 16 37 18 56 12 92 -4 25 -12 47 -18 49 -6 2 -25
-12 -43 -32z"/>
<path d="M7867 3954 c-4 -4 -7 -17 -7 -30 0 -32 -10 -54 -24 -54 -14 0 -46
-62 -46 -90 0 -24 28 -27 36 -5 6 14 8 14 18 -1 11 -14 16 -12 51 19 l39 35
-20 63 c-21 61 -33 77 -47 63z"/>
<path d="M7930 3901 c0 -12 6 -21 16 -21 9 0 14 7 12 17 -5 25 -28 28 -28 4z"/>
<path d="M7782 3878 c-7 -7 -12 -21 -12 -32 0 -20 1 -20 22 2 15 15 19 25 12
32 -7 7 -14 6 -22 -2z"/>
<path d="M252 3558 c-30 -30 1 -103 51 -117 31 -9 31 -9 5 -10 -20 -1 -32 -9
-43 -31 -19 -38 -19 -49 3 -57 26 -10 51 -45 52 -71 0 -15 11 -29 29 -40 35
-20 49 -76 26 -102 -8 -9 -15 -23 -15 -32 0 -17 31 -48 48 -48 7 0 12 -13 12
-29 0 -17 5 -33 10 -36 8 -5 8 -11 1 -19 -8 -9 -6 -25 7 -55 15 -37 20 -41 43
-36 27 6 49 -18 29 -30 -6 -4 -10 -13 -10 -22 0 -18 71 -118 133 -188 l45 -50
29 17 c28 17 28 18 28 115 0 54 -3 107 -6 118 -4 11 -27 43 -52 71 l-46 51 -5
96 c-8 157 -8 156 -112 266 -54 57 -103 118 -114 144 -31 69 -118 125 -148 95z"/>
<path d="M7918 3512 c-29 -17 -38 -52 -14 -52 7 0 19 7 26 15 7 8 19 15 27 15
16 0 14 31 -2 36 -5 2 -22 -4 -37 -14z"/>
<path d="M10927 3224 c-4 -4 -38 -9 -75 -10 -49 -1 -80 -8 -117 -26 -27 -14
-63 -28 -78 -32 -20 -5 -27 -12 -25 -24 3 -14 13 -16 61 -14 45 3 66 -2 93
-17 50 -30 127 -27 252 9 123 35 122 35 122 66 0 29 -6 32 -90 38 -36 3 -81 8
-100 11 -19 4 -39 3 -43 -1z"/>
<path d="M333 3203 c-17 -6 -17 -38 0 -52 18 -14 37 5 37 36 0 22 -11 27 -37
16z"/>
<path d="M674 3015 c-12 -29 43 -101 62 -82 9 9 -14 62 -37 83 -18 16 -19 16
-25 -1z"/>
<path d="M7670 2987 c-30 -10 -35 -17 -35 -42 0 -29 2 -30 70 -42 39 -7 75
-11 82 -9 7 3 15 1 18 -4 4 -6 24 -10 46 -10 52 0 52 21 -3 77 -39 40 -46 43
-93 42 -27 0 -66 -5 -85 -12z"/>
<path d="M11340 2835 c-15 -24 -20 -47 -18 -77 3 -40 5 -43 33 -43 20 0 31 5
33 18 2 11 -3 17 -14 17 -13 0 -15 6 -10 32 3 17 13 39 21 48 21 23 19 40 -4
40 -11 0 -28 -15 -41 -35z"/>
<path d="M11609 2813 c0 -5 -2 -35 -4 -68 -2 -33 -6 -107 -10 -165 l-7 -105
35 -37 c22 -24 44 -38 59 -38 27 0 141 79 158 109 5 11 10 28 10 39 0 11 10
32 22 47 20 26 20 29 5 40 -9 7 -17 22 -17 34 0 24 -11 26 -43 9 -12 -6 -33
-12 -47 -13 -14 -2 -32 -6 -41 -9 -13 -6 -17 2 -22 47 -4 43 -12 60 -37 85
-29 30 -59 42 -61 25z"/>
<path d="M8086 2789 c-27 -21 -36 -59 -13 -59 24 0 71 46 64 63 -8 22 -19 21
-51 -4z"/>
<path d="M11400 2516 c-20 -13 -41 -31 -49 -40 -7 -9 -21 -16 -31 -16 -9 0
-20 -3 -24 -7 -9 -10 -78 -33 -97 -33 -9 0 -22 -7 -29 -15 -12 -14 -15 -14
-30 0 -9 8 -24 15 -33 15 -11 0 -17 8 -17 24 0 29 -24 53 -36 35 -11 -18 -23
-91 -17 -106 3 -7 14 -13 24 -13 11 0 30 -6 42 -14 16 -11 47 -14 110 -13 75
2 91 6 103 22 13 18 15 18 27 1 10 -13 21 -16 55 -10 23 3 47 13 53 20 15 19
3 48 -17 40 -13 -5 -14 -2 -9 11 4 10 7 28 7 39 -1 12 7 29 18 39 48 43 9 59
-50 21z"/>
<path d="M12138 2195 c-22 -29 -23 -45 -4 -45 23 0 70 45 62 58 -12 19 -40 13
-58 -13z"/>
<path d="M10854 1675 c-4 -9 -3 -19 0 -23 9 -8 42 12 39 24 -4 16 -33 16 -39
-1z"/>
<path d="M7630 1096 c0 -7 7 -19 15 -26 19 -16 41 1 32 24 -8 20 -47 21 -47 2z"/>
<path d="M8026 1091 c-4 -6 -22 -11 -40 -11 -17 0 -37 -5 -43 -11 -7 -7 -36
-12 -65 -13 -46 -1 -53 -4 -53 -21 0 -18 9 -21 75 -26 41 -4 100 -12 130 -18
49 -10 56 -9 67 6 7 9 13 34 13 55 0 29 -4 38 -17 38 -10 0 -28 3 -39 6 -12 3
-25 1 -28 -5z"/>
<path d="M7767 1054 c-15 -15 -7 -45 11 -42 9 2 17 12 17 22 0 20 -16 31 -28
20z"/>
</g>
</svg>
