<svg width="25" height="25" viewBox="0 0 25 25" fill="none" xmlns="http://www.w3.org/2000/svg">
<g clip-path="url(#clip0_164_48)">
<path d="M21.1544 0.000976562H3.8461C1.72209 0.000976562 0.000244141 1.72283 0.000244141 3.84683V21.1551C0.000244141 23.2791 1.72209 25.001 3.8461 25.001H21.1544C23.2784 25.001 25.0002 23.2791 25.0002 21.1551V3.84683C25.0002 1.72283 23.2784 0.000976562 21.1544 0.000976562Z" fill="#7C83FD" fill-opacity="0.19"/>
<path d="M5.70213 5.15C4.58925 6.4 3.67871 8.625 4.10869 9.05C4.43749 9.375 4.91805 9.1 4.91805 8.6C4.91805 8.025 5.85388 6.35 6.71383 5.4C7.42203 4.6 7.5232 4 6.94147 4C6.8403 4 6.28386 4.525 5.70213 5.15Z" fill="#7DD9FF"/>
<path d="M11.1906 4.275C10.9377 4.4 10.6848 4.875 10.6089 5.325C10.4824 5.875 10.1283 6.325 9.47073 6.8C8.00376 7.8 7.62437 8.725 7.44732 11.75C7.34615 13.85 7.19439 14.55 6.73913 15.25C6.03093 16.35 6.00564 17.625 6.66325 18C6.94147 18.125 7.80142 18.25 8.5602 18.25C9.74895 18.25 10.0019 18.325 10.2548 18.825C10.6848 19.6 11.2665 19.975 12.0253 20C12.7335 20 13.7705 19.175 13.7705 18.625C13.7705 18.325 14.1246 18.25 15.3133 18.25C16.148 18.25 17.0585 18.125 17.3368 18C18.0197 17.625 17.9438 16.35 17.185 15.125C16.6791 14.275 16.578 13.8 16.5527 12.125C16.5527 11.025 16.4262 9.7 16.2745 9.175C15.9962 8.15 14.7569 6.6 14.0234 6.375C13.7452 6.3 13.5176 5.9 13.4164 5.375C13.1888 4.175 12.2023 3.675 11.1906 4.275ZM12.4553 5.575C12.5059 5.875 12.3794 6 12.0253 6C11.7218 6 11.4941 5.85 11.4941 5.675C11.4941 4.9 12.3035 4.825 12.4553 5.575ZM13.7958 7.4C15.0351 8 15.3892 8.9 15.541 11.75C15.6421 13.2 15.7939 14.575 15.8951 14.8C16.0974 15.225 15.8192 15.25 12 15.25C8.18081 15.25 7.90259 15.225 8.10493 14.8C8.2061 14.575 8.35786 13.2 8.43373 11.75C8.5602 9.55 8.68666 9 9.16722 8.3C9.49603 7.875 9.77425 7.5 9.79954 7.5C9.82483 7.5 10.3054 7.325 10.8618 7.15C11.8988 6.775 12.6829 6.85 13.7958 7.4ZM16.8056 16.75C16.8056 17.225 16.6286 17.25 12 17.25C7.37144 17.25 7.19439 17.225 7.19439 16.75C7.19439 16.275 7.37144 16.25 12 16.25C16.6286 16.25 16.8056 16.275 16.8056 16.75ZM12.7588 18.625C12.5817 18.825 12.2529 19 12 19C11.7471 19 11.4183 18.825 11.2412 18.625C10.963 18.3 11.0642 18.25 12 18.25C12.9358 18.25 13.037 18.3 12.7588 18.625Z" fill="#7DD9FF"/>
<path d="M16.6791 4.25C16.578 4.4 16.8562 4.9 17.2862 5.4C18.1461 6.35 19.0819 8.025 19.0819 8.6C19.0819 9.1 19.5625 9.375 19.8913 9.05C20.3213 8.625 19.4107 6.4 18.2979 5.15C17.2356 3.975 16.9574 3.8 16.6791 4.25Z" fill="#7DD9FF"/>
<path d="M6.94147 6.525C6.18269 7.6 5.60096 9.15 5.82859 9.55C6.10681 10 6.43561 9.7 6.96676 8.525C7.24498 7.85 7.70025 7.1 7.97847 6.85C8.5602 6.35 8.61078 5.5 8.07964 5.5C7.8773 5.5 7.37144 5.975 6.94147 6.525Z" fill="#7DD9FF"/>
<path d="M15.541 5.95C15.541 6.225 15.7686 6.625 16.0215 6.85C16.2998 7.1 16.755 7.85 17.0332 8.525C17.5644 9.7 17.8932 10 18.1714 9.55C18.399 9.15 17.8173 7.6 17.0585 6.525C16.2492 5.45 15.541 5.175 15.541 5.95Z" fill="#7DD9FF"/>
</g>
<defs>
<clipPath id="clip0_164_48">
<rect width="25" height="25" fill="white"/>
</clipPath>
</defs>
</svg>
