<svg width="25" height="25" viewBox="0 0 25 25" fill="none" xmlns="http://www.w3.org/2000/svg">
<g clip-path="url(#clip0_133_2)">
<path d="M20.9036 -0.121689H3.90363C1.69449 -0.121689 -0.0963707 1.66917 -0.0963707 3.87831V20.8783C-0.0963707 23.0875 1.69449 24.8783 3.90363 24.8783H20.9036C23.1128 24.8783 24.9036 23.0875 24.9036 20.8783V3.87831C24.9036 1.66917 23.1128 -0.121689 20.9036 -0.121689Z" fill="#0083BE" fill-opacity="0.43"/>
<path d="M7.86667 4.18605C7.33333 4.84884 6.6 5.37209 6.26667 5.37209C5.26667 5.37209 4.33333 6.62791 4.33333 8.02326C4.33333 8.75581 4.06667 9.66279 3.66667 10.1512C3.3 10.6395 3 11.4767 3 12C3 12.5233 3.3 13.3605 3.66667 13.8488C4.06667 14.3372 4.33333 15.2442 4.33333 15.9767C4.33333 17.3721 5.26667 18.6279 6.3 18.6279C6.66667 18.6279 7.33333 19.1512 7.8 19.7442C8.63333 20.8953 8.63333 20.8953 11.8667 20.9302L15.1333 21L16.1333 19.814C16.6667 19.1512 17.4 18.6279 17.7333 18.6279C18.7333 18.6279 19.6667 17.3721 19.6667 15.9767C19.6667 15.2442 19.9333 14.3372 20.3333 13.8488C20.7 13.3605 21 12.5233 21 12C21 11.4767 20.7 10.6395 20.3333 10.1512C19.9333 9.66279 19.6667 8.75581 19.6667 8.02326C19.6667 6.62791 18.7333 5.37209 17.7 5.37209C17.3333 5.37209 16.6667 4.84884 16.2 4.25581C15.3667 3.10465 15.3667 3.10465 12.1333 3.06977L8.86667 3L7.86667 4.18605ZM12 4.11628C12.6333 4.11628 13.4333 3.97674 13.7667 3.83721C14.2 3.62791 14.6 3.87209 15.4333 4.77907C16 5.47674 16.9 6.13953 17.4333 6.24419C18.5 6.55814 19 7.36046 19 8.86046C19 9.45349 19.3333 10.3953 19.7333 10.9535L20.4667 12L19.7333 13.0465C19.3333 13.6047 19 14.5465 19 15.1395C19 16.6395 18.5 17.4419 17.4333 17.7558C16.9 17.8605 16 18.5233 15.4333 19.2209C14.6 20.1279 14.2 20.3721 13.7667 20.1628C13 19.814 11 19.814 10.2333 20.1628C9.8 20.3721 9.4 20.1279 8.56667 19.2209C8 18.5233 7.1 17.8605 6.56667 17.7558C5.5 17.4419 5 16.6395 5 15.1395C5 14.5465 4.66667 13.6047 4.26667 13.0465L3.53333 12L4.26667 10.9535C4.66667 10.3953 5 9.45349 5 8.86046C5 7.36046 5.5 6.55814 6.56667 6.24419C7.1 6.13953 8 5.47674 8.56667 4.77907C9.4 3.87209 9.8 3.62791 10.2333 3.83721C10.5667 3.97674 11.3667 4.11628 12 4.11628Z" fill="#0270EC"/>
<path d="M8.83333 7.95346C8.2 8.9302 8.53333 9.97672 9.7 10.6046C10.5667 11.1279 12 10.2209 12 9.17439C12 7.11625 9.86666 6.27904 8.83333 7.95346ZM11 8.33718C11.3333 8.75579 11.3333 8.96509 11 9.38369C10.4667 10.0465 9.7 10.0465 9.46666 9.38369C9.26666 8.86044 9.83333 7.81392 10.3333 7.81392C10.4667 7.81392 10.7667 8.05811 11 8.33718Z" fill="#0270EC"/>
<path d="M11.6667 11.8256C9.93333 13.6395 8.63333 15.2442 8.76666 15.3837C9.03333 15.6279 15.3333 9.27908 15.3333 8.79071C15.3333 8.12792 14.6333 8.72094 11.6667 11.8256Z" fill="#0270EC"/>
<path d="M12.7333 13.6046C11.9333 14.1977 11.7333 15.7674 12.4 16.4651C13.6333 17.7558 16.1667 16.0465 15.3333 14.4767C15.0333 13.8837 14.0333 13.0465 13.6 13.0465C13.5333 13.0465 13.1333 13.2907 12.7333 13.6046ZM14.5667 14.6511C14.6667 14.9302 14.5 15.4535 14.2 15.7674C13.7 16.2907 13.6333 16.2907 13.1 15.7674C12.6667 15.2791 12.6333 15.0698 13 14.6511C13.5333 13.9535 14.3 13.9535 14.5667 14.6511Z" fill="#0270EC"/>
</g>
<defs>
<clipPath id="clip0_133_2">
<rect width="25" height="25" fill="white"/>
</clipPath>
</defs>
</svg>
