<svg width="25" height="25" viewBox="0 0 25 25" fill="none" xmlns="http://www.w3.org/2000/svg">
<g clip-path="url(#clip0_21_35)">
<path d="M4 0H21C22.0609 0 23.0783 0.421427 23.8284 1.17157C24.5786 1.92172 25 2.93913 25 4V21C25 22.0609 24.5786 23.0783 23.8284 23.8284C23.0783 24.5786 22.0609 25 21 25H4C2.93913 25 1.92172 24.5786 1.17157 23.8284C0.421427 23.0783 0 22.0609 0 21V4C0 2.93913 0.421427 1.92172 1.17157 1.17157C1.92172 0.421427 2.93913 0 4 0Z" fill="#24D547" fill-opacity="0.33"/>
<path d="M7.87722 7.30048L4 9.54927V13.0129V16.4766L7.87722 18.7254C10.0226 19.9919 11.9354 21 12.1422 21C12.3489 21 14.2876 19.9919 16.4071 18.7254L20.2843 16.4766L20.3619 13.0905L20.4394 9.70436L18.7593 8.23102C17.4669 7.11955 16.9499 6.80937 16.5622 6.93861C16.1486 7.06785 16.0711 7.01615 16.1745 6.73183C16.2779 6.47334 15.7868 6.16317 14.4685 5.67205C13.4604 5.31018 12.4265 5 12.1939 5C11.9612 5.02585 10.0226 6.03393 7.87722 7.30048ZM13.7447 5.98223C14.4426 6.21486 14.9596 6.52504 14.9596 6.68013C14.9338 6.80937 13.4087 7.81745 11.5477 8.90307L8.16155 10.8675L6.53312 10.3247C5.62843 10.0404 4.98223 9.73021 5.11147 9.62682C5.49919 9.2391 12.0129 5.51696 12.2714 5.54281C12.4265 5.54281 13.0727 5.7496 13.7447 5.98223ZM15.2181 7.66236C14.9855 7.8433 13.4346 8.72213 11.7803 9.65267C9.47981 10.9451 8.80775 11.4362 8.8853 11.7722C8.98869 12.1858 8.93699 12.1858 8.23909 11.8239C7.4895 11.462 7.20517 11.126 7.82552 11.3328C7.98061 11.4103 9.76414 10.5315 11.7544 9.39418C15.1922 7.42973 16.1486 6.96446 15.2181 7.66236ZM19.483 9.60097C19.5347 9.70436 17.9063 10.7641 15.8643 11.9532L12.1163 14.0985L10.9015 12.9871C10.2294 12.3667 9.66074 11.7981 9.60905 11.7205C9.5832 11.643 11.2116 10.6349 13.2278 9.47173L16.8982 7.35218L18.1389 8.38611C18.811 8.98061 19.4313 9.52342 19.483 9.60097ZM8.26494 12.4701L11.7544 14.5121L11.832 17.3813C11.8578 18.958 11.832 20.2504 11.7544 20.2504C11.6769 20.2504 9.97092 19.3199 7.98061 18.1567L4.38772 16.063V13.2456C4.38772 11.6947 4.46527 10.4281 4.59451 10.4281C4.6979 10.4281 6.35218 11.3586 8.26494 12.4701ZM19.8966 13.2456V16.063L16.3037 18.1567C14.3134 19.3199 12.6074 20.2504 12.5299 20.2504C12.4523 20.2504 12.4265 18.958 12.4523 17.3813L12.5299 14.5121L16.0194 12.4701C17.9321 11.3586 19.5864 10.4281 19.7157 10.4281C19.8191 10.4281 19.8966 11.6947 19.8966 13.2456Z" fill="#2DCC39"/>
</g>
<defs>
<clipPath id="clip0_21_35">
<rect width="25" height="25" fill="white"/>
</clipPath>
</defs>
</svg>
