<svg width="25" height="25" viewBox="0 0 25 25" fill="none" xmlns="http://www.w3.org/2000/svg">
<g clip-path="url(#clip0_34_2)">
<path d="M21 0H4C1.79086 0 0 1.79086 0 4V21C0 23.2091 1.79086 25 4 25H21C23.2091 25 25 23.2091 25 21V4C25 1.79086 23.2091 0 21 0Z" fill="#AD24D5" fill-opacity="0.33"/>
<path d="M8.74828 3.59213C6.76207 4.76839 6.04828 6.78915 6.94828 8.74958C8.77931 12.6403 14.8621 11.4942 14.8621 7.24156C14.8621 3.95406 11.5103 1.9333 8.74828 3.59213ZM12.969 4.67791C15.7 6.87963 13.2793 11.2529 9.86552 10.2576C7.13449 9.44328 6.5138 6.18594 8.77931 4.43663C9.80345 3.62229 11.8207 3.74293 12.969 4.67791Z" fill="#AF00D8"/>
<path d="M16.4448 12.5498C15.2034 13.2435 14.9862 13.3038 14.1172 12.9721C10.7034 11.645 8.43793 11.9466 6.17241 14.1182C4.71379 15.4754 4 16.9532 4 18.5819V19.2756H9.58621H15.1414L16.5379 20.2106C17.8103 21.0852 17.9966 21.1456 18.8345 20.8138C20.7897 20.0296 22 17.9184 22 15.2643V13.6356L20.169 12.6704C19.1759 12.1577 18.2138 11.7355 18.0897 11.7355C17.9345 11.7355 17.1897 12.0974 16.4448 12.5498ZM19.6724 13.3038L21.069 13.9674V15.8976C21.069 17.7374 21.0069 17.8882 19.8586 19.0042C18.431 20.3916 18.0276 20.4519 16.7552 19.3963C15.669 18.5216 15.0793 16.9231 15.2345 15.2039C15.3276 14.1785 15.4828 13.9372 16.569 13.334C18.0897 12.4895 17.9655 12.4895 19.6724 13.3038ZM12.9379 13.4245C14.1483 13.8769 14.1483 13.907 14.3345 15.7468C14.4276 16.7723 14.6138 17.8581 14.7069 18.1597C14.9241 18.6422 14.5517 18.6724 9.92759 18.6724H4.93103V17.8279C4.93103 17.3755 5.33448 16.3802 5.83103 15.6262C7.35172 13.2435 10.2379 12.3688 12.9379 13.4245Z" fill="#AF00D8"/>
<path d="M18.5241 16.0183C17.8103 16.5612 17.5931 16.5913 17.1897 16.2596C16.9414 16.0484 16.631 15.9579 16.5379 16.0484C16.2897 16.2897 17.1276 17.466 17.5931 17.466C18.0586 17.466 20.1379 15.9278 20.1379 15.5659C20.1379 15.1738 19.3621 15.3849 18.5241 16.0183Z" fill="#AF00D8"/>
</g>
<defs>
<clipPath id="clip0_34_2">
<rect width="25" height="25" fill="white"/>
</clipPath>
</defs>
</svg>
