<svg width="25" height="25" viewBox="0 0 25 25" fill="none" xmlns="http://www.w3.org/2000/svg">
<path d="M21 0H4C1.79086 0 0 1.79086 0 4V21C0 23.2091 1.79086 25 4 25H21C23.2091 25 25 23.2091 25 21V4C25 1.79086 23.2091 0 21 0Z" fill="#1DB7AB" fill-opacity="0.35"/>
<path d="M13.3149 4.06742C12.5568 4.25021 12.0055 4.74233 11.7528 5.47348C11.6916 5.64221 11.6801 5.84961 11.6648 7.02718L11.6495 8.38404L10.9565 8.3981C9.97639 8.41567 9.93428 8.44379 9.93428 9.17495V9.61434L9.48633 9.7444C9.23748 9.81822 8.83165 9.97289 8.58279 10.0889L8.13102 10.2998L7.77879 9.98343C7.1892 9.45264 7.18154 9.45616 6.13251 10.4228L5.34 11.1575V11.5301L5.68457 11.85C5.87217 12.0293 6.02914 12.191 6.02914 12.2085C6.02914 12.2261 5.93343 12.4159 5.81857 12.6268C5.70371 12.8377 5.54291 13.1998 5.46634 13.4248L5.32086 13.8396H4.86908C4.3484 13.8396 4.20291 13.8817 4.07657 14.068C4.00383 14.1735 4 14.2403 4 15.1964C4 16.142 4.00383 16.2193 4.07657 16.3248C4.19909 16.5111 4.31777 16.5462 4.8576 16.5462H5.33234L5.37828 16.729C5.45103 17.0067 5.69988 17.5797 5.89131 17.8996L6.05594 18.1808L5.69988 18.5182L5.34 18.8557V19.2318L6.17463 19.9981C6.99777 20.7574 7.00925 20.7644 7.17005 20.7644C7.39594 20.7644 7.49165 20.7082 7.84388 20.3813L8.14634 20.1036L8.45645 20.2547C8.82782 20.4375 9.32171 20.6238 9.67776 20.7117L9.93428 20.775V21.2284C9.93428 21.7346 9.97256 21.833 10.2023 21.942C10.3669 22.0193 12.4114 22.0193 12.5913 21.942C12.8095 21.8471 12.8593 21.717 12.8746 21.2144L12.8899 20.7644L13.0507 20.7293C13.3876 20.6484 13.8777 20.4691 14.2567 20.2864L14.6587 20.0965L15.0263 20.4305C15.3785 20.7433 15.4091 20.7644 15.5584 20.7644C15.6465 20.7644 15.7652 20.7433 15.8226 20.7152C15.88 20.6871 16.2552 20.3602 16.6572 19.9841C17.6412 19.0736 17.6488 19.0455 17.0669 18.5077L16.7338 18.2019L16.9674 17.7695C17.1703 17.3969 17.2851 17.1192 17.4306 16.6693L17.4651 16.5638L17.9781 16.5462C18.8051 16.5181 18.7783 16.5673 18.7783 15.1929C18.7783 14.1946 18.7744 14.1454 18.6979 14.047C18.5715 13.8817 18.4873 13.8571 17.959 13.8396L17.4651 13.822L17.3732 13.5583C17.3272 13.4142 17.2851 13.2771 17.2851 13.2596C17.2851 13.2385 17.4804 13.0943 17.7216 12.9397L18.1542 12.6514L19.1841 12.6374C20.325 12.6163 20.4284 12.6022 20.884 12.3702C21.3779 12.1206 21.8028 11.6039 21.9368 11.0942C22.0211 10.7568 22.0211 5.88124 21.9368 5.5473C21.7454 4.8056 21.0792 4.20451 20.2752 4.04633C20.0685 4.00766 19.4215 3.99712 16.8066 4.00063C13.7858 4.00063 13.5752 4.00415 13.3149 4.06742ZM20.0264 4.91457C20.4207 4.98136 20.7615 5.22391 20.9299 5.56136L21.018 5.73712L21.0295 8.18016C21.0371 9.92016 21.0295 10.6829 20.9988 10.8341C20.9223 11.1891 20.7079 11.4528 20.3365 11.632C20.1833 11.7094 20.1259 11.7129 19.0463 11.7305C17.9743 11.748 17.9092 11.7516 17.7752 11.8254C17.6986 11.8676 17.1167 12.2437 16.4888 12.6585C15.8571 13.0768 15.3287 13.4177 15.3172 13.4177C15.3058 13.4177 15.2943 13.1084 15.2943 12.7323C15.2943 11.7445 15.3096 11.7586 14.2414 11.7305C13.5829 11.7129 13.4987 11.7059 13.334 11.632C13.1043 11.5266 12.8899 11.3297 12.7674 11.1118L12.6717 10.9396L12.6602 8.36646C12.6526 5.83906 12.6526 5.79336 12.7291 5.60003C12.867 5.26609 13.2345 4.98136 13.6212 4.91106C13.87 4.86888 19.7545 4.86888 20.0264 4.91457ZM11.6686 10.1381C11.6839 10.8587 11.6992 11.0063 11.7682 11.2032C11.994 11.8535 12.5492 12.3562 13.2651 12.553C13.38 12.5882 13.671 12.6233 13.9083 12.6339L14.3371 12.655V13.5197C14.3371 14.4899 14.3524 14.5637 14.609 14.6902C14.8578 14.8133 14.9344 14.7816 15.769 14.2297C16.1251 13.9942 16.4314 13.815 16.4467 13.829C16.462 13.8431 16.5041 13.9837 16.5386 14.1383C16.6151 14.4617 16.7032 14.6164 16.8525 14.6832C16.9138 14.7113 17.1396 14.7359 17.3923 14.7465L17.8211 14.7605V15.6674H17.4C16.7798 15.6674 16.6802 15.7272 16.5577 16.1982C16.3778 16.8696 16.2131 17.2352 15.8341 17.8082C15.6771 18.0472 15.6388 18.1351 15.6388 18.2616C15.6388 18.4128 15.6542 18.4339 15.9719 18.7327L16.305 19.042L15.5852 19.7099L15.256 19.4146C15.0722 19.2494 14.8846 19.1123 14.8195 19.0982C14.674 19.0666 14.4864 19.1264 14.1725 19.3127C13.7207 19.5798 13.0775 19.8153 12.4688 19.9384C11.9826 20.0403 11.8868 20.1739 11.8868 20.7715V21.1159H10.8914V20.7258C10.8914 20.1317 10.8263 20.0508 10.2329 19.9208C9.59736 19.7837 9.11496 19.5974 8.53302 19.267C8.06211 18.9998 7.94725 19.0174 7.48399 19.4462L7.19685 19.7099L6.4924 19.0631L6.81782 18.7538C7.0016 18.5745 7.14325 18.4093 7.14708 18.3636C7.15857 18.1702 7.12411 18.0578 6.96714 17.8293C6.61108 17.2985 6.38137 16.7853 6.23971 16.2123C6.1172 15.7307 6.01765 15.6674 5.38211 15.6674H4.95714V14.7605L5.41274 14.7465C5.83388 14.7324 5.87983 14.7254 6.00234 14.6375C6.1172 14.5602 6.14783 14.5039 6.21674 14.2543C6.42348 13.5162 6.5728 13.1717 6.92885 12.6268C7.24662 12.1382 7.23897 12.0609 6.814 11.6637L6.48857 11.3579L6.85228 11.0274L7.21599 10.6935L7.53759 10.9888C7.82857 11.2559 7.87451 11.284 8.03531 11.2981C8.19611 11.3157 8.23822 11.3016 8.51005 11.1505C9.09582 10.813 9.60119 10.6162 10.2099 10.4826C10.8263 10.349 10.8914 10.2752 10.8914 9.6741V9.30501H11.6456L11.6686 10.1381Z" fill="#0736B8"/>
<path d="M16.1749 5.55435C15.3785 5.80393 14.8463 6.41205 14.7736 7.16429C14.7506 7.36466 14.7583 7.41738 14.8272 7.51932C14.9842 7.74781 15.2445 7.81811 15.4742 7.68805C15.6389 7.59666 15.7039 7.49472 15.7346 7.26623C15.7729 6.98151 15.8954 6.75654 16.0868 6.59835C16.73 6.07811 17.7446 6.43666 17.8097 7.20999C17.8479 7.63884 17.6297 7.98684 16.8563 8.72502C16.3127 9.24527 16.2553 9.34018 16.3357 9.57218C16.4275 9.81824 16.7568 9.93775 17.0133 9.81824C17.1626 9.74794 17.9437 8.99218 18.2117 8.66175C18.8434 7.88139 18.9621 7.20648 18.5907 6.51047C18.338 6.03944 17.8671 5.67387 17.3273 5.52975C17.0133 5.44538 16.4811 5.45593 16.1749 5.55435Z" fill="#0736B8"/>
<path d="M16.4581 10.2927C16.2973 10.3349 16.1097 10.5353 16.0753 10.697C15.9796 11.161 16.55 11.4879 16.9865 11.2243C17.2085 11.0907 17.2774 10.7321 17.1243 10.5072C17.0401 10.3841 16.795 10.2541 16.6534 10.2576C16.6113 10.2576 16.5232 10.2752 16.4581 10.2927Z" fill="#0736B8"/>
<path d="M10.8454 12.8237C9.8615 12.9994 9.00773 13.8009 8.80099 14.7535C8.61339 15.6253 8.99625 16.5603 9.77345 17.1087C10.6923 17.759 11.9021 17.7976 12.8631 17.2106C13.9428 16.5462 14.3333 15.2421 13.7781 14.1665C13.4412 13.5162 12.7559 13.0029 12.0017 12.8413C11.7298 12.7815 11.1364 12.7745 10.8454 12.8237ZM11.7834 13.7165C12.285 13.836 12.687 14.1313 12.8899 14.532C13.2957 15.3265 12.9435 16.2158 12.0782 16.5954C11.7605 16.7325 11.2704 16.7642 10.922 16.6693C10.3133 16.5076 9.83853 16.0014 9.74665 15.4214C9.58585 14.3422 10.6578 13.4459 11.7834 13.7165Z" fill="#0736B8"/>
</svg>
