<svg width="25" height="25" viewBox="0 0 25 25" fill="none" xmlns="http://www.w3.org/2000/svg">
<path d="M21 0H4C1.79086 0 0 1.79086 0 4V21C0 23.2091 1.79086 25 4 25H21C23.2091 25 25 23.2091 25 21V4C25 1.79086 23.2091 0 21 0Z" fill="#1DB7AB" fill-opacity="0.35"/>
<path d="M12.1379 3.08605C12.0671 3.15618 12.0421 3.24969 12.0171 3.50682C11.9838 3.88864 11.9463 4.01331 11.8546 4.01331C11.8213 4.01331 11.6212 4.08344 11.4087 4.16915C11.1004 4.29382 11.0129 4.3133 10.9629 4.27434C10.9254 4.25097 10.7795 4.13798 10.6337 4.025C10.2295 3.70942 10.2212 3.71331 9.55446 4.33668C9.1211 4.73797 9.00026 4.87823 9.00026 4.95615C9.00026 5.02627 9.09194 5.16653 9.28778 5.38471L9.5753 5.71198L9.46696 5.90288C9.40862 6.01197 9.31695 6.20288 9.26695 6.33144L9.17527 6.56521L8.87109 6.59637C8.36273 6.64702 8.29189 6.66261 8.20438 6.74442C8.13355 6.81066 8.12521 6.87689 8.12521 7.53921C8.12521 8.24439 8.12938 8.26777 8.22105 8.35348C8.30022 8.42751 8.38356 8.45088 8.65024 8.47036C9.20028 8.51322 9.18361 8.50932 9.27111 8.75867C9.30862 8.87945 9.38779 9.06256 9.44196 9.16386C9.49613 9.26515 9.54196 9.36645 9.54196 9.38593C9.54196 9.40931 9.45029 9.52619 9.34195 9.65086C9.05027 9.97813 8.98776 10.0794 9.01277 10.1768C9.05027 10.3054 10.1337 11.2989 10.2378 11.2989C10.3295 11.2989 10.4295 11.2365 10.7962 10.9443L11.0254 10.7573L11.2671 10.8703C11.4004 10.9365 11.6087 11.0145 11.7296 11.0495C11.9796 11.1236 11.9713 11.108 12.0254 11.6612C12.0671 12.117 12.0713 12.117 13.0255 12.117C14.0047 12.117 13.9422 12.1638 14.0256 11.3729C14.0506 11.1236 14.0547 11.1119 14.1756 11.0885C14.2422 11.0768 14.4547 10.9989 14.6423 10.9171L14.9839 10.7651L15.334 11.034C15.8048 11.3963 15.7882 11.4002 16.4715 10.7612C17.1216 10.1457 17.1216 10.1534 16.7299 9.71709C16.5799 9.54956 16.459 9.39762 16.459 9.38203C16.459 9.36255 16.5132 9.24957 16.5799 9.1249C16.6465 9.00412 16.7257 8.8288 16.7549 8.73529C16.784 8.64179 16.8382 8.55218 16.8716 8.5366C16.9091 8.51712 17.1049 8.48984 17.3091 8.47426C17.6174 8.45088 17.6966 8.4314 17.7758 8.35348C17.8716 8.26387 17.8758 8.24829 17.8758 7.53921C17.8758 6.71715 17.8633 6.68598 17.5341 6.64702C17.4341 6.63533 17.2341 6.61196 17.0882 6.59637L16.8257 6.56521L16.734 6.33144C16.684 6.20288 16.5924 6.01197 16.534 5.90288L16.4257 5.71198L16.7132 5.38471C16.9049 5.16653 17.0007 5.02627 17.0007 4.96004C17.0007 4.88212 16.8716 4.73797 16.4507 4.33668C15.7882 3.70942 15.7923 3.71331 15.359 4.04448C15.1965 4.16915 15.0423 4.28213 15.0131 4.29772C14.9839 4.3133 14.8714 4.28603 14.7631 4.23538C14.6548 4.18084 14.4464 4.09902 14.3047 4.05227L14.0464 3.96656L14.0214 3.70552C13.9464 2.96138 14.0047 3.00034 13.0088 3.00034C12.2463 3.00034 12.2213 3.00424 12.1379 3.08605ZM13.4339 3.78734C13.5005 4.39122 13.5172 4.4146 13.9047 4.50421C14.0381 4.53927 14.3381 4.65226 14.5714 4.76134C15.0631 4.99121 15.0464 4.99511 15.4506 4.67953C15.5923 4.57044 15.7215 4.48083 15.7382 4.48083C15.759 4.48083 15.8923 4.59382 16.0382 4.73018L16.3049 4.98342L16.0465 5.28341C15.909 5.44705 15.7923 5.61847 15.7923 5.66522C15.7923 5.70808 15.884 5.91847 16.0007 6.12885C16.1132 6.33924 16.2257 6.60806 16.2549 6.72494C16.3215 6.99767 16.4049 7.07948 16.6549 7.10675C16.7632 7.11844 16.9549 7.13792 17.0757 7.15351L17.2924 7.17688V7.55869V7.9405L16.8966 7.96778C16.6215 7.98726 16.4757 8.01453 16.4215 8.05738C16.3799 8.09635 16.3007 8.25608 16.2507 8.41582C16.2007 8.57556 16.0798 8.85217 15.9757 9.0275C15.8757 9.20671 15.7923 9.38593 15.7923 9.42879C15.7923 9.46775 15.9132 9.64307 16.059 9.8106L16.3257 10.1184L16.0423 10.3833L15.7548 10.6482L15.4423 10.4106C15.2381 10.2508 15.0965 10.169 15.0214 10.169C14.9631 10.169 14.7798 10.2392 14.6131 10.321C14.4464 10.4067 14.1464 10.5236 13.9464 10.5781C13.713 10.6482 13.5672 10.7106 13.538 10.7573C13.5047 10.8197 13.4172 11.3573 13.4172 11.521C13.4172 11.5599 13.3088 11.5716 13.0088 11.5716H12.5963L12.5546 11.1859C12.5338 10.9716 12.4921 10.769 12.463 10.7379C12.4296 10.7028 12.2755 10.6405 12.1088 10.5937C11.9463 10.5469 11.6546 10.434 11.4546 10.3405C11.2587 10.247 11.0504 10.169 10.992 10.169C10.9212 10.169 10.7795 10.247 10.5837 10.4028C10.4212 10.5314 10.2712 10.6366 10.2587 10.6366C10.217 10.6366 9.70864 10.1573 9.70864 10.1184C9.70864 10.1028 9.82115 9.96254 9.95865 9.8106C10.2545 9.47944 10.267 9.40541 10.067 9.09373C9.98782 8.97295 9.86281 8.69633 9.78781 8.48205C9.7003 8.23271 9.62113 8.07686 9.56696 8.0418C9.51696 8.01453 9.30445 7.97946 9.0961 7.96388L8.70858 7.93661V7.55869V7.17688L8.90859 7.15351C9.01693 7.14182 9.20444 7.12234 9.32528 7.10675C9.59613 7.07948 9.67947 7.00156 9.74614 6.72494C9.77531 6.60806 9.88782 6.33924 10.0003 6.12885C10.117 5.91847 10.2087 5.70808 10.2087 5.66522C10.2087 5.61847 10.092 5.44705 9.95449 5.28341L9.69614 4.98342L9.97949 4.71459L10.2628 4.44966L10.592 4.69901C10.7712 4.83537 10.9587 4.94835 11.0087 4.94835C11.0546 4.94835 11.1879 4.89771 11.2962 4.83147C11.5212 4.7029 11.9129 4.54317 12.1046 4.50421C12.4796 4.42629 12.5213 4.37174 12.563 3.88474L12.5921 3.54578H13.0005H13.4089L13.4339 3.78734Z" fill="#0736B8"/>
<path d="M12.3922 4.88602C11.5546 5.06524 10.7837 5.62237 10.4212 6.31586C10.1837 6.7756 10.1087 7.0678 10.1087 7.5587C10.1129 8.03401 10.1879 8.3457 10.4004 8.75088C10.9338 9.77164 12.1422 10.3833 13.3422 10.2431C14.0464 10.1612 14.5423 9.93138 15.0673 9.44438C15.3507 9.18334 15.4382 9.07036 15.5965 8.76257C15.8424 8.29115 15.9382 7.86648 15.9049 7.38338C15.834 6.26911 15.034 5.31069 13.8881 4.96005C13.4881 4.83537 12.788 4.80421 12.3922 4.88602ZM13.5631 5.43536C14.5923 5.6886 15.3298 6.56521 15.334 7.54311C15.334 7.83921 15.2048 8.32232 15.0548 8.58335C14.8756 8.89504 14.459 9.28074 14.1339 9.44048C13.7297 9.63918 13.4172 9.7132 12.9964 9.7132C11.8838 9.70931 10.9588 8.99244 10.7254 7.9483C10.4837 6.86131 11.2754 5.70419 12.4422 5.43926C12.7714 5.36523 13.2631 5.36523 13.5631 5.43536Z" fill="#0736B8"/>
<path d="M16.8132 13.5196C16.5424 13.5586 16.3966 13.617 15.659 13.991L15.0423 14.3066L14.0506 14.291C12.963 14.2755 13.0339 14.2871 12.2671 13.9716C11.6963 13.7339 11.3504 13.6677 10.7087 13.6677C10.0212 13.6677 9.67116 13.7417 9.06279 14.0222C8.75444 14.1664 8.5336 14.3066 8.20858 14.5677C7.76272 14.93 7.39186 15.1521 7.33769 15.0936C7.32103 15.0741 7.24185 14.8599 7.16685 14.6183C7.07101 14.3222 7.00017 14.1586 6.94184 14.1196C6.871 14.0768 6.61265 14.0651 5.52092 14.0651C4.23335 14.0651 4.17918 14.069 4.09167 14.143C4.03334 14.1975 4 14.2716 4 14.3573C4 14.4742 4.76254 20.4156 4.81671 20.7195C4.82921 20.7896 4.87505 20.8831 4.92089 20.926C4.99589 20.9961 5.07506 21 6.96267 21C8.21691 21 8.95029 20.9844 9.00029 20.961C9.19197 20.8675 9.1878 20.8052 8.91695 19.9792C8.77528 19.5507 8.66694 19.1922 8.67527 19.1883C8.78361 19.087 10.2504 18.265 10.3712 18.2338C10.5212 18.1949 10.7587 18.2299 12.388 18.5104L14.2298 18.826L14.8131 18.8065C15.2798 18.791 15.4673 18.7676 15.7632 18.6858C16.3674 18.5182 15.9757 18.752 20.9093 15.5845C21.9885 14.891 22.0427 14.8443 21.9844 14.6378C21.9427 14.4819 21.6427 14.2014 21.3677 14.0651C21.1385 13.9521 21.0552 13.9287 20.7385 13.917C20.4385 13.9014 20.3301 13.9131 20.1218 13.9833L19.8718 14.069L19.7134 13.9482C19.3051 13.6482 18.7759 13.5703 18.3508 13.7495L18.1342 13.8352L17.9133 13.7222C17.5424 13.5313 17.2008 13.469 16.8132 13.5196ZM17.3799 14.0884C17.4466 14.1001 17.5008 14.1274 17.4924 14.1469C17.4841 14.1703 17.2924 14.2794 17.0633 14.3923L16.6466 14.6027L16.4007 14.4858C16.1299 14.3573 16.1257 14.3651 16.4757 14.1975C16.7966 14.0417 16.9883 14.0183 17.3799 14.0884ZM11.5338 14.2988C11.6963 14.3417 11.9963 14.4469 12.1921 14.5326C12.8588 14.8209 12.8255 14.817 14.4381 14.8404L15.8965 14.8638L16.134 14.9728C16.2632 15.0313 16.4299 15.1443 16.5007 15.2222C16.6299 15.3586 16.8257 15.6858 16.7882 15.7131C16.7799 15.7209 16.3299 15.7092 15.7923 15.6897C14.7673 15.6469 13.8089 15.6858 13.6297 15.7793C13.5089 15.8378 13.4589 15.9663 13.5089 16.1027C13.5756 16.2741 13.6506 16.2897 14.2298 16.2391C14.6423 16.204 15.0256 16.204 15.9882 16.2429L17.2216 16.2897L17.3174 16.204C17.3716 16.1572 17.4174 16.0793 17.4174 16.0326C17.4174 15.9585 17.6383 15.8339 18.8675 15.2144C20.2301 14.5248 20.3301 14.478 20.576 14.4625C20.8468 14.443 21.151 14.5209 21.2468 14.6261C21.2843 14.6651 20.726 15.0391 18.7384 16.317C17.3299 17.2209 16.0882 17.9962 15.9757 18.039C15.6132 18.1871 15.134 18.2728 14.6881 18.2728C14.2089 18.2728 14.3173 18.2884 12.2088 17.926C10.542 17.6377 10.4462 17.6299 10.0754 17.7507C9.98785 17.778 9.60449 17.9884 9.2253 18.2143C8.84611 18.4403 8.52109 18.6234 8.50443 18.6234C8.48776 18.6234 8.25858 17.9689 8.00023 17.1702C7.74188 16.3754 7.52104 15.7014 7.51687 15.6819C7.50854 15.6585 7.62521 15.5923 7.77105 15.53C7.92939 15.4637 8.17524 15.3079 8.35859 15.1599C9.14196 14.5248 9.61699 14.3027 10.3754 14.2092C10.6421 14.1742 11.2338 14.2209 11.5338 14.2988ZM19.1509 14.2677C19.2175 14.2949 19.2675 14.3378 19.2675 14.3573C19.2634 14.3806 18.9842 14.5365 18.6425 14.7079C18.3008 14.8793 17.8591 15.1053 17.6633 15.2066L17.3008 15.3897L17.1924 15.1988L17.0841 15.004L17.3883 14.8521C18.1008 14.4858 18.6092 14.2326 18.6675 14.2092C18.7592 14.1742 19.0134 14.2053 19.1509 14.2677ZM7.49604 17.4858C8.00857 19.0637 8.43776 20.3805 8.45026 20.4078C8.46276 20.4429 8.14191 20.4546 6.92517 20.4546H5.37925L5.35424 20.326C5.32091 20.1351 4.62504 14.7664 4.62504 14.6845C4.62504 14.6144 4.67087 14.6105 5.59593 14.6105H6.56265L7.49604 17.4858Z" fill="#0736B8"/>
<path d="M6.42513 18.978C5.94177 19.2 5.8626 19.8429 6.27512 20.1779C6.85432 20.6572 7.75021 20.1234 7.54186 19.4221C7.41269 18.9858 6.87516 18.7715 6.42513 18.978ZM6.9585 19.5156C7.02517 19.6364 7.0085 19.7065 6.89599 19.7767C6.80015 19.8351 6.78349 19.8351 6.68765 19.7767C6.57514 19.7065 6.55014 19.5663 6.63348 19.4884C6.71265 19.4143 6.90849 19.4299 6.9585 19.5156Z" fill="#0736B8"/>
</svg>
