<svg width="25" height="25" viewBox="0 0 25 25" fill="none" xmlns="http://www.w3.org/2000/svg">
<g clip-path="url(#clip0_119_11)">
<path d="M21.1541 0H3.84586C1.72185 0 0 1.72185 0 3.84586V21.1541C0 23.2782 1.72185 25 3.84586 25H21.1541C23.2782 25 25 23.2782 25 21.1541V3.84586C25 1.72185 23.2782 0 21.1541 0Z" fill="#0F5761" fill-opacity="0.66"/>
<path d="M14.8328 3L14.5269 3.12245L13.4256 3.55102L13.1196 3.67347L13.1931 3.99184L13.4256 5.16735C13.3108 5.28214 13.1885 5.41684 13.0585 5.55918L11.896 5.30204L11.5778 5.22857L11.4555 5.52245L10.9782 6.62449L10.8559 6.91837L11.1251 7.10204L12.1285 7.77551C12.1162 7.96684 12.1178 8.15969 12.1285 8.35102L11.1006 8.98776L10.8192 9.15918L10.9415 9.46531L11.3698 10.5673L11.4922 10.8735L11.8103 10.8L12.985 10.5673C13.1044 10.7097 13.2359 10.8383 13.3766 10.9592L13.1074 12.1347L13.034 12.4531L13.3399 12.5878L14.4412 13.0531L14.7349 13.1755L14.9184 12.9061L15.5914 11.902C15.7826 11.9143 15.9754 11.9128 16.1666 11.902L16.8029 12.9429L16.9742 13.2122L17.2801 13.102L18.6873 12.5388L18.6139 12.2204L18.3447 10.9347C18.4915 10.8107 18.6246 10.6776 18.7485 10.5306L19.9354 10.8367L20.2658 10.9224L20.3882 10.6163L20.8654 9.51429L21 9.20816L20.7063 9.02449L19.6784 8.4C19.6907 8.20867 19.6892 8.01582 19.6784 7.82449L20.7063 7.18776L20.9878 7.01633L20.8654 6.7102L20.4371 5.60816L20.3148 5.30204L19.9844 5.37551L18.7852 5.6449C18.6659 5.50255 18.5343 5.37398 18.3936 5.25306L18.6506 4.07755L18.724 3.75918L18.4303 3.63673L17.329 3.15918L17.0231 3.03673L16.8396 3.31837L16.2155 4.3102C16.035 4.29184 15.8392 4.30867 15.6404 4.32245L15.0041 3.28163L14.8328 3ZM14.5024 3.96735L15.0775 4.9102L15.2243 5.14286L15.4935 5.08163C15.7704 5.02041 16.032 5.05408 16.3868 5.09388L16.6315 5.11837L16.7661 4.9102L17.329 4.01633L17.8185 4.22449L17.5738 5.27755L17.5126 5.53469L17.7328 5.68163C17.973 5.85306 18.1734 6.05357 18.3447 6.29388L18.4915 6.51429L18.7485 6.45306L19.8253 6.20816L20.0211 6.69796L19.0789 7.26122L18.8708 7.39592L18.8953 7.64082C18.932 7.96837 18.932 8.24388 18.8953 8.57143L18.8708 8.81633L19.0789 8.95102L20.0088 9.52653L19.8131 9.99184L18.724 9.72245L18.4548 9.66122L18.308 9.88163C18.1366 10.1219 17.9363 10.3224 17.6961 10.4939L17.4881 10.6408L17.537 10.898L17.7818 12.0612L17.2923 12.2449L16.7294 11.3143L16.5948 11.1061L16.3501 11.1306C16.0228 11.1673 15.7475 11.1673 15.4201 11.1306L15.1754 11.1061L15.053 11.302L14.4534 12.2082L13.9517 11.9878L14.1842 10.9347L14.2454 10.6898L14.0374 10.5306C13.7972 10.3592 13.5969 10.1587 13.4256 9.91837L13.2787 9.7102L13.0218 9.75918L11.9694 9.97959L11.7859 9.4898L12.7158 8.91429L12.9361 8.77959L12.8994 8.53469C12.8627 8.20714 12.8627 7.93163 12.8994 7.60408L12.9361 7.37143L12.7281 7.23673L11.8226 6.63673L12.0306 6.13469L13.0952 6.37959L13.3277 6.42857L13.4745 6.2449C13.6978 5.98469 13.9273 5.7551 14.123 5.55918L14.2699 5.41224L14.2332 5.21633L14.0129 4.16327L14.5024 3.96735ZM15.9218 6.1102C14.845 6.1102 13.964 6.99184 13.964 8.06939C13.964 9.14694 14.845 10.0286 15.9218 10.0286C16.9986 10.0286 17.8797 9.14694 17.8797 8.06939C17.8797 6.99184 16.9986 6.1102 15.9218 6.1102ZM15.9218 6.89388C16.5749 6.89388 17.0965 7.41582 17.0965 8.06939C17.0965 8.72296 16.5749 9.2449 15.9218 9.2449C15.2687 9.2449 14.7471 8.72296 14.7471 8.06939C14.7471 7.41582 15.2687 6.89388 15.9218 6.89388ZM7.5153 10.0286L7.46635 10.3592L7.27056 11.6327C7.05795 11.7 6.85299 11.798 6.65874 11.902L5.31271 10.9224L3.94222 12.2939L4.12576 12.5633L4.8722 13.6408C4.76666 13.8505 4.67335 14.0602 4.60299 14.2653L3.31815 14.498L3 14.5592V16.4694L3.31815 16.5306L4.60299 16.7633C4.67182 16.9776 4.76666 17.1781 4.8722 17.3755L4.10129 18.4163L3.89327 18.6857L5.26377 20.0571L5.53297 19.8735L6.60979 19.1265C6.81934 19.2321 7.02889 19.3255 7.23385 19.3959L7.42964 20.6694L7.47859 21H9.39973L9.44867 20.6816L9.69341 19.3959C9.90602 19.3286 10.111 19.2306 10.3052 19.1265L11.6513 20.1061L13.0218 18.7347L12.8382 18.4653L12.0551 17.3755C12.1575 17.1689 12.2554 16.9653 12.3243 16.7633L13.6458 16.5306L13.964 16.4694V14.5469L12.312 14.302C12.2447 14.0908 12.1591 13.8842 12.0551 13.6898L12.8382 12.6122L13.0218 12.3429L12.8015 12.1102L11.896 11.1673L11.6635 10.9224L11.3821 11.1184L10.3052 11.902C10.0987 11.7995 9.89531 11.7015 9.69341 11.6327L9.49762 10.3592L9.44867 10.0286H7.5153ZM8.18831 10.8122H8.77566L8.99592 12.2082L9.21618 12.2816C9.56798 12.3995 9.89684 12.5097 10.1584 12.6735L10.3787 12.8082L10.5867 12.6612L11.5656 11.951L12.0061 12.4163L11.2964 13.4082L11.1373 13.6163L11.2842 13.8367C11.4601 14.1184 11.5977 14.4444 11.6635 14.7429L11.7247 15L11.9816 15.0367L13.1808 15.2204V15.8204L11.9816 16.0286L11.7492 16.0653L11.6757 16.2857C11.558 16.6378 11.4478 16.9668 11.2842 17.2286L11.1373 17.449L11.2964 17.6571L12.0061 18.649L11.5656 19.0776L10.5867 18.3673L10.3787 18.2204L10.1584 18.3551C9.87695 18.5311 9.55116 18.6689 9.25289 18.7347L9.00816 18.7959L8.95921 19.0531L8.75119 20.2163H8.1516L7.93134 18.8204L7.71108 18.7469C7.35928 18.6291 7.03042 18.5189 6.76886 18.3551L6.54861 18.2204L6.34058 18.3673L5.34942 19.0408L4.92114 18.6122L5.61863 17.6694L5.78994 17.449L5.6431 17.2286C5.4672 16.9469 5.32954 16.6332 5.26377 16.3347L5.20258 16.0776L4.94562 16.0286L3.78314 15.8204V15.2082L4.94562 15L5.17811 14.951L5.25153 14.7429C5.36931 14.3908 5.47944 14.0617 5.6431 13.8L5.7777 13.5796L5.63086 13.3714L4.95785 12.3796L5.39837 11.951L6.37729 12.6612L6.58532 12.8082L6.80557 12.6735C7.08702 12.4974 7.41281 12.3597 7.71108 12.2939L7.96805 12.2327L8.00476 11.9755L8.18831 10.8122ZM8.48199 13.5551C7.4067 13.5551 6.52413 14.4383 6.52413 15.5143C6.52413 16.5903 7.4067 17.4735 8.48199 17.4735C9.55727 17.4735 10.4398 16.5903 10.4398 15.5143C10.4398 14.4383 9.55727 13.5551 8.48199 13.5551ZM8.48199 14.3388C9.13052 14.3388 9.6567 14.8653 9.6567 15.5143C9.6567 16.1633 9.13052 16.6898 8.48199 16.6898C7.83345 16.6898 7.30727 16.1633 7.30727 15.5143C7.30727 14.8653 7.83345 14.3388 8.48199 14.3388Z" fill="#FEFFDE"/>
</g>
<defs>
<clipPath id="clip0_119_11">
<rect width="25" height="25" fill="white"/>
</clipPath>
</defs>
</svg>
