<svg xmlns="http://www.w3.org/2000/svg" width="26.002" height="26.002" viewBox="0 0 26.002 26.002">
  <g id="Group_22938" data-name="Group 22938" transform="translate(2634.262 -2357.189)">
    <g id="Group_22937" data-name="Group 22937" transform="translate(-56.394 -20.975)">
      <g id="Group_22928" data-name="Group 22928" transform="translate(-100.481 77.863)">
        <g id="Group_22926" data-name="Group 22926" transform="translate(-2474.196 2254.302)">
          <g id="Group_22924" data-name="Group 22924" transform="translate(-1.192 0)">
            <g id="Group_22925" data-name="Group 22925" transform="translate(-1 46)">
              <g id="Group_22923" data-name="Group 22923" transform="translate(-1)">
                <rect id="Rectangle_4517" data-name="Rectangle 4517" width="26.002" height="26.002" rx="4" fill="rgba(207,255,4,0.24)"/>
              </g>
            </g>
          </g>
        </g>
      </g>
    </g>
    <path id="Path_38" data-name="Path 38" d="M516.03,251.425H522.5v-.231q0-4.678,0-9.356a1.339,1.339,0,0,0-.034-.328.563.563,0,0,0-.587-.456c-.424,0-.847,0-1.271,0h-8.166c-.438,0-.573.1-.721.508a.441.441,0,1,1-.848-.244,1.481,1.481,0,0,1,1.462-1.155c.778,0,1.555,0,2.333,0h7.082a1.51,1.51,0,0,1,1.634,1.63c0,.636,0,1.273,0,1.909v.251h.264c.979,0,1.958.006,2.937,0a.571.571,0,0,1,.592.385c.519,1.161,1.053,2.314,1.573,3.474a1.118,1.118,0,0,1,.1.437c.008,1.169.005,2.337,0,3.506,0,.428-.143.565-.579.566h-.4a2.245,2.245,0,0,1-4.387.01h-7.456a2.244,2.244,0,0,1-4.384-.01c-.216,0-.437,0-.658,0a1.5,1.5,0,0,1-1.089-.465,1.481,1.481,0,0,1-.407-1.106c.01-.214.033-.427.056-.64a.451.451,0,0,1,.482-.44.445.445,0,0,1,.4.511c-.012.186-.039.371-.051.557a.613.613,0,0,0,.655.7c.2,0,.4,0,.617,0a2.262,2.262,0,0,1,1-1.426,2.165,2.165,0,0,1,1.244-.345A2.277,2.277,0,0,1,516.03,251.425Zm7.381-6.575v6.582l.057.017a1.966,1.966,0,0,0,.077-.188,2.212,2.212,0,0,1,2.656-1.529,2.164,2.164,0,0,1,1.609,1.526,1.707,1.707,0,0,0,.088.189l.054-.02v-.975c-.346-.021-.465-.12-.489-.395-.044-.5.042-.623.494-.721v-.767c-.046-.011-.085-.023-.125-.03a4.5,4.5,0,0,1-3.8-3.3c-.13-.415-.119-.419-.555-.4A.513.513,0,0,0,523.411,244.85Zm-9.576,5.7a1.333,1.333,0,0,0-1.231.824,1.32,1.32,0,0,0,.3,1.445,1.339,1.339,0,0,0,1.458.276,1.324,1.324,0,0,0-.525-2.545Zm11.846,0a1.334,1.334,0,0,0-1.237.817,1.319,1.319,0,0,0,.29,1.447,1.339,1.339,0,0,0,1.457.283,1.324,1.324,0,0,0-.51-2.547Zm2-2.948c-.036-.085-.061-.147-.089-.209-.294-.647-.586-1.294-.883-1.939-.095-.206-.15-.48-.313-.588s-.428-.03-.65-.032c-.293,0-.587,0-.884,0a3.626,3.626,0,0,0,2.818,2.768Z" transform="translate(-3138.332 2122.005)" fill="#ffcf00"/>
    <path id="Path_39" data-name="Path 39" d="M594.511,288.8c-.411,0-.821,0-1.232,0-.278,0-.389-.158-.356-.478.09-.852.178-1.705.26-2.559a.675.675,0,0,1,.232-.486c.373-.321.734-.662,1.108-.981a.489.489,0,0,1,.294-.117c.821-.006,1.642,0,2.463,0,.252,0,.368.145.339.435q-.133,1.35-.274,2.7a.515.515,0,0,1-.18.353q-.562.491-1.116,1a.485.485,0,0,1-.349.137C595.305,288.8,594.908,288.8,594.511,288.8Zm1.035-.68.219-2.141h-2.017l-.219,2.141Zm.625-.412c.21-.187.393-.346.571-.512a.219.219,0,0,0,.044-.122c.026-.222.049-.446.072-.669.037-.365.072-.73.112-1.127-.208.185-.394.349-.577.517a.165.165,0,0,0-.037.1C596.294,286.48,596.235,287.071,596.171,287.708Zm-1.812-2.424a.321.321,0,0,0,.06.018h1.5a.125.125,0,0,0,.078-.014c.157-.134.312-.272.494-.432-.055-.006-.071-.009-.088-.009l-1.474-.006a.144.144,0,0,0-.09.017c-.158.135-.312.275-.481.426Z" transform="translate(-3214.533 2081.387)" fill="#ffcf00"/>
    <path id="Path_40" data-name="Path 40" d="M527.845,280.842c-1.152,0-2.3.006-3.455,0-.865-.006-1.376-.326-1.05-.643a1.393,1.393,0,0,1,.957-.27q3.575-.006,7.149,0c.631,0,1.062.2,1.076.445s-.428.46-1.078.465c-1.2.009-2.4,0-3.6,0Z" transform="translate(-3155.487 2087.015)" fill="#ffcf00"/>
    <path id="Path_40-2" data-name="Path 40" d="M527.368,280.748c-1.032,0-2.065.005-3.1,0-.776-.005-1.234-.293-.941-.577a1.248,1.248,0,0,1,.858-.242q3.2-.005,6.408,0c.566,0,.952.176.964.4s-.384.413-.967.418c-1.075.008-2.15,0-3.225,0Z" transform="translate(-3154.176 2089.44)" fill="#ffcf00"/>
    <path id="Path_40-3" data-name="Path 40" d="M527.368,280.748c-1.032,0-2.065.005-3.1,0-.776-.005-1.234-.293-.941-.577a1.248,1.248,0,0,1,.858-.242q3.2-.005,6.408,0c.566,0,.952.176.964.4s-.384.413-.967.418c-1.075.008-2.15,0-3.225,0Z" transform="translate(-3153.176 2085.543)" fill="#ffcf00"/>
  </g>
</svg>
