<svg xmlns="http://www.w3.org/2000/svg" width="26.002" height="26.002" viewBox="0 0 26.002 26.002">
  <g id="Group_22933" data-name="Group 22933" transform="translate(2561.528 -2281.679)">
    <g id="Group_22929" data-name="Group 22929" transform="translate(145.778 -77.799)">
      <g id="Group_22922" data-name="Group 22922" transform="translate(-2704.113 2362.354)">
        <g id="Group11" transform="translate(0 0)">
          <path id="Path_2" data-name="Path 2" d="M557.038,202.355a2.555,2.555,0,0,1-.214.353.806.806,0,0,1-.649.272c-.546,0-1.093,0-1.639,0a.212.212,0,0,0-.24.164,6.559,6.559,0,0,1-4.861,4.277,6.749,6.749,0,0,1-8.053-4.7,6.655,6.655,0,0,1,5.373-8.3,6.879,6.879,0,0,1,3.669.381c.033.013.067.024.1.035,0,0,.011,0,.017,0a7.024,7.024,0,0,1,.071-.7,2.605,2.605,0,0,1,2.209-2.088.442.442,0,0,0,.081-.03h.606a6.367,6.367,0,0,1,.811.245,2.614,2.614,0,0,1,.915,4.091c-.4.493-.8.985-1.205,1.472a.2.2,0,0,0-.028.26c.115.242.22.49.312.742.083.228.144.464.217.7h.63a1.462,1.462,0,0,1,1.526,1.178c.113.438.235.875.352,1.312Zm-11.761-4.567a.542.542,0,0,0-.07-.012c-.814,0-1.628,0-2.442,0a.263.263,0,0,0-.182.123,5.848,5.848,0,0,0,0,6.11.22.22,0,0,0,.224.125c.475-.006.951,0,1.426,0h1.052A8.6,8.6,0,0,1,545.277,197.788Zm1.334,4.01c.065.128.124.23.168.337a.4.4,0,0,0,.427.264c.784-.01,1.568-.007,2.352,0a.28.28,0,0,0,.292-.163.7.7,0,0,1,.653-.41c.766,0,1.532,0,2.3,0a.656.656,0,0,1,.645.438.181.181,0,0,0,.205.134c.826,0,1.651,0,2.477,0a.681.681,0,0,0,.124,0,.213.213,0,0,0,.188-.252c-.017-.249-.062-.313-.226-.314-.4,0-.8,0-1.194,0a.881.881,0,0,1-.928-.9c0-.169,0-.338,0-.507v-.333h-.244q-2.78,0-5.56,0a.666.666,0,0,1-.3-.076c-.594-.318-1.187-.637-1.77-.973a1.084,1.084,0,0,0-.646-.092v1.145c.293,0,.572-.006.851,0a.58.58,0,0,1,.6.6c0,.128-.007.257,0,.385a.639.639,0,0,1-.416.726Zm6.6-3.9c.592-.739,1.184-1.445,1.736-2.179a1.83,1.83,0,0,0,.287-1.471,2.034,2.034,0,0,0-1.608-1.628,2.076,2.076,0,0,0-2.138.865,2.018,2.018,0,0,0,.023,2.3C552.051,196.5,552.63,197.18,553.213,197.9Zm-7.519.457a2.562,2.562,0,0,1,.311,0,.911.911,0,0,1,.306.075c.614.328,1.222.668,1.836,1a.68.68,0,0,0,.3.078c.594.007,1.187,0,1.781,0h.189a7.228,7.228,0,0,0-.507-1.673.16.16,0,0,0-.124-.064q-1.879-.005-3.758,0a.162.162,0,0,0-.125.06c-.073.162-.134.33-.208.52Zm5.96,4.038c-.356,0-.713-.006-1.069.005a.3.3,0,0,0-.214.111c-.514.824-1.02,1.654-1.524,2.483-.107.176-.035.292.176.294.327,0,.653.007.98,0a.381.381,0,0,0,.233-.094q1.3-1.26,2.584-2.533c.044-.043.094-.145.075-.172a.269.269,0,0,0-.189-.087c-.35-.008-.7,0-1.051,0Zm-6.344-.57a8.111,8.111,0,0,0,.548,2.165.208.208,0,0,0,.235.148c.706-.005,1.414-.025,2.119.007a.636.636,0,0,0,.716-.4,7.564,7.564,0,0,1,.462-.769h-.227c-.659,0-1.318,0-1.977,0a.928.928,0,0,1-.921-.561c-.08-.169-.164-.336-.256-.5a.192.192,0,0,0-.127-.091C545.7,201.82,545.517,201.826,545.311,201.826Zm8.233-3.413-.335.4c-.258-.316-.509-.617-.751-.925a.279.279,0,0,0-.254-.118c-.332.007-.665,0-1,0h-.644l.486,1.725h2.88ZM549.6,197.2a8.086,8.086,0,0,0-1.693-2.182,8.116,8.116,0,0,0-1.7,2.182Zm-2.483-2.241c-1.383.083-3.711,1.387-4.005,2.247.751,0,1.5,0,2.245,0a.274.274,0,0,0,.269-.167c.3-.48.606-.959.93-1.424A8.6,8.6,0,0,1,547.12,194.957Zm.009,12.015a1.051,1.051,0,0,0-.073-.1,8.468,8.468,0,0,1-1.459-2.057c-.051-.1-.122-.106-.215-.106-.707,0-1.413,0-2.12,0-.051,0-.1.006-.192.011A6.266,6.266,0,0,0,547.129,206.971Zm.8-.061.961-1.042a.806.806,0,0,1-.611-.434.782.782,0,0,1,.043-.716H546.21A8.21,8.21,0,0,0,547.925,206.91Zm.754-11.97c.057.067.093.112.132.153a6.654,6.654,0,0,1,1.2,1.658.692.692,0,0,0,.81.46,9.728,9.728,0,0,1,1.068-.008c-.092-.113-.16-.191-.221-.274-.282-.38-.583-.749-.834-1.149a.741.741,0,0,0-.4-.359c-.045-.015-.086-.039-.13-.057A6.182,6.182,0,0,0,548.679,194.941Zm4.087,9.767c-.389,0-.722-.007-1.054,0a.412.412,0,0,0-.244.1c-.284.264-.559.539-.834.812a.775.775,0,0,1-.573.239c-.1,0-.2.007-.3,0a.275.275,0,0,0-.265.128c-.223.287-.461.562-.694.841l-.114.14A6.326,6.326,0,0,0,552.765,204.707Zm1.918-4.607c0,.282,0,.556,0,.829a.285.285,0,0,0,.322.312c.314,0,.629,0,.944,0h.258c-.176-1.078-.59-1.216-1.525-1.142Zm-.924,2.9a.6.6,0,0,0-.631.168c-.2.239-.448.447-.673.669-.089.088-.177.177-.3.3.35,0,.649,0,.948,0a.131.131,0,0,0,.1-.056c.186-.352.368-.707.558-1.076Zm-7.331-1.768v-.552h-1.152v.552Z" transform="translate(-538.424 -191)" fill="#7dedff"/>
          <path id="Path_3" data-name="Path 3" d="M501.166,254.555c-.443-.063-.89-.107-1.329-.191a9.714,9.714,0,0,1-5.094-2.669,9.094,9.094,0,0,1-2.755-5.416,9.279,9.279,0,0,1,2.963-8.246c.3-.289.621-.557.933-.834a.362.362,0,0,1,.049-.028l.432.458c-.283.253-.555.494-.825.737a8.792,8.792,0,0,0,1.229,14.121,9.6,9.6,0,0,0,5.652,1.423,9.241,9.241,0,0,0,7.088-3.6c.141-.177.274-.361.429-.566l-1-.589,2.578-1.5v3l-1.006-.582c-.112.146-.219.282-.322.421a9.906,9.906,0,0,1-6.221,3.889c-.348.069-.706.093-1.059.139-.065.008-.128.023-.193.035Zm9.04-5.4.656.38v-.761Z" transform="translate(-491.898 -235.305)" fill="#7dedff"/>
          <path id="Path_27" data-name="Path 27" d="M764.818,216.78a1.075,1.075,0,1,1-1.111,1.073A1.091,1.091,0,0,1,764.818,216.78Zm.656,1.072a.661.661,0,1,0-.659.644.668.668,0,0,0,.469-.188A.627.627,0,0,0,765.475,217.852Z" transform="translate(-750.046 -213.915)" fill="#7dedff"/>
          <g id="Group_22932" data-name="Group 22932" transform="translate(9.901 9.713)">
            <path id="Path_26" data-name="Path 26" d="M776.323,378.923v-.845h.937v.845Z" transform="translate(-772.392 -378.078)" fill="#7dedff"/>
            <path id="Path_26-2" data-name="Path 26" d="M776.323,378.923v-.845h.964v.845Z" transform="translate(-774.088 -378.078)" fill="#7dedff"/>
            <path id="Path_26-3" data-name="Path 26" d="M776.323,378.923v-.845h1.035v.845Z" transform="translate(-775.873 -378.078)" fill="#7dedff"/>
          </g>
        </g>
      </g>
    </g>
    <g id="Group_22928" data-name="Group 22928" transform="translate(-84.14 -18.622)">
      <g id="Group_22926" data-name="Group 22926" transform="translate(-2474.196 2254.302)">
        <g id="Group_22924" data-name="Group 22924" transform="translate(-1.192 0)">
          <g id="Group_22925" data-name="Group 22925" transform="translate(-1 46)">
            <g id="Group_22923" data-name="Group 22923" transform="translate(-1)">
              <rect id="Rectangle_4517" data-name="Rectangle 4517" width="26.002" height="26.002" rx="4" fill="rgba(124,131,253,0.19)"/>
            </g>
          </g>
        </g>
      </g>
    </g>
  </g>
</svg>
