<svg width="25" height="25" viewBox="0 0 25 25" fill="none" xmlns="http://www.w3.org/2000/svg">
<path d="M21.1541 0H3.84586C1.72185 0 0 1.72185 0 3.84586V21.1541C0 23.2782 1.72185 25 3.84586 25H21.1541C23.2782 25 25 23.2782 25 21.1541V3.84586C25 1.72185 23.2782 0 21.1541 0Z" fill="#CFFF04" fill-opacity="0.24"/>
<path d="M10.4107 6.30318C9.31255 8.79309 9.31255 8.79309 6.58132 9.16658C4.27244 9.4467 4.21612 9.94468 6.24343 11.9366L7.87654 13.5551L7.5105 16.0761C7.28524 17.4767 7.22893 18.7216 7.34156 18.8461C7.42603 18.9706 8.496 18.5349 9.65044 17.9124L11.7904 16.7297L13.5643 17.8502C15.9858 19.3441 16.3518 19.313 16.1266 17.6323C15.5071 13.3683 15.4226 13.804 17.2247 11.781C18.0976 10.785 18.7733 9.85131 18.6607 9.66456C18.5762 9.50894 17.647 9.25995 16.6052 9.13546C15.5353 9.01096 14.4934 8.79309 14.2682 8.6686C14.0429 8.51298 13.3953 7.42364 12.8603 6.20981C12.3535 4.99597 11.7904 4.00001 11.6777 4.00001C11.5651 4.00001 10.9738 5.0271 10.4107 6.30318ZM12.6914 7.67263C13.508 9.54007 13.508 9.57119 14.944 9.75794C17.5907 10.1314 17.5907 10.1003 16.0702 11.8121L14.7187 13.3372L15.0003 15.5159C15.1411 16.6986 15.2255 17.6945 15.1974 17.6945C15.1411 17.6945 14.3245 17.2588 13.3672 16.7297L11.6214 15.7649L9.96016 16.7608C9.05914 17.3211 8.27074 17.6945 8.21443 17.6323C8.15811 17.57 8.24258 16.5741 8.41152 15.3914L8.72125 13.3061L7.36971 11.781C5.84923 10.0692 5.70845 10.287 8.63678 9.69569C9.84753 9.4467 9.96016 9.35332 10.7486 7.54814C11.2272 6.48992 11.6496 5.6807 11.7341 5.74295C11.8185 5.77407 12.2409 6.64554 12.6914 7.67263Z" fill="#FFCF00"/>
<path d="M6.38422 4.71585C6.38422 4.93372 6.75026 5.52507 7.20077 5.99193C8.2989 7.14352 8.69309 6.45879 7.62313 5.21383C6.77841 4.24899 6.38422 4.09337 6.38422 4.71585Z" fill="#FFCF00"/>
<path d="M17.281 5.49395C16.2955 6.58328 15.9576 7.42363 16.4644 7.42363C16.746 7.42363 19.0549 4.84034 19.0549 4.5291C19.0549 3.96887 18.2383 4.40461 17.281 5.49395Z" fill="#FFCF00"/>
<path d="M17.0839 14.6755C17.0839 15.2046 20.6317 17.2899 20.9414 16.9787C21.223 16.6674 20.4909 16.045 18.717 15.0179C17.1684 14.1464 17.0839 14.1464 17.0839 14.6755Z" fill="#FFCF00"/>
<path d="M4.41322 15.7026C2.86458 16.6986 2.83643 16.6986 3.17431 17.0721C3.48404 17.4144 6.38422 15.7026 6.38422 15.2046C6.38422 14.7066 5.76476 14.8623 4.41322 15.7026Z" fill="#FFCF00"/>
<path d="M11.5651 18.4415C11.3117 19.2196 11.5933 21.834 11.9593 21.9896C12.2127 22.083 12.2972 21.5539 12.2972 20.06C12.2972 18.1614 11.9312 17.3522 11.5651 18.4415Z" fill="#FFCF00"/>
</svg>
