<svg width="25" height="25" viewBox="0 0 25 25" fill="none" xmlns="http://www.w3.org/2000/svg">
<g clip-path="url(#clip0_122_2)">
<path d="M21.4286 0H3.57143C1.59898 0 0 1.59898 0 3.57143V21.4286C0 23.401 1.59898 25 3.57143 25H21.4286C23.401 25 25 23.401 25 21.4286V3.57143C25 1.59898 23.401 0 21.4286 0Z" fill="#303148"/>
<path d="M10.1223 14.5777H7.69375C7.59366 14.5779 7.49773 14.6178 7.42695 14.6885C7.35617 14.7593 7.31631 14.8552 7.31607 14.9553V16.9518C7.31631 17.0519 7.35617 17.1478 7.42695 17.2186C7.49773 17.2893 7.59366 17.3292 7.69375 17.3294H10.1223C10.2224 17.3292 10.3183 17.2893 10.3891 17.2186C10.4599 17.1478 10.4998 17.0519 10.5 16.9518V14.9553C10.4998 14.8552 10.4599 14.7593 10.3891 14.6885C10.3183 14.6178 10.2224 14.5779 10.1223 14.5777ZM9.74464 16.5741H8.06429V15.333H9.74464V16.5741Z" fill="#7DD9FF"/>
<path d="M14.0848 14.5777H11.6562C11.5562 14.5779 11.4602 14.6178 11.3895 14.6885C11.3187 14.7593 11.2788 14.8552 11.2786 14.9553V16.9518C11.2788 17.0519 11.3187 17.1478 11.3895 17.2186C11.4602 17.2893 11.5562 17.3292 11.6562 17.3294H14.0848C14.1849 17.3292 14.2808 17.2893 14.3516 17.2186C14.4224 17.1478 14.4623 17.0519 14.4625 16.9518V14.9553C14.4623 14.8552 14.4224 14.7593 14.3516 14.6885C14.2808 14.6178 14.1849 14.5779 14.0848 14.5777ZM13.7071 16.5741H12.0268V15.333H13.7071V16.5741Z" fill="#7DD9FF"/>
<path d="M18.0554 14.5777H15.6268C15.5267 14.5779 15.4308 14.6178 15.36 14.6885C15.2892 14.7593 15.2493 14.8552 15.2491 14.9553V16.9518C15.2493 17.0519 15.2892 17.1478 15.36 17.2186C15.4308 17.2893 15.5267 17.3292 15.6268 17.3294H18.0554C18.1555 17.3292 18.2514 17.2893 18.3222 17.2186C18.3929 17.1478 18.4328 17.0519 18.433 16.9518V14.9553C18.4328 14.8552 18.3929 14.7593 18.3222 14.6885C18.2514 14.6178 18.1555 14.5779 18.0554 14.5777ZM17.6777 16.5741H15.9973V15.333H17.6777V16.5741Z" fill="#7DD9FF"/>
<path d="M22.1634 11.6259L20.8375 7.62497C20.813 7.54931 20.7653 7.48326 20.7012 7.43615C20.6371 7.38905 20.5599 7.36328 20.4803 7.36247H5.25802C5.17788 7.3607 5.09939 7.38549 5.0348 7.43296C4.9702 7.48044 4.92312 7.54795 4.90088 7.62497L3.56963 11.6259C3.53787 11.6799 3.52179 11.7418 3.5232 11.8044C3.52295 11.9054 3.56241 12.0025 3.63306 12.0746C3.70372 12.1468 3.79991 12.1883 3.90088 12.1901C4.41117 12.1996 4.89993 12.3974 5.2732 12.7455C5.32677 12.7991 5.38927 12.8535 5.45177 12.9071L5.44374 21.2634C5.44505 21.363 5.48359 21.4586 5.55177 21.5312C5.62365 21.6006 5.71971 21.6394 5.81963 21.6393H19.9125C20.0126 21.639 20.1085 21.5992 20.1793 21.5284C20.2501 21.4576 20.2899 21.3617 20.2902 21.2616V12.8982C20.3476 12.8535 20.4016 12.8045 20.4518 12.7518C20.831 12.4026 21.324 12.2028 21.8393 12.1893C21.9385 12.1845 22.0322 12.1418 22.1009 12.07C22.1697 11.9983 22.2083 11.9029 22.2089 11.8035C22.2057 11.7419 22.1902 11.6815 22.1634 11.6259ZM19.5348 20.8759H6.1982V19.358H19.5268L19.5348 20.8759ZM19.5348 18.6098H6.1982L6.20445 13.2982C6.41426 13.3626 6.6323 13.3963 6.85177 13.3982C7.14543 13.3988 7.43629 13.3412 7.70755 13.2287C7.9788 13.1162 8.22507 12.9511 8.43213 12.7428C8.81908 12.3835 9.32799 12.1845 9.85604 12.186C10.3841 12.1875 10.8919 12.3894 11.2768 12.7509C11.7012 13.1658 12.2712 13.3982 12.8647 13.3982C13.4583 13.3982 14.0283 13.1658 14.4527 12.7509C14.8385 12.3911 15.3459 12.1904 15.8734 12.1889C16.4009 12.1874 16.9095 12.3853 17.2973 12.7428C17.5045 12.9523 17.7516 13.1182 18.0239 13.2308C18.2963 13.3433 18.5884 13.4002 18.883 13.3982C19.1051 13.3957 19.3257 13.3621 19.5384 13.2982L19.5348 18.6098ZM19.9277 12.2035C19.8771 12.2534 19.8231 12.2997 19.7661 12.3419C19.7204 12.363 19.6788 12.3917 19.6428 12.4268C19.3602 12.6 19.0271 12.6723 18.698 12.6317C18.369 12.5912 18.0634 12.4402 17.8312 12.2035C17.3002 11.7129 16.6038 11.4404 15.8808 11.4404C15.1578 11.4404 14.4614 11.7129 13.9303 12.2035C13.6432 12.4776 13.2638 12.6343 12.867 12.6428C12.4662 12.6416 12.0818 12.484 11.7955 12.2035C11.2614 11.7089 10.5592 11.436 9.83124 11.4401C9.10975 11.4309 8.41401 11.708 7.89642 12.2107C7.76007 12.348 7.59786 12.4568 7.41916 12.531C7.24046 12.6052 7.04883 12.6432 6.85535 12.6428C6.59279 12.6423 6.3349 12.5734 6.10713 12.4428C6.06681 12.3985 6.01666 12.3642 5.9607 12.3428C5.90313 12.3012 5.84908 12.2549 5.7991 12.2044C5.41425 11.8436 4.93609 11.5977 4.41874 11.4946L5.5366 8.12586H20.2053L21.3232 11.4946C20.7997 11.5924 20.3153 11.8384 19.9277 12.2035Z" fill="#7DD9FF"/>
<rect x="7" y="7" width="12" height="2" fill="#303148"/>
<path d="M12.0127 2.08606C11.9419 2.15619 11.9169 2.24969 11.8919 2.50683C11.8586 2.88864 11.8211 3.01332 11.7294 3.01332C11.696 3.01332 11.496 3.08344 11.2835 3.16916C10.9752 3.29383 10.8877 3.31331 10.8377 3.27435C10.8002 3.25097 10.6543 3.13799 10.5085 3.025C10.1043 2.70942 10.096 2.71332 9.42925 3.33669C8.99589 3.73798 8.87505 3.87823 8.87505 3.95615C8.87505 4.02628 8.96672 4.16654 9.16257 4.38472L9.45008 4.71198L9.34174 4.90289C9.28341 5.01198 9.19174 5.20288 9.14173 5.33145L9.05006 5.56521L8.74588 5.59638C8.23751 5.64703 8.16668 5.66261 8.07917 5.74443C8.00833 5.81066 8 5.8769 8 6.53922C8 7.2444 8.00417 7.26778 8.09584 7.35349C8.17501 7.42752 8.25835 7.45089 8.52503 7.47037C9.07506 7.51323 9.05839 7.50933 9.1459 7.75868C9.1834 7.87945 9.26257 8.06257 9.31674 8.16386C9.37091 8.26516 9.41675 8.36646 9.41675 8.38594C9.41675 8.40931 9.32508 8.5262 9.21674 8.65087C8.92505 8.97813 8.86255 9.07943 8.88755 9.17683C8.92505 9.3054 10.0084 10.2989 10.1126 10.2989C10.2043 10.2989 10.3043 10.2366 10.671 9.94435L10.9002 9.75734L11.1418 9.87032C11.2752 9.93656 11.4835 10.0145 11.6044 10.0495C11.8544 10.1236 11.8461 10.108 11.9002 10.6612C11.9419 11.1171 11.9461 11.1171 12.9003 11.1171C13.8795 11.1171 13.817 11.1638 13.9003 10.3729C13.9253 10.1236 13.9295 10.1119 14.0504 10.0885C14.117 10.0768 14.3295 9.99889 14.517 9.91708L14.8587 9.76513L15.2088 10.034C15.6796 10.3963 15.6629 10.4002 16.3463 9.76124C16.9964 9.14566 16.9964 9.15346 16.6047 8.7171C16.4547 8.54957 16.3338 8.39763 16.3338 8.38204C16.3338 8.36256 16.388 8.24958 16.4547 8.1249C16.5213 8.00413 16.6005 7.82881 16.6297 7.7353C16.6588 7.6418 16.713 7.55219 16.7463 7.5366C16.7838 7.51712 16.9797 7.48985 17.1839 7.47427C17.4922 7.45089 17.5714 7.43141 17.6506 7.35349C17.7464 7.26388 17.7506 7.2483 17.7506 6.53922C17.7506 5.71716 17.7381 5.68599 17.4089 5.64703C17.3089 5.63534 17.1089 5.61197 16.963 5.59638L16.7005 5.56521L16.6088 5.33145C16.5588 5.20288 16.4672 5.01198 16.4088 4.90289L16.3005 4.71198L16.588 4.38472C16.7797 4.16654 16.8755 4.02628 16.8755 3.96005C16.8755 3.88213 16.7463 3.73798 16.3255 3.33669C15.6629 2.70942 15.6671 2.71332 15.2338 3.04448C15.0712 3.16916 14.9171 3.28214 14.8879 3.29773C14.8587 3.31331 14.7462 3.28604 14.6379 3.23539C14.5295 3.18084 14.3212 3.09903 14.1795 3.05228L13.9212 2.96656L13.8962 2.70553C13.8212 1.96139 13.8795 2.00035 12.8836 2.00035C12.1211 2.00035 12.0961 2.00424 12.0127 2.08606ZM13.3086 2.78735C13.3753 3.39123 13.392 3.41461 13.7795 3.50421C13.9128 3.53928 14.2129 3.65226 14.4462 3.76135C14.9379 3.99122 14.9212 3.99511 15.3254 3.67954C15.4671 3.57045 15.5963 3.48084 15.6129 3.48084C15.6338 3.48084 15.7671 3.59382 15.913 3.73018L16.1796 3.98343L15.9213 4.28342C15.7838 4.44705 15.6671 4.61848 15.6671 4.66523C15.6671 4.70809 15.7588 4.91847 15.8755 5.12886C15.988 5.33924 16.1005 5.60807 16.1296 5.72495C16.1963 5.99767 16.2796 6.07949 16.5297 6.10676C16.638 6.11845 16.8297 6.13793 16.9505 6.15351L17.1672 6.17689V6.5587V6.94051L16.7713 6.96778C16.4963 6.98726 16.3505 7.01454 16.2963 7.05739C16.2546 7.09635 16.1755 7.25609 16.1255 7.41583C16.0755 7.57556 15.9546 7.85218 15.8505 8.0275C15.7504 8.20672 15.6671 8.38594 15.6671 8.42879C15.6671 8.46775 15.788 8.64308 15.9338 8.81061L16.2005 9.11839L15.9171 9.38332L15.6296 9.64825L15.3171 9.41059C15.1129 9.25086 14.9712 9.16904 14.8962 9.16904C14.8379 9.16904 14.6546 9.23917 14.4879 9.32098C14.3212 9.4067 14.0212 9.52358 13.8212 9.57812C13.5878 9.64825 13.442 9.71059 13.4128 9.75734C13.3795 9.81968 13.292 10.3573 13.292 10.521C13.292 10.5599 13.1836 10.5716 12.8836 10.5716H12.4711L12.4294 10.1859C12.4086 9.97162 12.3669 9.76903 12.3378 9.73786C12.3044 9.7028 12.1502 9.64046 11.9836 9.59371C11.8211 9.54695 11.5294 9.43397 11.3294 9.34047C11.1335 9.24696 10.9252 9.16904 10.8668 9.16904C10.796 9.16904 10.6543 9.24696 10.4585 9.4028C10.296 9.53137 10.146 9.63656 10.1335 9.63656C10.0918 9.63656 9.58343 9.15735 9.58343 9.11839C9.58343 9.10281 9.69593 8.96255 9.83344 8.81061C10.1293 8.47944 10.1418 8.40542 9.94178 8.09374C9.86261 7.97296 9.7376 7.69634 9.6626 7.48206C9.57509 7.23271 9.49592 7.07687 9.44175 7.04181C9.39175 7.01454 9.17923 6.97947 8.97089 6.96389L8.58337 6.93662V6.5587V6.17689L8.78338 6.15351C8.89172 6.14183 9.07923 6.12235 9.20007 6.10676C9.47092 6.07949 9.55426 6.00157 9.62093 5.72495C9.6501 5.60807 9.7626 5.33924 9.87511 5.12886C9.99178 4.91847 10.0835 4.70809 10.0835 4.66523C10.0835 4.61848 9.96678 4.44705 9.82927 4.28342L9.57092 3.98343L9.85427 3.7146L10.1376 3.44967L10.4668 3.69902C10.646 3.83538 10.8335 3.94836 10.8835 3.94836C10.9293 3.94836 11.0627 3.89771 11.171 3.83148C11.396 3.70291 11.7877 3.54318 11.9794 3.50421C12.3544 3.42629 12.3961 3.37175 12.4378 2.88475L12.4669 2.54579H12.8753H13.2836L13.3086 2.78735Z" fill="#7DD9FF"/>
<path d="M12.267 3.88601C11.4294 4.06523 10.6585 4.62236 10.296 5.31586C10.0585 5.77559 9.98349 6.06779 9.98349 6.55869C9.98766 7.03401 10.0627 7.34569 10.2752 7.75087C10.8085 8.77163 12.0169 9.38331 13.217 9.24305C13.9212 9.16124 14.4171 8.93137 14.9421 8.44437C15.2255 8.18333 15.313 8.07035 15.4713 7.76256C15.7172 7.29114 15.813 6.86648 15.7797 6.38337C15.7088 5.2691 14.9088 4.31068 13.7629 3.96004C13.3629 3.83537 12.6628 3.8042 12.267 3.88601ZM13.4379 4.43536C14.4671 4.6886 15.2046 5.5652 15.2088 6.54311C15.2088 6.8392 15.0796 7.32231 14.9296 7.58335C14.7504 7.89503 14.3337 8.28073 14.0087 8.44047C13.6045 8.63917 13.292 8.71319 12.8712 8.71319C11.7586 8.7093 10.8335 7.99243 10.6002 6.94829C10.3585 5.8613 11.1502 4.70418 12.317 4.43925C12.6461 4.36523 13.1378 4.36523 13.4379 4.43536Z" fill="#7DD9FF"/>
</g>
<defs>
<clipPath id="clip0_122_2">
<rect width="25" height="25" fill="white"/>
</clipPath>
</defs>
</svg>
