<svg width="25" height="25" viewBox="0 0 25 25" fill="none" xmlns="http://www.w3.org/2000/svg">
<g clip-path="url(#clip0_123_63)">
<path d="M21.4286 0H3.57143C1.59898 0 0 1.59898 0 3.57143V21.4286C0 23.401 1.59898 25 3.57143 25H21.4286C23.401 25 25 23.401 25 21.4286V3.57143C25 1.59898 23.401 0 21.4286 0Z" fill="#303148"/>
<path d="M10.1223 12.5777H7.69375C7.59366 12.5779 7.49773 12.6178 7.42695 12.6885C7.35617 12.7593 7.31631 12.8552 7.31607 12.9553V14.9518C7.31631 15.0519 7.35617 15.1478 7.42695 15.2186C7.49773 15.2893 7.59366 15.3292 7.69375 15.3294H10.1223C10.2224 15.3292 10.3183 15.2893 10.3891 15.2186C10.4599 15.1478 10.4998 15.0519 10.5 14.9518V12.9553C10.4998 12.8552 10.4599 12.7593 10.3891 12.6885C10.3183 12.6178 10.2224 12.5779 10.1223 12.5777ZM9.74464 14.5741H8.06429V13.333H9.74464V14.5741Z" fill="#7DD9FF"/>
<path d="M14.0848 12.5777H11.6562C11.5562 12.5779 11.4602 12.6178 11.3895 12.6885C11.3187 12.7593 11.2788 12.8552 11.2786 12.9553V14.9518C11.2788 15.0519 11.3187 15.1478 11.3895 15.2186C11.4602 15.2893 11.5562 15.3292 11.6562 15.3294H14.0848C14.1849 15.3292 14.2808 15.2893 14.3516 15.2186C14.4224 15.1478 14.4623 15.0519 14.4625 14.9518V12.9553C14.4623 12.8552 14.4224 12.7593 14.3516 12.6885C14.2808 12.6178 14.1849 12.5779 14.0848 12.5777ZM13.7071 14.5741H12.0268V13.333H13.7071V14.5741Z" fill="#7DD9FF"/>
<path d="M18.0554 12.5777H15.6268C15.5267 12.5779 15.4308 12.6178 15.36 12.6885C15.2892 12.7593 15.2493 12.8552 15.2491 12.9553V14.9518C15.2493 15.0519 15.2892 15.1478 15.36 15.2186C15.4308 15.2893 15.5267 15.3292 15.6268 15.3294H18.0554C18.1554 15.3292 18.2514 15.2893 18.3222 15.2186C18.3929 15.1478 18.4328 15.0519 18.433 14.9518V12.9553C18.4328 12.8552 18.3929 12.7593 18.3222 12.6885C18.2514 12.6178 18.1554 12.5779 18.0554 12.5777ZM17.6777 14.5741H15.9973V13.333H17.6777V14.5741Z" fill="#7DD9FF"/>
<path d="M22.1634 9.62586L20.8375 5.62497C20.813 5.54931 20.7653 5.48326 20.7012 5.43615C20.6371 5.38905 20.5599 5.36328 20.4803 5.36247H5.25802C5.17788 5.3607 5.09939 5.38549 5.0348 5.43296C4.9702 5.48044 4.92312 5.54795 4.90088 5.62497L3.56963 9.62586C3.53787 9.67992 3.52179 9.74175 3.5232 9.80443C3.52295 9.90542 3.56241 10.0025 3.63306 10.0746C3.70372 10.1468 3.79991 10.1883 3.90088 10.1901C4.41117 10.1996 4.89993 10.3974 5.2732 10.7455C5.32677 10.7991 5.38927 10.8535 5.45177 10.9071L5.44374 19.2634C5.44505 19.363 5.48359 19.4586 5.55177 19.5312C5.62365 19.6006 5.71971 19.6394 5.81963 19.6393H19.9125C20.0126 19.639 20.1085 19.5992 20.1793 19.5284C20.2501 19.4576 20.2899 19.3617 20.2902 19.2616V10.8982C20.3476 10.8535 20.4016 10.8045 20.4518 10.7518C20.831 10.4026 21.324 10.2028 21.8393 10.1893C21.9385 10.1845 22.0322 10.1418 22.1009 10.07C22.1697 9.99829 22.2083 9.90292 22.2089 9.80354C22.2057 9.74188 22.1902 9.68147 22.1634 9.62586ZM19.5348 18.8759H6.1982V17.358H19.5268L19.5348 18.8759ZM19.5348 16.6098H6.1982L6.20445 11.2982C6.41426 11.3626 6.6323 11.3963 6.85177 11.3982C7.14543 11.3988 7.43629 11.3412 7.70755 11.2287C7.9788 11.1162 8.22507 10.9511 8.43213 10.7428C8.81908 10.3835 9.32799 10.1845 9.85604 10.186C10.3841 10.1875 10.8919 10.3894 11.2768 10.7509C11.7012 11.1658 12.2712 11.3982 12.8647 11.3982C13.4583 11.3982 14.0283 11.1658 14.4527 10.7509C14.8385 10.3911 15.3459 10.1904 15.8734 10.1889C16.4009 10.1874 16.9095 10.3853 17.2973 10.7428C17.5045 10.9523 17.7516 11.1182 18.0239 11.2308C18.2963 11.3433 18.5884 11.4002 18.883 11.3982C19.1051 11.3957 19.3257 11.3621 19.5384 11.2982L19.5348 16.6098ZM19.9277 10.2035C19.8771 10.2534 19.8231 10.2997 19.7661 10.3419C19.7204 10.363 19.6788 10.3917 19.6428 10.4268C19.3602 10.6 19.0271 10.6723 18.698 10.6317C18.369 10.5912 18.0634 10.4402 17.8312 10.2035C17.3002 9.7129 16.6038 9.44042 15.8808 9.44042C15.1578 9.44042 14.4614 9.7129 13.9303 10.2035C13.6432 10.4776 13.2638 10.6343 12.867 10.6428C12.4662 10.6416 12.0818 10.484 11.7955 10.2035C11.2614 9.70893 10.5592 9.43601 9.83124 9.44015C9.10975 9.43088 8.41401 9.70796 7.89642 10.2107C7.76007 10.348 7.59786 10.4568 7.41916 10.531C7.24046 10.6052 7.04883 10.6432 6.85535 10.6428C6.59279 10.6423 6.3349 10.5734 6.10713 10.4428C6.06681 10.3985 6.01666 10.3642 5.9607 10.3428C5.90313 10.3012 5.84908 10.2549 5.79909 10.2044C5.41425 9.84362 4.93609 9.59774 4.41874 9.49461L5.5366 6.12586H20.2053L21.3232 9.49461C20.7997 9.59235 20.3153 9.83842 19.9277 10.2035Z" fill="#7DD9FF"/>
</g>
<defs>
<clipPath id="clip0_123_63">
<rect width="25" height="25" fill="white"/>
</clipPath>
</defs>
</svg>
