<svg width="759" height="796" viewBox="0 0 759 796" fill="none" xmlns="http://www.w3.org/2000/svg">
<mask id="mask0_16165_11226" style="mask-type:luminance" maskUnits="userSpaceOnUse" x="0" y="0" width="759" height="796">
<path d="M750.5 496.5C749.5 593.5 705.667 675.5 619 742.5C532.333 809.5 444.667 812.667 356 752C267.333 691.333 181 635.5 97 584.5C13 533.5 -16.0001 460.333 9.99996 365C36 269.667 72.667 182.5 120 103.5C167.333 24.5 235.833 -9.167 325.5 2.5C415.167 14.167 510.667 24.5 612 33.5C713.333 42.5 762 97.667 758 199C754 300.333 751.5 399.5 750.5 496.5Z" fill="white"/>
</mask>
<g mask="url(#mask0_16165_11226)">
<path d="M750.5 496.5C749.5 593.5 705.667 675.5 619 742.5C532.333 809.5 444.667 812.667 356 752C267.333 691.333 181 635.5 97 584.5C13 533.5 -16.0001 460.333 9.99996 365C36 269.667 72.667 182.5 120 103.5C167.333 24.5 235.833 -9.167 325.5 2.5C415.167 14.167 510.667 24.5 612 33.5C713.333 42.5 762 97.667 758 199C754 300.333 751.5 399.5 750.5 496.5Z" fill="#814686"/>
</g>
</svg>
