<svg width="865" height="840" viewBox="0 0 865 840" fill="none" xmlns="http://www.w3.org/2000/svg">
<mask id="mask0_16165_11220" style="mask-type:luminance" maskUnits="userSpaceOnUse" x="0" y="0" width="865" height="840">
<path d="M829.5 565.5C786.5 666.5 717 736.167 621 774.5C525 812.833 423.167 834.333 315.5 839C207.833 843.667 129.5 798 80.5 702C31.5 606 4.833 509.167 0.499997 411.5C-3.8333 313.833 26.833 228.667 92.5 156C158.167 83.333 239.167 35.667 335.5 13C431.833 -9.6667 531 -2 633 36C735 74 804 146.5 840 253.5C876 360.5 872.5 464.5 829.5 565.5Z" fill="white"/>
</mask>
<g mask="url(#mask0_16165_11220)">
<path d="M829.5 565.5C786.5 666.5 717 736.167 621 774.5C525 812.833 423.167 834.333 315.5 839C207.833 843.667 129.5 798 80.5 702C31.5 606 4.833 509.167 0.499997 411.5C-3.8333 313.833 26.833 228.667 92.5 156C158.167 83.333 239.167 35.667 335.5 13C431.833 -9.6667 531 -2 633 36C735 74 804 146.5 840 253.5C876 360.5 872.5 464.5 829.5 565.5Z" fill="#814686"/>
</g>
</svg>
