<svg width="20" height="21" viewBox="0 0 20 21" fill="none" xmlns="http://www.w3.org/2000/svg">
<path d="M7.63314 10.1834C7.60814 10.1834 7.59147 10.1834 7.56647 10.1834C7.52481 10.175 7.46647 10.175 7.41647 10.1834C4.9998 10.1084 3.1748 8.20835 3.1748 5.86669C3.1748 3.48335 5.11647 1.54169 7.4998 1.54169C9.88314 1.54169 11.8248 3.48335 11.8248 5.86669C11.8165 8.20835 9.98314 10.1084 7.65814 10.1834C7.6498 10.1834 7.64147 10.1834 7.63314 10.1834ZM7.4998 2.79169C5.80814 2.79169 4.4248 4.17502 4.4248 5.86669C4.4248 7.53335 5.7248 8.87502 7.38314 8.93335C7.43314 8.92502 7.54147 8.92502 7.64981 8.93335C9.28314 8.85835 10.5665 7.51669 10.5748 5.86669C10.5748 4.17502 9.19147 2.79169 7.4998 2.79169Z" fill="url(#paint0_linear_1467_4989)"/>
<path d="M13.783 10.2916C13.758 10.2916 13.733 10.2916 13.708 10.2833C13.3663 10.3166 13.0163 10.075 12.983 9.73331C12.9496 9.39165 13.158 9.08331 13.4996 9.04165C13.5996 9.03331 13.708 9.03331 13.7996 9.03331C15.0163 8.96665 15.9663 7.96665 15.9663 6.74165C15.9663 5.47498 14.9413 4.44998 13.6746 4.44998C13.333 4.45831 13.0496 4.17498 13.0496 3.83331C13.0496 3.49165 13.333 3.20831 13.6746 3.20831C15.6246 3.20831 17.2163 4.79998 17.2163 6.74998C17.2163 8.66665 15.7163 10.2166 13.808 10.2916C13.7996 10.2916 13.7913 10.2916 13.783 10.2916Z" fill="url(#paint1_linear_1467_4989)"/>
<path d="M7.64134 19.2916C6.00801 19.2916 4.36634 18.875 3.12467 18.0416C1.96634 17.275 1.33301 16.225 1.33301 15.0833C1.33301 13.9416 1.96634 12.8833 3.12467 12.1083C5.62467 10.45 9.67467 10.45 12.158 12.1083C13.308 12.875 13.9497 13.925 13.9497 15.0666C13.9497 16.2083 13.3163 17.2666 12.158 18.0416C10.908 18.875 9.27467 19.2916 7.64134 19.2916ZM3.81634 13.1583C3.01634 13.6916 2.58301 14.375 2.58301 15.0916C2.58301 15.8 3.02467 16.4833 3.81634 17.0083C5.89134 18.4 9.39134 18.4 11.4663 17.0083C12.2663 16.475 12.6997 15.7916 12.6997 15.075C12.6997 14.3666 12.258 13.6833 11.4663 13.1583C9.39134 11.775 5.89134 11.775 3.81634 13.1583Z" fill="url(#paint2_linear_1467_4989)"/>
<path d="M15.2835 17.7917C14.9918 17.7917 14.7335 17.5917 14.6751 17.2917C14.6085 16.95 14.8251 16.625 15.1585 16.55C15.6835 16.4417 16.1668 16.2333 16.5418 15.9417C17.0168 15.5833 17.2751 15.1333 17.2751 14.6583C17.2751 14.1833 17.0168 13.7333 16.5501 13.3833C16.1835 13.1 15.7251 12.9 15.1835 12.775C14.8501 12.7 14.6335 12.3667 14.7085 12.025C14.7835 11.6917 15.1168 11.475 15.4585 11.55C16.1751 11.7083 16.8001 11.9917 17.3085 12.3833C18.0835 12.9667 18.5251 13.7917 18.5251 14.6583C18.5251 15.525 18.0751 16.35 17.3001 16.9417C16.7835 17.3417 16.1335 17.6333 15.4168 17.775C15.3668 17.7917 15.3251 17.7917 15.2835 17.7917Z" fill="url(#paint3_linear_1467_4989)"/>
<defs>
<linearGradient id="paint0_linear_1467_4989" x1="2.21936" y1="9.52133" x2="9.07071" y2="-0.36662" gradientUnits="userSpaceOnUse">
<stop stop-color="#691DAA"/>
<stop offset="1" stop-color="#E00076"/>
</linearGradient>
<linearGradient id="paint1_linear_1467_4989" x1="12.5115" y1="9.749" x2="18.4444" y2="4.63238" gradientUnits="userSpaceOnUse">
<stop stop-color="#691DAA"/>
<stop offset="1" stop-color="#E00076"/>
</linearGradient>
<linearGradient id="paint2_linear_1467_4989" x1="-0.060573" y1="18.6461" x2="5.38276" y2="6.89589" gradientUnits="userSpaceOnUse">
<stop stop-color="#691DAA"/>
<stop offset="1" stop-color="#E00076"/>
</linearGradient>
<linearGradient id="paint3_linear_1467_4989" x1="14.2365" y1="17.3124" x2="19.4987" y2="12.629" gradientUnits="userSpaceOnUse">
<stop stop-color="#691DAA"/>
<stop offset="1" stop-color="#E00076"/>
</linearGradient>
</defs>
</svg>
