<svg width="40" height="40" viewBox="0 0 40 40" fill="none" xmlns="http://www.w3.org/2000/svg">
<g clip-path="url(#clip0_1467_5142)">
<path d="M2.49952 2.72166C-0.643815 5.98666 -0.00048171 9.455 -0.00048171 19.9917C-0.00048171 28.7417 -1.52715 37.5133 6.46285 39.5783C8.95785 40.22 31.0645 40.22 33.5562 39.575C36.8829 38.7167 39.5895 36.0183 39.9595 31.3133C40.0112 30.6567 40.0112 9.33833 39.9579 8.66833C39.5645 3.65666 36.4795 0.768329 32.4145 0.183329C31.4828 0.0483293 31.2962 0.00832928 26.5162 -4.05312e-06C9.56118 0.00832928 5.84452 -0.746671 2.49952 2.72166Z" fill="url(#paint0_linear_1467_5142)"/>
<path d="M19.9967 5.23166C13.945 5.23166 8.19835 4.69333 6.00335 10.3267C5.09668 12.6533 5.22835 15.675 5.22835 20.0017C5.22835 23.7983 5.10668 27.3667 6.00335 29.675C8.19335 35.3117 13.9867 34.7717 19.9933 34.7717C25.7883 34.7717 31.7634 35.375 33.985 29.675C34.8934 27.325 34.76 24.3483 34.76 20.0017C34.76 14.2317 35.0784 10.5067 32.28 7.70999C29.4467 4.87666 25.615 5.23166 19.99 5.23166H19.9967ZM18.6733 7.89333C31.2967 7.87333 32.9033 6.47 32.0167 25.965C31.7017 32.86 26.4517 32.1033 19.9983 32.1033C8.23168 32.1033 7.89335 31.7667 7.89335 19.995C7.89335 8.08666 8.82668 7.89999 18.6733 7.88999V7.89333ZM27.88 10.345C26.9017 10.345 26.1083 11.1383 26.1083 12.1167C26.1083 13.095 26.9017 13.8883 27.88 13.8883C28.8583 13.8883 29.6517 13.095 29.6517 12.1167C29.6517 11.1383 28.8583 10.345 27.88 10.345ZM19.9967 12.4167C15.8083 12.4167 12.4133 15.8133 12.4133 20.0017C12.4133 24.19 15.8083 27.585 19.9967 27.585C24.185 27.585 27.5784 24.19 27.5784 20.0017C27.5784 15.8133 24.185 12.4167 19.9967 12.4167ZM19.9967 15.0783C26.505 15.0783 26.5133 24.925 19.9967 24.925C13.49 24.925 13.48 15.0783 19.9967 15.0783Z" fill="white"/>
</g>
<defs>
<linearGradient id="paint0_linear_1467_5142" x1="2.57622" y1="37.4452" x2="39.752" y2="5.26996" gradientUnits="userSpaceOnUse">
<stop stop-color="#FFDD55"/>
<stop offset="0.5" stop-color="#FF543E"/>
<stop offset="1" stop-color="#C837AB"/>
</linearGradient>
<clipPath id="clip0_1467_5142">
<rect width="40" height="40" fill="white"/>
</clipPath>
</defs>
</svg>
