<svg width="20" height="21" viewBox="0 0 20 21" fill="none" xmlns="http://www.w3.org/2000/svg">
<path d="M10.0003 19.5084C9.42533 19.5084 8.88366 19.2167 8.50033 18.7084L7.25033 17.0417C7.22533 17.0084 7.12533 16.9667 7.08366 16.9584H6.66699C3.19199 16.9584 1.04199 16.0167 1.04199 11.3334V7.16669C1.04199 3.48335 2.98366 1.54169 6.66699 1.54169H13.3337C17.017 1.54169 18.9587 3.48335 18.9587 7.16669V11.3334C18.9587 15.0167 17.017 16.9584 13.3337 16.9584H12.917C12.8503 16.9584 12.792 16.9917 12.7503 17.0417L11.5003 18.7084C11.117 19.2167 10.5753 19.5084 10.0003 19.5084ZM6.66699 2.79169C3.68366 2.79169 2.29199 4.18335 2.29199 7.16669V11.3334C2.29199 15.1 3.58366 15.7084 6.66699 15.7084H7.08366C7.50866 15.7084 7.99199 15.95 8.25033 16.2917L9.50033 17.9584C9.79199 18.3417 10.2087 18.3417 10.5003 17.9584L11.7503 16.2917C12.0253 15.925 12.4587 15.7084 12.917 15.7084H13.3337C16.317 15.7084 17.7087 14.3167 17.7087 11.3334V7.16669C17.7087 4.18335 16.317 2.79169 13.3337 2.79169H6.66699Z" fill="url(#paint0_linear_1467_5065)"/>
<path d="M14.1663 7.79169H5.83301C5.49134 7.79169 5.20801 7.50835 5.20801 7.16669C5.20801 6.82502 5.49134 6.54169 5.83301 6.54169H14.1663C14.508 6.54169 14.7913 6.82502 14.7913 7.16669C14.7913 7.50835 14.508 7.79169 14.1663 7.79169Z" fill="url(#paint1_linear_1467_5065)"/>
<path d="M10.833 11.9583H5.83301C5.49134 11.9583 5.20801 11.675 5.20801 11.3333C5.20801 10.9916 5.49134 10.7083 5.83301 10.7083H10.833C11.1747 10.7083 11.458 10.9916 11.458 11.3333C11.458 11.675 11.1747 11.9583 10.833 11.9583Z" fill="url(#paint2_linear_1467_5065)"/>
<defs>
<linearGradient id="paint0_linear_1467_5065" x1="-0.937003" y1="18.132" x2="13.3261" y2="-2.37574" gradientUnits="userSpaceOnUse">
<stop stop-color="#691DAA"/>
<stop offset="1" stop-color="#E00076"/>
</linearGradient>
<linearGradient id="paint1_linear_1467_5065" x1="4.14948" y1="7.69593" x2="4.33943" y2="5.59615" gradientUnits="userSpaceOnUse">
<stop stop-color="#691DAA"/>
<stop offset="1" stop-color="#E00076"/>
</linearGradient>
<linearGradient id="paint2_linear_1467_5065" x1="4.51766" y1="11.8626" x2="4.80577" y2="9.78556" gradientUnits="userSpaceOnUse">
<stop stop-color="#691DAA"/>
<stop offset="1" stop-color="#E00076"/>
</linearGradient>
</defs>
</svg>
