<svg width="20" height="21" viewBox="0 0 20 21" fill="none" xmlns="http://www.w3.org/2000/svg">
<path d="M12.5003 19.4584H7.50033C2.97533 19.4584 1.04199 17.525 1.04199 13V8.00002C1.04199 3.47502 2.97533 1.54169 7.50033 1.54169H12.5003C17.0253 1.54169 18.9587 3.47502 18.9587 8.00002V13C18.9587 17.525 17.0253 19.4584 12.5003 19.4584ZM7.50033 2.79169C3.65866 2.79169 2.29199 4.15835 2.29199 8.00002V13C2.29199 16.8417 3.65866 18.2084 7.50033 18.2084H12.5003C16.342 18.2084 17.7087 16.8417 17.7087 13V8.00002C17.7087 4.15835 16.342 2.79169 12.5003 2.79169H7.50033Z" fill="url(#paint0_linear_1467_5125)"/>
<path d="M17.8996 7.04999H2.09961C1.75794 7.04999 1.47461 6.76665 1.47461 6.42499C1.47461 6.08332 1.74961 5.79999 2.09961 5.79999H17.8996C18.2413 5.79999 18.5246 6.08332 18.5246 6.42499C18.5246 6.76665 18.2496 7.04999 17.8996 7.04999Z" fill="url(#paint1_linear_1467_5125)"/>
<path d="M7.09961 6.93336C6.75794 6.93336 6.47461 6.65003 6.47461 6.30836V2.25836C6.47461 1.9167 6.75794 1.63336 7.09961 1.63336C7.44128 1.63336 7.72461 1.9167 7.72461 2.25836V6.30836C7.72461 6.65003 7.44128 6.93336 7.09961 6.93336Z" fill="url(#paint2_linear_1467_5125)"/>
<path d="M12.9004 6.55836C12.5587 6.55836 12.2754 6.27503 12.2754 5.93336V2.25836C12.2754 1.9167 12.5587 1.63336 12.9004 1.63336C13.2421 1.63336 13.5254 1.9167 13.5254 2.25836V5.93336C13.5254 6.28336 13.2504 6.55836 12.9004 6.55836Z" fill="url(#paint3_linear_1467_5125)"/>
<path d="M9.24167 15.6C8.94167 15.6 8.65833 15.525 8.4 15.3833C7.83333 15.05 7.5 14.3833 7.5 13.5417V11.5417C7.5 10.7 7.83333 10.025 8.40833 9.69165C8.98333 9.35832 9.73333 9.40832 10.4583 9.83332L12.1917 10.8333C12.9167 11.25 13.3417 11.875 13.3417 12.5417C13.3417 13.2083 12.9167 13.8333 12.1833 14.25L10.45 15.25C10.05 15.4833 9.63333 15.6 9.24167 15.6ZM9.25 10.725C9.16667 10.725 9.09167 10.7417 9.03333 10.775C8.85833 10.875 8.75 11.1583 8.75 11.5417V13.5417C8.75 13.9167 8.85833 14.2 9.03333 14.3083C9.20833 14.4083 9.50833 14.3583 9.83333 14.1667L11.5667 13.1667C11.8917 12.975 12.0917 12.7417 12.0917 12.5417C12.0917 12.3417 11.9 12.1083 11.5667 11.9167L9.83333 10.9167C9.61667 10.7917 9.40833 10.725 9.25 10.725Z" fill="url(#paint4_linear_1467_5125)"/>
<defs>
<linearGradient id="paint0_linear_1467_5125" x1="-0.937003" y1="18.0858" x2="13.2726" y2="-2.40196" gradientUnits="userSpaceOnUse">
<stop stop-color="#691DAA"/>
<stop offset="1" stop-color="#E00076"/>
</linearGradient>
<linearGradient id="paint1_linear_1467_5125" x1="-0.408658" y1="6.95423" x2="-0.301292" y2="4.84273" gradientUnits="userSpaceOnUse">
<stop stop-color="#691DAA"/>
<stop offset="1" stop-color="#E00076"/>
</linearGradient>
<linearGradient id="paint2_linear_1467_5125" x1="6.33654" y1="6.52734" x2="9.07245" y2="5.59698" gradientUnits="userSpaceOnUse">
<stop stop-color="#691DAA"/>
<stop offset="1" stop-color="#E00076"/>
</linearGradient>
<linearGradient id="paint3_linear_1467_5125" x1="12.1373" y1="6.18107" x2="14.8291" y2="5.19601" gradientUnits="userSpaceOnUse">
<stop stop-color="#691DAA"/>
<stop offset="1" stop-color="#E00076"/>
</linearGradient>
<linearGradient id="paint4_linear_1467_5125" x1="6.85476" y1="15.1307" x2="11.7903" y2="8.34517" gradientUnits="userSpaceOnUse">
<stop stop-color="#691DAA"/>
<stop offset="1" stop-color="#E00076"/>
</linearGradient>
</defs>
</svg>
