<svg width="40" height="40" viewBox="0 0 40 40" fill="none" xmlns="http://www.w3.org/2000/svg">
<g clip-path="url(#clip0_1467_5151)">
<path fill-rule="evenodd" clip-rule="evenodd" d="M7.14286 0H32.8572C36.7858 0 40 3.21427 40 7.14286V32.8572C40 36.7858 36.7857 40 32.8572 40H7.14286C3.21425 40 0 36.7857 0 32.8572V7.14286C0 3.21424 3.21427 0 7.14286 0Z" fill="#FFFA04"/>
<path d="M30.4615 22.7659V22.7656L30.4609 22.7645V22.7646L30.4615 22.7659Z" fill="#212121"/>
<path d="M11.3064 16.6641H11.3063C11.1719 14.5239 11.0047 11.8614 11.726 10.2437C12.5534 8.38851 13.7476 7.1012 15.2167 6.27635C16.678 5.45589 18.4026 5.09851 20.302 5.09851C21.1304 5.09851 23.1896 5.24218 25.1418 6.50015C26.3294 7.26537 27.4756 8.44039 28.2786 10.2408C29.0158 11.8937 28.8421 14.5163 28.7053 16.5833C28.6918 16.788 28.6786 16.9874 28.6671 17.1713C28.7169 17.1818 28.7736 17.1898 28.8377 17.1934C29.0001 17.1848 29.1787 17.1528 29.3723 17.0979C29.5799 17.0391 29.7999 16.9553 30.0311 16.8469C30.149 16.7918 30.2696 16.7556 30.384 16.7324C30.5281 16.7033 30.662 16.6951 30.7666 16.6951V16.6938C30.898 16.6938 31.0329 16.707 31.165 16.7323C31.2906 16.7564 31.4128 16.7918 31.5262 16.8375L31.5278 16.8379C31.8686 16.9596 32.1502 17.1479 32.351 17.378C32.5658 17.6243 32.6878 17.9172 32.6939 18.2303V18.2316C32.7013 18.6236 32.538 18.9812 32.2062 19.302C31.9121 19.5863 31.4812 19.8412 30.9156 20.0646H30.9143C30.8504 20.0898 30.773 20.117 30.6876 20.1455C30.5552 20.1898 30.4991 20.2076 30.4432 20.2253C30.1566 20.3162 29.7967 20.4303 29.4958 20.5826C29.2297 20.7172 29.0034 20.8807 28.9188 21.08C28.8795 21.1727 28.8684 21.2844 28.8855 21.4142C28.9053 21.5653 28.9629 21.7384 29.0581 21.9322L29.0585 21.9319C29.0614 21.9376 29.0606 21.9372 29.0708 21.9595L29.0713 21.9593C29.0739 21.9649 29.0776 21.9732 29.0822 21.9842C29.12 22.0722 29.5942 23.1545 30.5731 24.308C31.5431 25.4511 33.0061 26.655 35.0155 26.9862C35.2624 27.0268 35.474 27.1569 35.6202 27.3392C35.7666 27.5218 35.848 27.7567 35.8341 28.006C35.8304 28.0731 35.82 28.1421 35.8033 28.2121C35.7862 28.2838 35.7645 28.3503 35.7384 28.4108L35.7379 28.4106C35.5432 28.8637 35.0705 29.2424 34.3091 29.5512C33.6451 29.8205 32.7391 30.0471 31.5825 30.2347C31.5448 30.3641 31.4974 30.5811 31.4647 30.7308L31.4641 30.7332C31.4421 30.8344 31.4182 30.9413 31.3808 31.0967L31.3805 31.0967C31.3489 31.2277 31.3158 31.3551 31.2801 31.4765L31.2797 31.4764C31.208 31.7209 31.0779 31.9138 30.8981 32.0485C30.7168 32.1843 30.4947 32.2556 30.2409 32.2556H30.2235L30.2182 32.2543L30.2054 32.2541V32.2553C30.1066 32.2553 29.9912 32.2472 29.8602 32.231C29.737 32.2158 29.5969 32.1928 29.441 32.1623C29.2147 32.1181 28.9749 32.0756 28.7131 32.0444C28.4546 32.0136 28.1716 31.9936 27.8536 31.9936C27.6688 31.9936 27.4817 32.0015 27.2939 32.0174C27.0999 32.0338 26.9092 32.0574 26.7235 32.0883C26.0187 32.2054 25.3827 32.6546 24.6447 33.1758L24.644 33.1749L24.6417 33.1766V33.1779C23.0022 34.3373 21.5073 34.9161 20.0004 34.9156C18.4935 34.9151 16.9996 34.3352 15.3624 33.1776L15.3624 33.1776L15.362 33.1774C14.6247 32.6563 13.9878 32.2061 13.2805 32.0883L13.2805 32.088C13.0949 32.0573 12.9044 32.0337 12.7107 32.0174C12.5229 32.0015 12.3359 31.9936 12.1512 31.9936C11.8151 31.9936 11.519 32.019 11.2604 32.0536C11.0087 32.0873 10.7674 32.1344 10.5638 32.1742C10.4216 32.2021 10.289 32.2281 10.1736 32.246C10.0414 32.2663 9.91722 32.2793 9.79935 32.2793C9.50927 32.2793 9.28877 32.1979 9.12139 32.0761V32.0748C8.89818 31.9123 8.78339 31.6889 8.72495 31.4899C8.68296 31.347 8.65002 31.22 8.62188 31.1016C8.59447 30.9863 8.56735 30.8618 8.54068 30.7392L8.53929 30.733C8.50641 30.5827 8.45914 30.3665 8.42155 30.2375C7.26527 30.0501 6.35927 29.8232 5.69523 29.5533C4.93301 29.2436 4.45993 28.8635 4.26532 28.4085V28.4072C4.23641 28.3389 4.21445 28.2735 4.19972 28.2114C4.18431 28.1465 4.17449 28.0781 4.17043 28.0066C4.15675 27.7572 4.23819 27.5224 4.38469 27.3397C4.53079 27.1574 4.74238 27.0272 4.98943 26.9865C6.99782 26.6559 8.4607 25.452 9.43093 24.3088C10.4089 23.1564 10.8846 22.0715 10.9225 21.9832L10.9232 21.9835C10.9349 21.9555 10.9372 21.9504 10.939 21.9465L10.9395 21.9468L10.942 21.9415L10.9447 21.9362C11.0409 21.7408 11.0992 21.5663 11.1192 21.414C11.1362 21.2848 11.1253 21.1734 11.0864 21.0811L11.0859 21.0813C10.9027 20.6497 10.0959 20.3935 9.56178 20.2239H9.56144L9.5611 20.225C9.51767 20.2112 9.47354 20.1973 9.31916 20.1458C9.22384 20.114 9.1432 20.086 9.08891 20.0646C8.41848 19.7997 7.98888 19.5089 7.72157 19.2219C7.32104 18.7917 7.26693 18.3661 7.33193 18.0245C7.40568 17.6359 7.65805 17.3154 7.98722 17.0889C8.33343 16.8509 8.77161 16.7133 9.16879 16.7133C9.27921 16.7133 9.38883 16.7244 9.49673 16.7465C9.60413 16.7685 9.70622 16.802 9.80218 16.8469C10.0513 16.9637 10.2877 17.052 10.5096 17.1113C10.7183 17.1671 10.9108 17.1952 11.0854 17.1952C11.1864 17.1952 11.2697 17.1858 11.338 17.1716C11.3312 17.0601 11.3237 16.9408 11.3163 16.823L11.3065 16.667V16.6657L11.3064 16.6641Z" fill="#FFFFFE"/>
<path d="M10.8863 16.7645V16.6633V16.6632C10.7494 14.4826 10.5831 11.779 11.3435 10.0736C11.7758 9.10417 12.3042 8.28287 12.9165 7.59608C13.5336 6.90393 14.2355 6.34731 15.0099 5.91255C15.775 5.48298 16.6092 5.1746 17.5006 4.97363C18.3864 4.77395 19.3227 4.68097 20.2987 4.68097C20.8212 4.68097 21.8147 4.73615 22.9744 5.07196C23.7312 5.29114 24.5564 5.62954 25.3631 6.14935C26.0278 6.57763 26.6799 7.12758 27.2714 7.83301C27.7893 8.45063 28.2612 9.18885 28.6545 10.0707C29.4341 11.8186 29.2568 14.4969 29.1171 16.6079H29.1171V16.6085L29.1146 16.6462L29.1087 16.7348C29.1548 16.7243 29.2042 16.7116 29.2567 16.6967C29.345 16.6717 29.4401 16.6397 29.5415 16.6011C29.6516 16.5592 29.7552 16.5154 29.852 16.4701C29.9286 16.4342 30.0008 16.406 30.0685 16.384H30.0701C30.1446 16.3599 30.2218 16.3404 30.2993 16.3247C30.3152 16.3214 30.331 16.3184 30.3466 16.3156V16.2762H30.7633C30.8322 16.2762 30.9119 16.2807 31.0006 16.2892C31.0857 16.2974 31.1658 16.3087 31.2398 16.3229C31.3103 16.3364 31.385 16.3546 31.4632 16.3774C31.5306 16.397 31.5945 16.4185 31.6541 16.4416L31.6645 16.4448C31.8642 16.5161 32.0481 16.6077 32.2128 16.7157C32.3825 16.8271 32.5328 16.9578 32.6602 17.1037C32.7997 17.2637 32.9092 17.4397 32.9847 17.6274C33.0601 17.8147 33.1016 18.0141 33.1057 18.2213L33.1073 18.2294V18.2307H33.1058C33.1096 18.4863 33.0582 18.7312 32.9517 18.9648C32.8484 19.1916 32.6947 19.4037 32.4909 19.6006C32.3201 19.7658 32.1131 19.9202 31.8705 20.0636C31.6346 20.203 31.366 20.3323 31.0653 20.4511L31.0595 20.4522C31.0236 20.4663 30.9849 20.4806 30.944 20.4952C30.9244 20.5021 30.8792 20.5174 30.8161 20.5385L30.662 20.59C30.5654 20.6214 30.5755 20.6183 30.5652 20.6216C30.4085 20.6713 30.2319 20.7273 30.1115 20.7707C29.9656 20.8233 29.817 20.8833 29.6796 20.9528C29.5707 21.0079 29.4731 21.0663 29.3996 21.1268C29.3489 21.1684 29.3125 21.2076 29.298 21.2419L29.2974 21.2416C29.2946 21.2489 29.2925 21.2594 29.2911 21.2729C29.2887 21.2977 29.2896 21.3266 29.2939 21.3596C29.3006 21.4102 29.314 21.4659 29.3341 21.5263C29.3393 21.5418 29.3449 21.5577 29.351 21.574L29.4334 21.7583L29.4338 21.7591L29.4338 21.7592L29.4382 21.7689L29.4417 21.7769L29.4422 21.7777L29.4426 21.7788L29.4472 21.7891L29.4519 21.7996L29.4551 21.8044L29.4614 21.819V21.8206C29.4792 21.8622 29.6003 22.1389 29.8311 22.539C30.0657 22.9456 30.4141 23.4812 30.8871 24.0386C31.3988 24.6416 32.0538 25.2619 32.8598 25.7478C33.5025 26.1352 34.2411 26.4371 35.0789 26.5752C35.2538 26.6039 35.4149 26.663 35.5572 26.746C35.7043 26.8319 35.8341 26.945 35.9407 27.0779C36.0466 27.21 36.1287 27.3615 36.1813 27.5253C36.2323 27.6843 36.2555 27.854 36.2459 28.0279C36.2431 28.0781 36.2384 28.1247 36.2321 28.1673V28.1689C36.2269 28.2033 36.2174 28.2495 36.2036 28.3072C36.1905 28.3622 36.178 28.4077 36.1664 28.4434C36.1506 28.4918 36.1342 28.5356 36.1175 28.5743L35.9607 28.9378L35.9173 28.9216C35.8042 29.076 35.6623 29.2215 35.4915 29.358C35.2195 29.5753 34.8768 29.7678 34.4621 29.936C34.1127 30.0777 33.7017 30.2077 33.2281 30.3263C32.8398 30.4236 32.4028 30.5142 31.9166 30.5984C31.9043 30.6532 31.8847 30.7429 31.8683 30.8178L31.8667 30.8194L31.8665 30.82L31.8677 30.8203L31.8302 30.9849C31.8174 31.041 31.8017 31.1078 31.7811 31.1935L31.6872 31.5826L31.679 31.5809L31.6755 31.5929L31.5625 31.976L31.5151 31.9641C31.5013 31.9875 31.4869 32.0104 31.4719 32.0328C31.3821 32.1674 31.2721 32.2835 31.1438 32.3797C31.0136 32.4772 30.8703 32.551 30.7157 32.5997C30.6838 32.6098 30.6515 32.6187 30.6188 32.6267V32.6711H30.2705C30.2596 32.6713 30.2486 32.6714 30.2376 32.6714H30.2202L30.2178 32.6711H30.2021C30.1486 32.6711 30.0853 32.6685 30.0124 32.6634V32.6633C29.9407 32.6582 29.8718 32.6516 29.8065 32.6436C29.7547 32.6372 29.6835 32.6265 29.5928 32.6117C29.5037 32.5971 29.4252 32.5831 29.358 32.57C29.2343 32.5459 29.1174 32.5239 29.0203 32.5078C28.9144 32.4903 28.7964 32.4731 28.6609 32.457C28.5331 32.4417 28.405 32.4295 28.2779 32.4216C28.1519 32.4138 28.0106 32.4094 27.8503 32.4094C27.7432 32.4094 27.6557 32.4109 27.5879 32.4137C27.5185 32.4167 27.4308 32.4226 27.3247 32.4316C27.2342 32.4392 27.1433 32.4487 27.0523 32.46C26.9486 32.4729 26.8599 32.4854 26.7869 32.4975C26.1879 32.5971 25.5967 33.0095 24.9139 33.4916L24.589 33.8165L24.5406 33.7488C23.8135 34.2339 23.1092 34.6076 22.4145 34.8699C21.6014 35.1768 20.8025 35.33 19.9971 35.3298C19.1915 35.3295 18.3928 35.1757 17.5805 34.8686C16.7834 34.5674 15.9741 34.1197 15.1324 33.5258L15.1276 33.5232L15.1274 33.5231L15.1193 33.5166C14.4234 33.0247 13.8221 32.5997 13.2089 32.4975L13.1531 32.4883C13.0925 32.479 13.0231 32.4696 12.9449 32.4599C12.8542 32.4486 12.7635 32.4392 12.6732 32.4315C12.5671 32.4226 12.4791 32.4166 12.41 32.4137C12.3424 32.4109 12.2551 32.4094 12.1479 32.4094C11.9845 32.4094 11.8368 32.4151 11.7027 32.4248C11.5545 32.4354 11.4251 32.4492 11.3107 32.4645C11.0897 32.4941 10.8472 32.5414 10.6424 32.5814L10.6425 32.5817L10.6419 32.5819H10.6403C10.6017 32.5894 10.5659 32.5965 10.4318 32.6215C10.3491 32.637 10.2793 32.6496 10.2337 32.6566L10.2338 32.6569C10.1757 32.6658 10.1051 32.6745 10.0152 32.6828C9.9304 32.6907 9.85658 32.6951 9.79605 32.6951C9.617 32.6951 9.45491 32.6701 9.30847 32.6263C9.14383 32.5769 8.99973 32.5021 8.87396 32.4105L8.70141 32.2849V32.2611C8.63691 32.196 8.58124 32.1271 8.53328 32.0564C8.43111 31.9056 8.36513 31.75 8.3229 31.6062C8.30014 31.5289 8.28036 31.4577 8.26292 31.3915C8.23933 31.3021 8.22349 31.2397 8.21331 31.1968C8.21017 31.1836 8.19928 31.1326 8.17243 31.0118C8.11378 30.748 8.14567 30.8963 8.13048 30.8262L8.13168 30.8259L8.13072 30.8216L8.12992 30.8196L8.12906 30.8198L8.12789 30.8146L8.12746 30.8135L8.12743 30.8133L8.12762 30.8133C8.11359 30.7493 8.09717 30.6741 8.08065 30.6012C7.59461 30.5171 7.15776 30.4264 6.76956 30.3291C6.29592 30.2103 5.88491 30.0802 5.53568 29.9382C5.11805 29.7686 4.77452 29.5755 4.50369 29.3585C4.2118 29.1245 4.00424 28.8621 3.87955 28.5704L3.87832 28.5646C3.85928 28.5195 3.84314 28.4772 3.82997 28.4378C3.8125 28.3856 3.79949 28.3417 3.79116 28.3065C3.7815 28.2658 3.77298 28.22 3.76572 28.1691C3.75948 28.1255 3.75492 28.0786 3.75209 28.0285C3.74256 27.8545 3.76584 27.6847 3.81687 27.5259C3.86953 27.362 3.95165 27.2104 4.05752 27.0784C4.16406 26.9455 4.29383 26.8324 4.44101 26.7465C4.58317 26.6635 4.74434 26.6043 4.91939 26.5755C5.75674 26.4376 6.49508 26.136 7.13768 25.7486C7.94344 25.2628 8.59846 24.6424 9.11024 24.0394C9.58281 23.4826 9.93142 22.9466 10.1663 22.5394C10.3947 22.1434 10.5184 21.8606 10.5367 21.8179L10.6675 21.5136C10.6859 21.4567 10.6981 21.4052 10.7041 21.3595C10.7084 21.3265 10.7094 21.2977 10.707 21.2735C10.7061 21.2649 10.7051 21.2576 10.7037 21.2517L10.7001 21.2432C10.655 21.1368 10.483 21.0281 10.2731 20.9278C10.1089 20.8494 9.92419 20.7807 9.74693 20.7206L9.43246 20.6212C9.42339 20.6184 9.44956 20.6266 9.34987 20.5942L9.18403 20.5388L9.18418 20.5383C9.11485 20.5153 9.06696 20.4991 9.04863 20.4927C8.98758 20.4713 8.9467 20.4566 8.93261 20.4511C8.59474 20.3176 8.30804 20.1738 8.06521 20.0242C7.79011 19.8547 7.57711 19.6795 7.41391 19.5042C7.18768 19.2613 7.04841 19.0145 6.97057 18.7752C6.87334 18.4764 6.873 18.1948 6.92009 17.9472C6.96697 17.7002 7.06776 17.475 7.20768 17.2752C7.35289 17.0679 7.53872 16.8902 7.74791 16.7463C7.95396 16.6046 8.18729 16.4927 8.42815 16.4161C8.67458 16.3378 8.92717 16.2958 9.16548 16.2958C9.22632 16.2958 9.29494 16.2996 9.37107 16.3073C9.4395 16.3142 9.50812 16.3248 9.57644 16.3387C9.65235 16.3543 9.72063 16.372 9.78082 16.3918L9.78067 16.3923C9.84329 16.4129 9.90807 16.4389 9.97466 16.4701C10.0889 16.5236 10.1999 16.5705 10.3073 16.6107C10.4066 16.6478 10.5089 16.6804 10.6137 16.7085C10.7035 16.7325 10.7876 16.7502 10.8657 16.7616L10.8863 16.7645ZM11.7181 16.637L11.7195 16.6602L11.7198 16.6649V16.666L11.728 16.7961V16.7977L11.7498 17.1463L11.7722 17.5043L11.4194 17.5776C11.3726 17.5873 11.3201 17.5955 11.2614 17.6013C11.1984 17.6075 11.1379 17.6111 11.0821 17.6111C10.9781 17.6111 10.8668 17.6024 10.7486 17.5852C10.6346 17.5686 10.5179 17.5443 10.3989 17.5125C10.2817 17.4811 10.1544 17.4398 10.0176 17.3887C9.88935 17.3407 9.75773 17.2852 9.62311 17.222C9.59444 17.2086 9.5607 17.1955 9.52207 17.1829H9.52044C9.47867 17.1691 9.44191 17.159 9.41042 17.1525C9.37089 17.1444 9.33054 17.1383 9.28969 17.1342C9.25654 17.1308 9.21504 17.1291 9.16549 17.1291C9.00527 17.1291 8.8386 17.1564 8.67884 17.2072C8.51629 17.2588 8.35887 17.3343 8.21993 17.4299C8.08764 17.5209 7.97316 17.6289 7.88799 17.7505C7.81417 17.8559 7.76124 17.9733 7.73716 18.1002C7.71316 18.2263 7.71304 18.3688 7.76161 18.5181C7.80452 18.65 7.88609 18.7912 8.02262 18.9378C8.13947 19.0633 8.29572 19.191 8.50143 19.3178C8.69554 19.4374 8.93813 19.5577 9.2386 19.6763C9.27871 19.6922 9.30541 19.7024 9.32208 19.7082C9.38129 19.729 9.42093 19.7427 9.44606 19.7511H9.44769C9.46873 19.7581 9.53034 19.7782 9.60702 19.8032C9.63525 19.8124 9.63064 19.8104 9.68314 19.827L9.68302 19.8274L9.68382 19.8275C9.96326 19.9163 10.3141 20.0277 10.6312 20.1791C10.8608 20.2889 11.0716 20.4203 11.232 20.5811L11.311 20.5515L11.4618 20.9102L11.4651 20.9177L11.465 20.9177L11.4656 20.9191C11.5016 21.0047 11.5244 21.0959 11.5338 21.1921C11.5424 21.2789 11.5403 21.3706 11.5277 21.4669C11.5142 21.57 11.4886 21.6779 11.4511 21.79C11.416 21.895 11.3708 22.0039 11.3156 22.1163L11.3143 22.1195L11.3147 22.1197L11.3122 22.125L11.3101 22.1294L11.3041 22.1438L11.1381 22.5393L11.1172 22.5298C11.0559 22.6485 10.9789 22.7911 10.8856 22.9528C10.6287 23.3983 10.2504 23.9811 9.74503 24.5765C9.18188 25.24 8.45941 25.9237 7.56737 26.4615C6.84317 26.8981 6.00696 27.2387 5.05288 27.3958C4.985 27.407 4.92022 27.4312 4.86092 27.4659C4.79987 27.5015 4.74721 27.547 4.70528 27.5992C4.66229 27.6529 4.62904 27.7141 4.60791 27.7798C4.58754 27.8432 4.57829 27.9118 4.58219 27.983C4.58339 28.0043 4.58579 28.0273 4.5893 28.0519C4.59179 28.0693 4.59594 28.0903 4.60169 28.1145C4.60803 28.1413 4.61341 28.1612 4.61775 28.1741C4.62611 28.1991 4.63506 28.2228 4.64438 28.2449L4.64451 28.2449C4.71433 28.4082 4.84074 28.5634 5.02455 28.7107C5.22946 28.8749 5.50364 29.0268 5.84819 29.1668C6.16293 29.2947 6.53707 29.4129 6.9714 29.5219C7.42004 29.6343 7.9237 29.7358 8.48337 29.8265L8.74343 29.8686L8.817 30.1211C8.86298 30.2789 8.9101 30.4943 8.94286 30.6441L8.94449 30.6506L8.94452 30.6507L8.94434 30.6508C8.98608 30.8431 8.95138 30.6907 8.98297 30.8328L9.02385 31.0047C9.04175 31.0801 9.05654 31.1405 9.06694 31.1799C9.08343 31.2425 9.10117 31.3065 9.1204 31.3719C9.14211 31.4458 9.17385 31.5226 9.22011 31.5909C9.25662 31.6447 9.30313 31.6956 9.36222 31.7386L9.39008 31.7589C9.43407 31.7868 9.48568 31.8107 9.54612 31.8288C9.61624 31.8498 9.69892 31.8618 9.79606 31.8618C9.85336 31.8618 9.9006 31.8597 9.94034 31.856C9.97504 31.8528 10.0326 31.8448 10.1068 31.8333H10.1084C10.1783 31.8226 10.2319 31.8133 10.2789 31.8045L10.4792 31.7651L10.4791 31.7648L10.4797 31.7647H10.4814C10.6831 31.7253 10.9222 31.6786 11.2034 31.641C11.3476 31.6217 11.4957 31.6054 11.6441 31.5947C11.8067 31.583 11.9752 31.5761 12.1479 31.5761C12.2252 31.5761 12.3238 31.5786 12.4426 31.5836C12.5601 31.5886 12.6597 31.5946 12.7416 31.6015C12.8449 31.6102 12.9464 31.6207 13.0458 31.633C13.1317 31.6437 13.2313 31.6584 13.344 31.677L13.3455 31.6773V31.6772L13.3511 31.6782L13.7465 31.7436L13.7423 31.7731C14.371 31.9717 14.9395 32.371 15.5783 32.8225L16.0612 33.0639L16.0087 33.1163C16.651 33.5374 17.2692 33.8623 17.8734 34.0907C18.594 34.363 19.2959 34.4995 19.9971 34.4997C20.6985 34.4999 21.4006 34.364 22.1215 34.0919C22.8309 33.8241 23.5596 33.4233 24.3242 32.8896L24.3975 32.8372L24.3998 32.8355L24.7373 32.5944L24.7397 32.5977C25.3815 32.1525 25.9705 31.7908 26.6534 31.6772C26.7659 31.6586 26.8652 31.6439 26.9515 31.6332C27.051 31.6208 27.1527 31.6102 27.2564 31.6015C27.3382 31.5946 27.4381 31.5886 27.5554 31.5836C27.6742 31.5786 27.7727 31.576 27.8503 31.576C28.008 31.576 28.1672 31.5817 28.3268 31.5916C28.4853 31.6014 28.6281 31.6146 28.7586 31.6302C28.8849 31.6452 29.0179 31.665 29.1538 31.6875C29.2986 31.7115 29.4148 31.7329 29.5175 31.7529C29.6061 31.7703 29.6756 31.7831 29.7263 31.7914C29.7753 31.7994 29.8359 31.8079 29.9074 31.8167C29.9725 31.8248 30.0266 31.8303 30.0694 31.8333H30.071C30.1131 31.8363 30.1569 31.8378 30.2021 31.8378V31.8381L30.207 31.8382L30.2198 31.8384L30.2202 31.8384V31.8381H30.2376C30.3227 31.8381 30.3998 31.827 30.4683 31.8054C30.5345 31.7846 30.594 31.7544 30.6458 31.7156C30.6979 31.6766 30.7435 31.628 30.7819 31.5705C30.8221 31.5103 30.8542 31.4399 30.8776 31.36L30.8781 31.3585L30.878 31.3585C30.8942 31.3037 30.9104 31.245 30.9265 31.1835C30.9492 31.0974 30.9641 31.039 30.9735 30.9998L30.9739 30.9982L30.9738 30.9982C30.9906 30.9286 31.0057 30.8641 31.0197 30.8026C31.0242 30.7824 31.0317 30.7462 31.054 30.6445L31.0556 30.6429L31.0557 30.6423L31.0545 30.642C31.0671 30.5843 31.0823 30.5148 31.1132 30.3815C31.134 30.2914 31.157 30.1988 31.1804 30.1183L31.2538 29.8659L31.5141 29.8237C32.0739 29.7329 32.5776 29.6315 33.0263 29.5191C33.4608 29.4102 33.835 29.2922 34.1496 29.1646C34.4962 29.024 34.7706 28.8727 34.9739 28.7102C35.1555 28.5652 35.2812 28.4103 35.3521 28.2453L35.3646 28.2163C35.3687 28.2057 35.3723 28.1957 35.3753 28.1863C35.3853 28.1556 35.3924 28.1318 35.3963 28.1152C35.3993 28.1029 35.4034 28.0795 35.4085 28.0452L35.4087 28.0452C35.4125 28.0199 35.4149 27.9988 35.4158 27.9823C35.4197 27.9111 35.4105 27.8425 35.3902 27.7792C35.3691 27.7135 35.3359 27.6523 35.293 27.5987C35.2511 27.5465 35.1984 27.5011 35.1373 27.4654C35.0781 27.4309 35.0134 27.4067 34.9454 27.3955C33.9908 27.2382 33.1544 26.8973 32.4301 26.4607C31.5379 25.9228 30.8154 25.2392 30.2524 24.5757C29.7466 23.9797 29.3684 23.3973 29.1117 22.9524C29.0112 22.7781 28.9294 22.6252 28.8656 22.5004L28.86 22.5028L28.7789 22.3255C28.7328 22.2297 28.7058 22.1679 28.697 22.1475L28.6964 22.1478L28.6902 22.1333L28.6908 22.133L28.6899 22.1311L28.6782 22.1057C28.6245 21.9957 28.5805 21.8892 28.5464 21.7867C28.5089 21.6743 28.4835 21.5677 28.4704 21.4671C28.4577 21.3703 28.4557 21.2783 28.4643 21.1916C28.4739 21.0946 28.4969 21.0032 28.533 20.918V20.9163C28.603 20.7514 28.7221 20.6091 28.8723 20.4856C28.9995 20.3809 29.1482 20.2901 29.3053 20.2106C29.4689 20.1279 29.6508 20.0547 29.8316 19.9895C30.038 19.915 30.1846 19.8685 30.3145 19.8273C30.3808 19.8064 30.3834 19.8059 30.4048 19.799C30.4759 19.7759 30.5338 19.757 30.5525 19.7507C30.5747 19.7433 30.6109 19.7307 30.6673 19.7107C30.7012 19.6986 30.7323 19.6871 30.7594 19.6764L30.7593 19.6763C31.0237 19.5719 31.2532 19.4622 31.4474 19.3474C31.6355 19.2363 31.7914 19.1209 31.9148 19.0016C32.0431 18.8776 32.137 18.7503 32.1965 18.6198C32.2516 18.4988 32.2781 18.3713 32.2756 18.2376V18.2372L32.274 18.2308V18.2295H32.2754C32.2724 18.1292 32.2511 18.0308 32.2132 17.9366C32.1724 17.8353 32.1124 17.7391 32.0352 17.6506C31.96 17.5644 31.8666 17.4842 31.7571 17.4123C31.6475 17.3405 31.5226 17.2786 31.3845 17.2293L31.3849 17.2281L31.3683 17.2224C31.3216 17.2035 31.276 17.1877 31.2321 17.1749C31.1889 17.1623 31.1392 17.1506 31.0835 17.14C31.0251 17.1288 30.9711 17.1207 30.9225 17.116C30.8785 17.1118 30.8253 17.1096 30.7633 17.1096V17.1093C30.7191 17.1093 30.6667 17.1113 30.6077 17.1171C30.5603 17.1217 30.5111 17.1286 30.4621 17.1385C30.4201 17.147 30.3746 17.1587 30.3255 17.1746L30.3256 17.1751C30.2806 17.1897 30.2392 17.2054 30.2036 17.222C30.0693 17.285 29.9473 17.3374 29.8377 17.3791C29.7195 17.4241 29.6006 17.4637 29.4813 17.4975C29.377 17.527 29.2708 17.5515 29.163 17.5708V17.5724C29.0627 17.5903 28.9601 17.6021 28.8556 17.6076H28.8116C28.7756 17.6056 28.7364 17.6016 28.6948 17.5962C28.6485 17.5903 28.6102 17.5839 28.5791 17.5774L28.2264 17.5034L28.2487 17.146C28.2612 16.9462 28.2727 16.772 28.2845 16.5942L28.287 16.5564H28.287V16.5558C28.4209 14.533 28.5907 11.9667 27.896 10.4092C27.5373 9.60495 27.1065 8.93108 26.6334 8.36686C26.0996 7.73032 25.5121 7.23469 24.9139 6.84923C24.1793 6.3759 23.4298 6.06829 22.7433 5.86947C21.69 5.56444 20.7789 5.51434 20.2987 5.51434C19.3754 5.51434 18.4996 5.60009 17.6829 5.78418C16.8719 5.96697 16.113 6.24758 15.4168 6.63845C14.7222 7.02843 14.0924 7.528 13.5383 8.14949C12.9794 8.77634 12.4969 9.5264 12.1019 10.4121C11.4644 11.8419 11.5696 14.2265 11.6937 16.2466H11.6954L11.7164 16.6101L11.7181 16.637ZM32.2756 18.2373L32.2756 18.2372L32.2756 18.2373ZM32.2756 18.2376L32.2756 18.2373L32.2756 18.2376ZM11.3156 22.1162L11.3156 22.1163L11.3156 22.1162Z" fill="#212121"/>
</g>
<defs>
<clipPath id="clip0_1467_5151">
<rect width="40" height="40" fill="white"/>
</clipPath>
</defs>
</svg>
