<svg width="40" height="40" viewBox="0 0 40 40" fill="none" xmlns="http://www.w3.org/2000/svg">
<g clip-path="url(#clip0_1467_5136)">
<path d="M32.8457 39.3182C24.3093 40.2289 15.7003 40.2289 7.16388 39.3182C5.5062 39.1431 3.9586 38.4052 2.77909 37.2273C1.59959 36.0495 0.859447 34.5029 0.682067 32.8455C-0.228658 24.3091 -0.228658 15.7 0.682067 7.16364C0.857121 5.50595 1.59509 3.95835 2.77294 2.77885C3.95079 1.59934 5.49735 0.859203 7.15479 0.681823C15.6912 -0.228902 24.3002 -0.228902 32.8366 0.681823C34.4943 0.856876 36.0419 1.59484 37.2214 2.7727C38.4009 3.95055 39.141 5.49711 39.3184 7.15455C40.2291 15.6909 40.2291 24.3 39.3184 32.8364C39.1434 34.494 38.4054 36.0416 37.2276 37.2212C36.0497 38.4007 34.5031 39.1408 32.8457 39.3182Z" fill="#0C0C0C"/>
<path d="M39.9731 22.5114C39.9019 25.9568 39.683 29.4015 39.3163 32.8455C39.1422 34.5022 38.4046 36.049 37.2269 37.2272C36.0491 38.4054 34.5026 39.1435 32.8458 39.3182C28.9928 39.7303 25.1375 39.9576 21.2799 40L10.6436 29.3636C9.56857 20.55 18.9322 16.5455 18.9322 16.5455L22.2731 19.8773L24.9618 7.5L39.9731 22.5114Z" fill="black"/>
<path d="M16.9841 32.5C14.8684 32.5 12.8394 31.6595 11.3433 30.1635C9.8473 28.6675 9.00684 26.6384 9.00684 24.5227C9.00684 22.407 9.8473 20.378 11.3433 18.8819C12.8394 17.3859 14.8684 16.5455 16.9841 16.5455H18.9318V20.4386H16.9841C16.175 20.4386 15.3841 20.6786 14.7113 21.1281C14.0386 21.5776 13.5142 22.2165 13.2046 22.964C12.895 23.7115 12.814 24.5341 12.9718 25.3276C13.1297 26.1212 13.5193 26.8501 14.0914 27.4223C14.6635 27.9944 15.3925 28.384 16.186 28.5418C16.9796 28.6997 17.8021 28.6187 18.5496 28.3091C19.2971 27.9994 19.9361 27.4751 20.3856 26.8023C20.8351 26.1296 21.075 25.3387 21.075 24.5295V7.5H24.9682V9.44545C24.9682 10.5304 25.3992 11.571 26.1664 12.3382C26.9336 13.1054 27.9741 13.5364 29.0591 13.5364H31.0068V17.4227H29.0455C27.6036 17.4248 26.1888 17.0318 24.9546 16.2864V24.5227C24.9528 26.6367 24.1127 28.6637 22.6185 30.1591C21.1243 31.6546 19.0981 32.4964 16.9841 32.5Z" fill="white"/>
</g>
<defs>
<clipPath id="clip0_1467_5136">
<rect width="40" height="40" fill="white"/>
</clipPath>
</defs>
</svg>
