<svg width="86" height="67" viewBox="0 0 86 67" fill="none" xmlns="http://www.w3.org/2000/svg">
<path d="M13.8667 2.33333C13.4667 3.4 11.0667 4.86666 8.53333 5.66666C0.533333 8.33333 0 10.3333 0 35.4C0 58.7333 1.06667 64.3333 6 66.2C7.2 66.6 23.8667 67 43.0667 67C79.7333 66.8667 80.5333 66.7333 83.7333 60.7333C85.8667 57 85.8667 14.6 83.8667 10.7333C81.0667 5.53333 74.8 4.33333 51.4667 4.33333C33.3333 4.33333 29.4667 3.93333 28.8 2.33333C27.7333 -0.46667 14.9333 -0.46667 13.8667 2.33333ZM23.7333 3.93333C22.4 4.2 20.2667 4.2 19.0667 3.93333C17.7333 3.53333 18.8 3.26666 21.3333 3.26666C23.8667 3.26666 24.9333 3.53333 23.7333 3.93333ZM79.2 10.8667C80.4 12.2 81.6 15 81.7333 17.1333C82 20.8667 81.7333 21 75.0667 21.4C71.2 21.6667 68 22.3333 68 23C68 23.6667 71.2 24.3333 75.0667 24.6L82 25V42.0667C82 65.9333 84.8 64.3333 42.6667 64.3333C0.533333 64.3333 3.33333 65.9333 3.33333 42.0667V25L10.4 24.6C14.1333 24.3333 17.3333 23.6667 17.3333 23C17.3333 22.3333 14.1333 21.6667 10.4 21.4C3.6 21 3.33333 20.8667 3.6 17.1333C3.73333 15 4.93333 12.2 6.13333 10.8667C8.26667 8.46666 10.8 8.33333 42.6667 8.33333C74.5333 8.33333 77.0667 8.46666 79.2 10.8667Z" fill="#7A7A7A"/>
<path d="M68.8 11.6667C66.4 14.0667 67.3333 17.1333 70.6667 19C75.0667 21.4 79.3333 14.8667 75.7333 11.2667C73.6 9.13332 71.3333 9.26666 68.8 11.6667ZM73.3333 15C73.3333 15.6667 72.8 16.3333 72 16.3333C71.3333 16.3333 70.6667 15.6667 70.6667 15C70.6667 14.2 71.3333 13.6667 72 13.6667C72.8 13.6667 73.3333 14.2 73.3333 15Z" fill="#7A7A7A"/>
<path d="M36 12.6C25.2 15.6667 18.6667 24.6 18.6667 36.3333C18.6667 43.9333 20.6667 48.7333 26.2667 53.9333C35.4667 62.6 49.8667 62.6 59.0667 53.9333C64.6667 48.7333 66.6667 43.9333 66.6667 36.3333C66.6667 24.2 60.2667 15.6667 48.6667 12.4667C42.5333 10.7333 42.2667 10.7333 36 12.6ZM54.2667 18.4667C61.0667 23.6667 63.3333 27.9333 63.3333 36.2C63.3333 45.9333 58.9333 52.3333 50.1333 55.6667C35.4667 61.2667 20.4 50.0667 21.7333 34.6C22.4 27.4 25.3333 22.4667 32.1333 17.9333C35.8667 15.2667 37.8667 14.8667 43.7333 15.2667C47.8667 15.6667 52.2667 17 54.2667 18.4667Z" fill="#7A7A7A"/>
<path d="M35.0667 20.2C23.7333 25.4 21.4667 39.4 30.5333 48.4667C35.2 53.1333 36.4 53.6667 42.6667 53.6667C48.9333 53.6667 50.1333 53.1333 54.8 48.4667C61.2 42.2 62.1333 35 57.7333 26.6C55.8667 23 46.9333 17.6667 42.6667 17.6667C41.6 17.6667 38.1333 18.8667 35.0667 20.2ZM52.8 26.2C57.8667 31.2667 58.6667 36.4667 55.3333 43C53.0667 47.2667 47.2 51 42.6667 51C38.1333 51 32.2667 47.2667 30 43C26.6667 36.4667 27.4667 31.2667 32.5333 26.2C36.2667 22.4667 38.1333 21.6667 42.6667 21.6667C47.2 21.6667 49.0667 22.4667 52.8 26.2Z" fill="#7A7A7A"/>
<path d="M41.3333 26.3333C41.3333 27.4 42.4 28.3333 43.7333 28.3333C46.8 28.3333 50.6667 32.3333 50.6667 35.4C50.6667 37.6667 52.1333 38.3333 53.7333 36.8667C55.3333 35.2667 51.4667 28.2 47.8667 26.3333C43.0667 23.8 41.3333 23.8 41.3333 26.3333Z" fill="#7A7A7A"/>
</svg>
